<?xml version="1.0" encoding="utf-8"?>
<!-- Generator: Adobe Illustrator 27.0.0, SVG Export Plug-In . SVG Version: 6.00 Build 0)  -->
<svg version="1.1" xmlns="http://www.w3.org/2000/svg" xmlns:xlink="http://www.w3.org/1999/xlink" x="0px" y="0px"
	 viewBox="0 0 360 360" style="enable-background:new 0 0 360 360;" xml:space="preserve">
<style type="text/css">
	.st0{fill:#FFFAE9;}
	.st1{filter:url(#Adobe_OpacityMaskFilter);}
	.st2{mask:url(#SVGID_1_);}
	.st3{fill:#DD9933;}
	.st4{filter:url(#Adobe_OpacityMaskFilter_00000079457342998605050670000016134290545992801699_);}
	.st5{stroke:#000000;stroke-width:1.4608;stroke-miterlimit:10;}
	.st6{stroke:#000000;stroke-width:1.5345;stroke-miterlimit:10;}
	.st7{fill:none;stroke:#231F20;stroke-width:0.5;stroke-miterlimit:10;}
	.st8{fill:#333333;}
	.st9{fill:none;stroke:#FFFAE9;stroke-width:0.5;stroke-miterlimit:10;}
	.st10{filter:url(#Adobe_OpacityMaskFilter_00000067917476156730951710000010923935935784956853_);}
	.st11{mask:url(#SVGID_00000062881498444358419500000000818756408146726287_);fill:#FFFAE9;}
	.st12{filter:url(#Adobe_OpacityMaskFilter_00000098912788320940312930000010746248865452119175_);}
	.st13{mask:url(#SVGID_00000051364334700636193270000014614748942482119313_);}
	.st14{filter:url(#Adobe_OpacityMaskFilter_00000054959184362518722800000004854888061944992182_);}
	.st15{mask:url(#SVGID_00000157991529613743599750000001095296504231584164_);}
	.st16{fill:none;stroke:#FFFAE9;stroke-width:3;stroke-linecap:round;stroke-miterlimit:10;}
	.st17{fill:#878787;}
	.st18{fill:#3A3A3A;}
	.st19{fill:#BF9931;}
	.st20{fill:none;stroke:#333333;stroke-miterlimit:10;}
	.st21{filter:url(#Adobe_OpacityMaskFilter_00000143606551855886824230000015580019303463634604_);}
	.st22{mask:url(#SVGID_00000144326707539576467640000005018585920274520211_);}
	.st23{fill:none;stroke:#878787;stroke-width:0.5;stroke-miterlimit:10;}
	.st24{fill:#4C4C4B;}
	.st25{filter:url(#Adobe_OpacityMaskFilter_00000052106413575425602990000004485738208111314348_);}
	.st26{mask:url(#SVGID_00000047033591427434656490000012529364495456052135_);}
	.st27{filter:url(#Adobe_OpacityMaskFilter_00000008146281421869706090000000629795808906732185_);}
	.st28{filter:url(#Adobe_OpacityMaskFilter_00000108309354859245403100000011498633565954052016_);}
	.st29{mask:url(#SVGID_00000111878364789041177100000004126459457714773695_);}
	.st30{filter:url(#Adobe_OpacityMaskFilter_00000112607291059139008050000005948718956381587111_);}
	.st31{mask:url(#SVGID_00000119081271600025334030000002904476732851625366_);}
	.st32{filter:url(#Adobe_OpacityMaskFilter_00000050626453541606893440000014583160707289105593_);}
	.st33{mask:url(#SVGID_00000047778062345956717190000004864961053742949766_);}
	.st34{filter:url(#Adobe_OpacityMaskFilter_00000056397116452605168600000001147682408918155138_);}
	.st35{fill:#231F20;}
	.st36{fill:#FFFAE9;stroke:#000000;stroke-width:0.8169;stroke-miterlimit:10;}
	.st37{fill:#AAD9BD;}
	.st38{opacity:0.37;fill:none;stroke:#FFFAE9;stroke-width:0.5;stroke-miterlimit:10;}
	.st39{filter:url(#Adobe_OpacityMaskFilter_00000086676877424506983360000014203069130671546785_);}
	.st40{mask:url(#SVGID_00000040537891513895619710000013446177359481012137_);}
	.st41{filter:url(#Adobe_OpacityMaskFilter_00000136408735468882125800000001646823851642881953_);}
	.st42{mask:url(#SVGID_00000103247810330343640980000008366189997950169226_);}
	.st43{filter:url(#Adobe_OpacityMaskFilter_00000028297572423908808200000013352963289747417519_);}
	.st44{filter:url(#Adobe_OpacityMaskFilter_00000081642340190647607910000004419768196221250444_);}
	.st45{mask:url(#SVGID_00000029746691391833298160000011838544634020013235_);}
	.st46{filter:url(#Adobe_OpacityMaskFilter_00000000944275693621896880000016331213725798652086_);}
</style>
<g id="Layer_2">
</g>
<g id="Layer_1">
	<g>
		<g>
			<path class="st19" d="M195.6,286.79c0.29,0.34,0.63,0.64,0.85,1.02c0.17,0.28,0.6,0.64,0.01,1.02c-0.07,0.04,0.11,0.78,0.34,0.91
				c0.51,0.31,0.53,0.84,0.78,1.26c0.06,0.09-0.12,0.3-0.12,0.46c0,0.13,0.05,0.29,0.14,0.39c0.16,0.17,0.37,0.3,0.53,0.47
				c0.08,0.08,0.08,0.24,0.11,0.36c-0.13,0-0.26,0-0.57,0c0.26,0.36,0.45,0.64,0.65,0.92c0.04-0.03,0.07-0.06,0.11-0.09
				c0.1,0.62,0.21,1.24,0.32,1.9c0.01,0-0.09,0.02-0.03,0.01c0,0.76,0.05,1.48-0.01,2.2c-0.11,1.38-0.23,2.77-0.43,4.14
				c-0.16,1.04-0.45,2.07-0.71,3.1c-0.14,0.54-0.38,1.05-0.5,1.59c-0.13,0.59-0.17,1.19-0.25,1.79c-0.02,0.12-0.01,0.32-0.07,0.34
				c-0.53,0.16-0.81,0.41-0.42,0.97c0,0-0.25,0.19-0.3,0.32c-0.59,1.72-0.62,3.75-2.68,4.73c0.19,0.07,0.35,0.13,0.42,0.16
				c-0.28,0.29-0.58,0.62-0.9,0.92c-0.73,0.69-1.48,1.38-2.22,2.06c-0.08,0.07-0.2,0.1-0.31,0.15c-0.51,0.26-1.03,0.51-1.54,0.77
				c-0.11,0.05-0.21,0.16-0.32,0.16c-1.12,0.07-2.24,0.23-3.35,0.17c-1.84-0.11-3.12-1.31-4.34-2.53c-1.23-1.23-1.94-2.74-2.53-4.38
				c-0.41-1.15-0.78-2.27-0.88-3.49c-0.12-1.55-0.41-3.1-0.47-4.65c-0.07-1.72,0.04-3.44,0.07-5.17c0.01-0.8-0.03-1.61,0.03-2.4
				c0.07-0.88,0.16-1.76,0.36-2.62c0.29-1.17,0.52-2.37,1.29-3.38c0.28-0.37,0.31-0.93,0.5-1.39c0.63-1.48,1.75-2.58,3.02-3.45
				c0.94-0.65,2.08-1.02,3.15-1.47c1.79-0.75,3.61-0.88,5.4-0.02c0.58,0.28,1.1,0.52,1.79,0.57c1.15,0.08,1.87,1.11,2.78,1.72
				c0.12,0.08,0.13,0.35,0.18,0.53C195.53,286.82,195.56,286.8,195.6,286.79z M183.68,311.25c0.47,0.3,1.09,0.4,0.85,1.11
				c-0.02,0.07,0.28,0.24,0.41,0.38c0.55,0.59,1.23,0.31,1.86,0.26c0.34-0.03,0.74-0.08,1-0.28c0.91-0.72,1.37-1.73,1.87-2.76
				c0.93-1.94,1.79-3.86,2.31-5.97c0.52-2.09,1.51-4.07,1.21-6.32c-0.16-1.22-0.24-2.47-0.53-3.66c-0.27-1.11-0.78-2.16-1.18-3.24
				c-0.12-0.32-0.23-0.65-0.28-0.99c-0.07-0.58-0.9-1.22-1.48-1.12c-0.59,0.1-1.19,0.22-1.78,0.25c-1.35,0.08-2.64,0.39-3.42,1.55
				c-0.56,0.85-0.96,1.84-1.24,2.83c-0.25,0.87-0.25,1.82-0.36,2.74c-0.04,0.35-0.09,0.69-0.12,1.04c-0.07,0.7-0.17,1.39-0.2,2.09
				c-0.02,0.48,0.17,1,0.04,1.44c-0.35,1.22,0.11,2.39,0.1,3.58c0,0.23-0.05,0.47-0.06,0.64c0.08,0.32,0.22,0.63,0.23,0.95
				c0.01,0.3-0.18,0.61-0.15,0.91c0.03,0.45,0.18,0.89,0.27,1.33c0.06,0.29,0.12,0.59,0.19,0.91c0.01,0-0.13-0.01-0.27-0.03
				c-0.04,0.06-0.08,0.12-0.12,0.18c0.22,0.17,0.43,0.34,0.75,0.59c0-0.01-0.04,0.19-0.09,0.39c0.1-0.13,0.2-0.27,0.3-0.4
				c0.16,0.43,0.32,0.87,0.5,1.33C184.07,311.07,183.92,311.14,183.68,311.25z"/>
			<path class="st19" d="M162.38,306.14c0.09,0.08,0.36,0.21,0.37,0.36c0.03,0.71-0.01,1.41-0.02,1.93c0.17,0.56,0.33,0.97,0.43,1.4
				c0.13,0.57,0.11,1.19,0.33,1.71c0.31,0.69,0.76,1.33,1.22,1.93c0.09,0.12,0.58,0.06,0.81-0.06c1.35-0.74,2.59-1.59,3.74-2.65
				c0.75-0.68,1.44-1.77,2.79-1.58c0.76,0.1,1.14,0.46,1.25,1.19c0.08,0.52,0.32,1.03,0.57,1.5c0.25,0.46,0.14,0.86-0.3,0.96
				c0.04,0.3,0.17,0.62,0.09,0.88c-0.16,0.55-0.21,1.06-0.19,1.65c0.02,0.69-0.33,1.33-0.96,1.79c-0.72,0.53-1.35,1.19-2.08,1.71
				c-0.43,0.3-0.96,0.47-1.47,0.65c-0.85,0.3-1.7,0.58-2.57,0.83c-0.29,0.08-0.61,0.06-0.92,0.03c-0.97-0.11-1.93-0.29-2.9-0.35
				c-1.97-0.12-2.82-1.62-3.85-2.96c-1.13-1.47-1.82-3.14-2.45-4.84c-0.26-0.71-0.29-1.5-0.42-2.26c-0.04-0.26-0.05-0.52-0.08-0.77
				c-0.18-1.58-0.44-3.15-0.5-4.73c-0.04-1.07,0.2-2.15,0.37-3.21c0.2-1.2,0.25-2.49,0.75-3.56c0.51-1.09,0.35-2.24,0.7-3.33
				c0.25-0.78,0.54-1.54,0.79-2.3c0.57-1.71,1.35-3.3,2.22-4.86c0.17-0.3,0.53-0.5,0.84-0.7c0.72-0.48,1.61-0.81,2.15-1.44
				c0.76-0.88,1.72-0.85,2.66-1.03c0.26-0.05,0.53-0.09,0.79-0.07c0.35,0.03,0.69,0.12,1.03,0.18c0.05,0.01,0.1,0.05,0.14,0.04
				c1.13-0.23,1.96,0.34,2.63,1.12c0.33,0.39,1.14,0.36,1.03,1.21c-0.03,0.2,0.45,0.45,0.66,0.71c0.96,1.15,1.87,2.33,1.82,3.95
				c-0.01,0.38-0.06,0.75-0.07,1.12c-0.02,0.72-0.7,1.2-1.38,0.98c-0.12-0.04-0.29-0.16-0.36-0.11c-0.7,0.46-1.04-0.1-1.47-0.48
				c-0.96-0.85-1.88-1.77-2.93-2.5c-0.52-0.37-1.01,0.26-1.38,0.62c-0.8,0.77-1.54,1.61-2.3,2.43c-0.09,0.09-0.09,0.27-0.12,0.41
				c-0.06,0.27-0.11,0.54-0.18,0.8c-0.2,0.77-0.44,1.52-0.59,2.3c-0.19,0.97-0.32,1.95-0.45,2.94c-0.09,0.64-0.12,1.29-0.22,1.93
				c-0.08,0.53-0.28,1.06-0.29,1.59c-0.01,0.45,0.18,0.91,0.29,1.36C162.56,305.06,162.67,305.6,162.38,306.14z"/>
			<path class="st19" d="M204.38,315.2c-0.5,1.03-0.95,2.02-1.47,2.96c-0.08,0.15-0.6,0.24-0.72,0.14
				c-0.38-0.34-0.68-0.18-1.06-0.06c-0.63,0.2-1.29,0.39-1.43-0.64c-0.05-0.33-0.46-0.64-0.43-0.93c0.08-1.01,0.07-2.2,1.01-2.77
				c0.81-0.49,1.86-0.61,2.81-0.85c0.12-0.03,0.37,0.19,0.46,0.35C203.84,313.97,204.09,314.56,204.38,315.2z"/>
		</g>
		<g>
			<path class="st18" d="M240.05,172.06c-0.14-2.92-0.5-5.85-1.08-8.72c-0.53-2.62-1.36-5.21-2.17-7.71l-0.18-0.55
				c-1.37-4.28-3.58-8.14-5.35-11.02c-2.03-3.3-4.52-6.56-7.63-9.95c-4.39-4.8-9.56-8.95-15.39-12.34
				c-6.77-3.94-13.82-6.58-20.97-7.84c-2.92-0.52-5.96-0.86-9.03-1.02c-3.44-0.18-7.19,0.07-11.8,0.77c-3.22,0.5-6.66,1.12-9.95,2.3
				c-1.5,0.54-2.99,1.18-4.42,1.8c-1.18,0.51-2.41,1.04-3.62,1.5c-3.22,1.23-6.08,3.14-8.84,4.98l-0.71,0.47
				c-2.4,1.6-4.49,3.55-6.44,5.41c-2.71,2.59-5.22,5.57-7.68,9.1c-2.25,3.24-3.89,6.72-5.32,10.01c-3.06,7.02-4.82,13.77-5.37,20.62
				c-0.59,7.33,0.13,14.52,2.15,21.37c1.68,5.72,4.05,10.71,7.23,15.27c0.25,0.36,0.41,0.67,0.48,0.95c0.49,1.98,1.42,3.6,2.84,4.98
				c1.28,1.24,2.65,2.79,3.13,4.91l0.34,1.5c0.42,1.86,0.84,3.73,1.23,5.6c0.2,0.95,0.37,1.9,0.54,2.86
				c0.28,1.52,0.56,3.09,0.94,4.62c0.64,2.58,2.34,3.85,4.9,3.65c1.2-0.09,1.9,0.38,2.41,1.61c0.22,0.54,0.37,1.2,0.45,2.01
				c0.15,1.51,0.28,3.02,0.41,4.53c0.15,1.7,0.29,3.4,0.47,5.09c0.18,1.83,0.44,3.77,1.37,5.53c0.66,1.27,1.78,2.05,3.05,2.13
				c1.26,0.09,2.45-0.53,3.27-1.69c0.1-0.14,0.21-0.28,0.32-0.42c0.22-0.28,0.45-0.58,0.63-0.92c0.78-1.48,1.75-3.33,1.63-5.49
				c-0.07-1.3,0-2.6,0.09-4.03c0.07-1.19,0.09-1.38,1.37-1.51c0.34,0.87,0.4,1.81,0.46,2.8c0.02,0.35,0.04,0.7,0.08,1.04
				c0.09,0.91,0.16,1.81,0.24,2.72c0.11,1.38,0.23,2.82,0.4,4.22c0.14,1.16,0.75,2.07,1.73,2.58c1.02,0.53,2.32,0.53,3.32-0.01
				c0.09-0.05,0.18-0.09,0.3-0.13c0.03,0.18,0.07,0.35,0.1,0.52c0.15,0.73,0.29,1.41,0.37,2.09c0.23,1.75,0.44,3.5,0.66,5.26
				c0.17,1.38,0.34,2.77,0.51,4.15c0.21,1.64,0.82,2.85,1.81,3.6c0.79,0.59,1.81,0.89,3.07,0.89c0.46,0,0.95-0.04,1.47-0.12
				c1.48-0.23,2.54-0.94,3.14-2.11c1.48-2.89,2.43-5.98,2.82-9.21c0.12-1,0.15-2.02,0.19-3c0.02-0.59,0.04-1.19,0.08-1.78l0.02-0.36
				c0.05-0.75,0.09-1.52,0.26-2.23c0.18-0.74,0.52-1.23,0.98-1.41c0.46-0.19,1.07-0.06,1.71,0.36c1.74,1.13,4.19,1,5.82-0.32
				c2.03-1.64,2.74-3.96,3.25-6.01c0.46-1.85,0.85-3.75,1.23-5.58c0.16-0.77,0.32-1.54,0.49-2.32c0.23-1.08,0.49-1.65,1.23-1.83
				c0.46,0.3,0.59,0.77,0.74,1.48l0.03,0.12c0.16,0.71,0.28,1.42,0.41,2.13l0.14,0.8c0.33,1.83,1.04,4.03,3.61,4.79
				c0.03,0.02,0.05,0.05,0.08,0.07c0.06,0.06,0.12,0.11,0.19,0.16c1.94,1.36,4.04,1.26,5.84,0.97c1.13-0.18,1.91-0.86,2.19-1.92
				c0.29-1.09,0.5-2.22,0.7-3.3l0.02-0.09c0.1-0.56,0.19-1.12,0.28-1.67c0.14-0.88,0.29-1.79,0.49-2.67
				c0.11-0.47,0.24-0.96,0.41-1.07c0.17-0.1,0.66-0.02,1.15,0.09c0.5,1.04,0.38,2.18,0.26,3.39l-0.03,0.29
				c-0.04,0.45-0.1,0.89-0.16,1.34c-0.12,0.97-0.25,1.97-0.24,2.97c0.02,1.27,0.15,2.56,0.28,3.79c0.06,0.62,0.13,1.25,0.18,1.87
				c0.15,1.93,1.14,3.59,2.7,4.55c1.54,0.95,3.43,1.09,5.19,0.38c0.4-0.16,0.79-0.5,1.05-0.91c0.95-1.48,2.06-3.48,2.2-5.8
				c0.18-3.26,0.37-6.63,0.29-10.01c-0.03-1.29,0-2.61,0.03-3.89c0.05-2.21,0.1-4.49-0.15-6.75c-0.06-0.56-0.12-1.21-0.09-1.82
				c0.04-0.72,0.25-1.11,1.25-1.27c0.1,0.15,0.19,0.29,0.28,0.43c0.32,0.5,0.62,0.96,0.98,1.4c0.59,0.73,1.14,1.31,1.7,1.79
				c1.46,1.24,2.72,1.29,3.51,1.12c1.1-0.24,2.06-1.07,2.64-2.28c0.66-1.38,0.86-3.03,0.96-4.14c0.11-1.25,0.01-2.52-0.09-3.75
				l-0.05-0.6c-0.25-3.42,0.62-6.77,2.68-10.24c0.15-0.25,0.42-0.47,0.71-0.71c0.2-0.16,0.39-0.32,0.56-0.49
				c0.15-0.15,0.31-0.29,0.47-0.44c0.46-0.42,0.94-0.85,1.21-1.43c1.4-3.01,2.55-5.68,3.52-8.17c0.6-1.54,1.02-3.11,1.24-4.68
				c0.28-1.91,0.34-3.9,0.36-5.75c0.02-1.26,0.22-2.14,0.67-2.94c0.34-0.6,0.4-1.34,0.42-1.91c0.02-0.77,0.06-1.54,0.09-2.32
				C240.06,176.81,240.16,174.42,240.05,172.06z M224.33,219.92c0.04,0.94,0.08,1.92,0.08,2.88c0,0.61-0.16,1.29-0.44,1.92
				c-0.11,0.25-0.2,0.31-0.22,0.32c-0.01,0-0.12-0.01-0.41-0.28c-0.83-0.8-1.68-1.63-2.29-2.56c-0.68-1.05-1.48-1.46-2.76-1.47
				c-3.15,0.04-4.96,1.8-4.99,4.82c-0.01,1.19,0.08,2.39,0.16,3.55c0.04,0.57,0.08,1.14,0.11,1.71c0.02,0.29,0,0.59-0.01,0.88
				l-0.21,4.11c-0.16,3.07-0.32,6.13-0.47,9.2c-0.02,0.38,0,0.76,0.02,1.13c0.02,0.48,0.05,0.93-0.01,1.36
				c-0.12,0.91-0.35,1.84-0.69,2.78c-0.06,0.17-0.24,0.68-1.13,0.54c-0.49-0.08-0.7-0.32-0.75-0.85c-0.05-0.51-0.11-1.01-0.18-1.51
				c-0.22-1.8-0.44-3.66-0.35-5.51c0.03-0.63,0.1-1.27,0.17-1.9c0.19-1.81,0.4-3.67-0.23-5.53c-0.27-0.81-0.74-1.66-1.42-2.6
				c-0.57-0.79-1.47-1.18-2.52-1.14c-0.32,0.02-0.65,0.02-0.97,0.03c-0.37,0.01-0.73,0.02-1.1,0.04c-2.28,0.12-3.35,1.04-3.81,3.26
				c-0.26,1.27-0.49,2.55-0.73,3.83c-0.14,0.75-0.27,1.49-0.41,2.24c-0.06,0.31-0.14,0.61-0.21,0.91l-0.03,0.12
				c-1.07,0.26-1.83-0.21-2.68-0.75c-0.27-0.17-0.54-0.34-0.8-0.47c0,0-0.09-0.1-0.19-0.5c-0.06-0.26-0.13-0.51-0.19-0.76
				c-0.21-0.83-0.41-1.61-0.48-2.41c-0.16-2.05-1.19-3.75-3.14-5.21c-0.7-0.52-1.8-0.67-3.02-0.4c-1.32,0.29-2.44,1.01-2.91,1.88
				c-0.72,1.32-1.3,2.77-1.68,4.2c-0.34,1.27-0.6,2.58-0.85,3.84c-0.22,1.08-0.44,2.19-0.71,3.27c-0.38,1.51-1.15,2.62-2.36,3.37
				c-0.03-0.01-0.05-0.02-0.08-0.03c-0.23-0.1-0.48-0.2-0.69-0.32c-1.46-0.9-3.3-1.07-4.92-0.46c-1.59,0.6-2.74,1.83-3.26,3.49
				c-0.46,1.49-0.67,3.07-0.79,4.28c-0.1,1.02-0.13,2.06-0.16,3.06c-0.05,1.81-0.09,3.52-0.55,5.2c-0.32,1.18-0.83,2.35-1.32,3.45
				c-0.2,0.44-0.45,0.73-0.74,0.84c-0.28,0.1-0.63,0.07-1.06-0.09c-0.47-1.08-0.63-2.33-0.8-3.65c-0.05-0.37-0.09-0.73-0.15-1.1
				c-0.18-1.22-0.32-2.44-0.46-3.66c-0.13-1.14-0.26-2.28-0.43-3.42c-0.19-1.32-0.73-2.5-1.6-3.51c-0.74-0.85-1.5-1.18-2.48-1.06
				c-0.38,0.05-0.77,0.07-1.18,0.1l-0.25,0.02c-0.31-1.13-0.37-2.3-0.43-3.53c-0.02-0.47-0.05-0.94-0.09-1.41l-0.08-1.06
				c-0.07-0.95-0.14-1.94-0.27-2.91c-0.17-1.35-0.85-2.56-2.06-3.69c-0.15-0.14-0.68-0.6-1.29-0.62c-2.09-0.06-3.67,0.35-4.98,1.29
				c-0.86,0.62-1.29,1.34-1.31,2.22l-0.09,2.64c-0.04,1.18-0.08,2.35-0.12,3.53c-0.05,1.64-0.49,2.8-1.42,3.7
				c-0.13-0.2-0.16-0.47-0.19-0.83l-0.03-0.27c-0.52-4.06-0.92-7.66-1.24-11c-0.18-1.84-0.56-3.98-2.07-5.85
				c-1.27-1.58-2.66-2.24-4.38-2.1c-0.31,0.03-0.62,0.03-0.93,0.03l-0.23,0c-0.54-0.77-0.75-1.65-0.98-2.58l-0.11-0.44
				c-0.14-0.57-0.23-1.15-0.32-1.76c-0.09-0.6-0.18-1.21-0.33-1.81c-0.73-2.96-1.54-6.14-2.45-9.34c-0.53-1.87-1.84-3.18-3.1-4.44
				c-0.26-0.26-0.53-0.53-0.78-0.79l-0.13-0.14c-0.62-0.65-1.26-1.32-1.69-2.06c-3.03-5.26-5.41-10.96-7.07-16.94
				c-0.94-3.4-1.57-7.07-1.91-11.25c-0.47-5.8-0.14-11.53,0.99-17.01c1.41-6.84,4.06-13.13,7.88-18.68
				c3.05-4.44,6.16-8.05,9.49-11.06c2.62-2.36,5.53-4.44,8.36-6.46c4.48-3.21,9.73-5.58,16.52-7.48c4.13-1.15,8.68-1.71,14.32-1.77
				c8.29-0.1,16.38,1.5,24.07,4.72c5.38,2.25,10.58,5.47,15.46,9.56c7.09,5.94,12.28,13.47,15.89,23.01
				c3.16,8.36,4.38,17.31,3.63,26.59c-0.11,1.34-0.19,2.69-0.26,4.03c-0.12,2.1-0.24,4.27-0.49,6.38c-0.16,1.33-0.67,2.68-1.16,3.98
				l-0.28,0.74c-0.29,0.78-0.64,1.55-0.97,2.3c-0.34,0.76-0.7,1.55-0.99,2.36c-0.35,0.95-0.79,1.56-1.45,2.04
				c-1.22,0.88-2.39,1.94-2.7,3.61c-0.01,0.02-0.04,0.07-0.13,0.18c-1.57,1.82-1.85,4.01-2.13,6.13c-0.04,0.32-0.08,0.64-0.13,0.96
				C224.17,216.11,224.25,218.05,224.33,219.92z"/>
			<g>
				<path class="st18" d="M195.32,261.65c0.12-0.72,0.26-2.14,0.62-3.5c0.33-1.26,0.44-2.48,0.26-3.75
					c-0.11-0.78-0.18-1.58-0.14-2.37c0.08-1.37,0.64-1.76,1.96-1.99c2.02-0.34,3.5,1.24,3.78,2.97c0.29,1.82,0.44,3.66,0.69,5.49
					c0.14,0.99,0.33,1.98,0.53,2.96c0.46,2.18-0.23,4.16-1.03,6.12c-0.68,1.66-3.67,1.96-5.09,0.12
					C195.68,266.12,195.39,264.26,195.32,261.65z M199.32,266.25c1.16-1.24,0.92-2.59,0.68-3.93c-0.41-2.27-0.82-4.54-1.23-6.81
					c-0.1-0.57-0.18-1.15-0.27-1.72c-0.13,0.01-0.27,0.01-0.4,0.02c0.65,2.46-0.08,4.8-0.31,7.19
					C197.61,262.82,197.75,264.67,199.32,266.25z"/>
			</g>
			<g>
				<path class="st18" d="M142.99,195.38c-3.43,1.05-4.43,0.96-5.7-0.71c0.42-0.28,0.8-0.6,1.24-0.83c0.47-0.24,0.98-0.38,1.46-0.6
					c1.35-0.61,2.68-1.23,3.3-2.76c0.41-1,1.37-1.24,2.37-1.29c0.5-0.03,0.99,0.26,0.86,0.68c-0.41,1.31,0.22,2.9-1.27,3.9
					c2.67,1.74,4.01,4.22,5.18,6.85c0.68,1.53,1.58,2.98,2.17,4.54c0.75,1.97,1.29,4.01,1.93,6.02c0.84,2.62,2.43,4.64,4.77,6.09
					c1.57,0.97,3.21,0.94,4.79,0.19c2.33-1.12,4.8-1.5,7.31-1.38c1.1,0.05,2.27,0.53,3.23,1.1c2.56,1.54,5.28,2.22,8.26,2.07
					c1.05-0.05,2.12-0.03,3.16,0.11c1.38,0.18,2.13-0.46,2.81-1.56c1.49-2.42,3.13-4.76,4.62-7.18c1.18-1.92,2.88-3.2,4.8-4.22
					c0.83-0.44,1.74-0.75,2.6-1.14c1.44-0.65,2.9-1.23,3.86-2.62c0.38-0.55,0.93-1.01,1.47-1.43c2.96-2.29,4.12-5.56,4.79-9.02
					c0.35-1.79,0.3-3.67,0.34-5.51c0.01-0.4-0.33-0.83-0.55-1.22c-0.43-0.77-0.88-1.52-1.32-2.26c0.31-0.39,0.51-0.64,0.71-0.88
					c0.48-0.57,0.94-0.52,1.49-0.05c0.64,0.55,1.34,1.02,2.01,1.53c1.01,0.76,2.03,0.77,3.08,0.06c0.3-0.2,0.65-0.43,0.99-0.45
					c0.31-0.01,0.77,0.15,0.93,0.39c0.63,0.95-0.07,3.07-1.1,3.54c-0.71,0.33-1.41,0.66-2.07,0.96c-0.12,1.3-0.24,2.55-0.35,3.8
					c-0.27,3.05-1.51,5.78-2.84,8.47c-0.39,0.78-1.06,1.44-1.66,2.1c-1.14,1.25-2.26,2.54-3.52,3.66c-0.73,0.65-1.7,1.05-2.59,1.5
					c-0.8,0.41-1.62,0.8-2.47,1.08c-2.61,0.87-4.3,2.66-5.62,5.03c-1.11,1.97-2.54,3.76-3.83,5.63c-0.09,0.13-0.22,0.24-0.29,0.38
					c-1.49,2.91-4.11,3.55-7.07,3.48c-0.94-0.02-1.89-0.21-2.81-0.08c-2.52,0.34-4.8-0.45-7.09-1.26c-0.55-0.19-1.17-0.33-1.59-0.69
					c-1.81-1.53-3.88-1.13-5.92-0.91c-0.88,0.1-1.78,0.35-2.59,0.71c-3.03,1.36-5.82,0.86-8.58-0.82c-3.29-2-5.13-4.99-5.94-8.62
					c-0.98-4.42-2.67-8.56-4.55-12.63C145.52,197.6,144.57,196.21,142.99,195.38z"/>
			</g>
			<path class="st18" d="M168.84,166.17c-0.42-0.64-0.83-1.24-1.18-1.88l-0.15-0.27c-0.33-0.6-0.67-1.21-1.06-1.81
				c-0.67-1.01-1.35-2.02-2.05-3.06l-0.33-0.49c1.79-2.04,3.32-4.21,4.81-6.32c0.69-0.98,1.37-1.95,2.08-2.89l0.37-0.49l-0.91-3.36
				l-0.82-0.12c-0.03,0-0.07-0.01-0.12-0.01c-1.36-0.82-2.53-0.01-3.11,0.38c-1.06,0.73-1.73,1.68-2.28,2.51l-1.43,2.17
				c-0.68,1.04-1.36,2.08-2.04,3.1c-0.38-0.6-0.75-1.2-1.1-1.8c-1.33-2.29-3.06-4.91-5.73-6.9c-0.46-0.35-0.93-0.63-1.4-0.86
				c-0.8-0.38-1.41-0.18-1.7-0.02c-0.54,0.29-0.88,0.82-1,1.59l-0.08,0.54l0.33,0.43c0.23,0.29,0.45,0.59,0.68,0.88
				c0.52,0.68,1.06,1.39,1.64,2.07c0.9,1.06,1.5,2.32,2.14,3.66c0.18,0.38,0.36,0.77,0.55,1.15l2.34,4.67l-0.08,0.15
				c-0.27,0.53-0.54,1.04-0.78,1.56c-0.46,1-1.04,2.24-1.53,3.47c-0.25,0.64-0.37,1.35-0.33,2.01c0.04,0.83,0.66,1.56,1.25,1.86
				c0.99,0.49,2.01-0.35,2.2-0.52c0.34-0.31,0.56-0.67,0.74-0.96l0.1-0.16c0.35-0.55,0.69-1.1,1.05-1.67
				c1.58,3.13,3.31,6.28,6.45,8.54c0.72,0.52,1.45,0.76,2.31,0.76c0.07,0,0.15,0,0.22-0.01c1.25-0.06,2.11-0.9,2.19-2.12
				c0.04-0.64,0.05-1.61-0.4-2.63C170.17,168.18,169.49,167.16,168.84,166.17z"/>
			<g>
				<path class="st18" d="M185.17,189.4c-0.01-2.75-0.06-5.34-0.02-7.93c0.03-2.25-0.45-4.38-2.28-6.21
					c-1.6-1.6-1.79-3.41-1.48-5.26c0.24-1.47,0.73-2.92,1.17-4.36c0.61-1.99,0.88-4,0.5-6.04c-0.14-0.74-0.5-1.45-0.73-2.17
					c-1.01-3.16-1.57-6.36-1.59-9.62c-0.01-1.86,1.05-3.33,2.41-4.72c2.29-2.34,8.62-2.33,10.91,0.95c1.51,2.15,2.08,4.41,2.32,6.75
					c0.3,2.88,0.39,5.78-0.27,8.63c-0.41,1.75-0.89,3.5-1.51,5.2c-0.44,1.2-0.15,2.22,0.55,3.29c1.07,1.65,2.03,3.33,1.89,5.26
					c-0.17,2.3-0.74,4.45-3.23,5.89c-1.92,1.11-2.21,2.67-2.11,4.37c0.14,2.24,0.34,4.48,0.49,6.72c0.09,1.39,0.25,2.78,0.18,4.17
					c-0.06,1.13-0.31,2.27-0.68,3.37c-0.3,0.89-1.05,1.59-2.35,1.71c-1.02,0.1-2.17-0.41-2.65-1.44c-0.55-1.16-0.96-2.39-1.15-3.61
					C185.27,192.64,185.27,190.94,185.17,189.4z"/>
			</g>
		</g>
		<g>
			<g>
				<path class="st18" d="M97.47,254.06c0-0.59,0-1.19,0-1.78c0-0.15-0.02-0.3-0.02-0.44c-0.01-0.44-0.02-0.89-0.02-1.33
					c0-0.46,0.01-0.92,0.01-1.38c0-0.02,0-0.03,0-0.05c0-0.05,0.08-0.13,0.12-0.14c0.19-0.04,0.39-0.05,0.59-0.04
					c0.13,0,0.26,0,0.39,0.02c0.2,0.03,0.39,0.03,0.59,0.01c0.12-0.01,0.22,0.07,0.24,0.2c0.01,0.08,0.02,0.16,0,0.24
					c-0.05,0.31-0.05,0.62,0,0.93c0.04,0.21,0.05,0.43,0.02,0.64c-0.03,0.2-0.01,0.39,0,0.59c0.01,0.21,0.01,0.43,0.01,0.64
					c0.01,0.56,0.01,1.12,0.04,1.68c0.03,0.49,0.05,0.99,0.06,1.48c0.02,1.05,0.02,2.11,0.04,3.16c0,0.11,0.01,0.23,0.02,0.34
					c0.04,0.38,0.03,0.75-0.01,1.13c-0.06,0.44-0.15,0.87-0.24,1.31c-0.07,0.37-0.25,0.68-0.46,0.97c-0.14,0.2-0.31,0.38-0.49,0.55
					c-0.34,0.31-0.74,0.48-1.15,0.65c-0.06,0.02-0.13,0.03-0.19,0.05c-0.16,0.04-0.32,0.07-0.48,0.11
					c-0.64,0.16-1.27,0.14-1.89-0.09c-0.09-0.03-0.19-0.07-0.28-0.09c-0.08-0.02-0.15-0.06-0.22-0.11
					c-0.08-0.06-0.16-0.11-0.25-0.15c-0.41-0.2-0.65-0.54-0.81-0.96c-0.06-0.17-0.12-0.34-0.16-0.52c-0.1-0.43-0.18-0.87-0.28-1.3
					c-0.01-0.03-0.02-0.06-0.02-0.1c-0.03-0.48-0.09-0.95-0.09-1.43c-0.01-0.76-0.04-1.51-0.05-2.27c0-0.08,0.01-0.17-0.01-0.25
					c-0.05-0.25-0.03-0.49,0-0.74c0.03-0.24,0.02-0.49,0-0.74c-0.02-0.3,0-0.59,0-0.89c0.01-0.28,0.02-0.56,0.02-0.84
					c0-0.21-0.02-0.43-0.02-0.64c0-0.2,0.03-0.39,0.03-0.59c0-0.81-0.01-1.61-0.01-2.42c0-0.18,0.01-0.36,0.02-0.54
					c0.01-0.1,0.1-0.18,0.2-0.19c0.08-0.01,0.16-0.01,0.25-0.01c0.28,0.02,0.56,0.03,0.84,0.01c0.15-0.01,0.3-0.01,0.44,0.04
					c0.06,0.02,0.12,0.09,0.12,0.14c0,0.02,0.01,0.03,0.01,0.05c0,0.53,0,1.05,0,1.58c0,0.43,0,0.86,0,1.29
					c0.01,0.82,0,1.65-0.04,2.47c0,0.08-0.01,0.17,0.01,0.25c0.02,0.1,0.01,0.2,0,0.29c-0.04,0.3-0.04,0.59-0.01,0.89
					c0.02,0.18,0.03,0.36,0,0.54c-0.03,0.2-0.02,0.39,0.01,0.59c0.02,0.11,0.03,0.23,0.03,0.34c0,0.69,0,1.38,0.07,2.07
					c-0.03,0.4,0.05,0.79,0.15,1.17c0.08,0.32,0.24,0.61,0.48,0.85c0.1,0.1,0.21,0.16,0.34,0.19c0.37,0.08,0.74,0.13,1.13,0.03
					c0.19-0.05,0.33-0.14,0.44-0.29c0.05-0.07,0.08-0.14,0.11-0.22c0.09-0.23,0.16-0.46,0.2-0.71c0.11-0.72,0.18-1.44,0.18-2.16
					c0-0.84,0.02-1.68,0.02-2.52c0-0.46-0.01-0.92-0.02-1.38c0-0.07,0-0.13,0-0.2C97.46,254.06,97.46,254.06,97.47,254.06z"/>
				<path class="st18" d="M101.06,263.46c-0.06-0.1-0.07-0.21-0.07-0.33c0-0.58-0.04-1.16-0.04-1.74c0-0.74,0-1.48,0.07-2.22
					c0.04-0.43,0.04-0.87,0.05-1.3c0.01-0.29,0.02-0.58,0.05-0.87c0.03-0.29,0.03-0.58,0.04-0.87c0.01-0.27,0.01-0.55,0.06-0.82
					c0.02-0.09,0.02-0.19,0.02-0.29c0-0.43,0.01-0.87,0.01-1.3c0-0.37,0.01-0.74,0.01-1.11c0-0.15,0-0.29,0-0.43
					c-0.02-0.64,0-1.29,0.01-1.93c0.01-0.31,0-0.61,0-0.92c0-0.13,0.02-0.26,0.11-0.39c0.18-0.07,0.38-0.1,0.59-0.13
					c0.11-0.02,0.22-0.02,0.34-0.02c0.21,0,0.42-0.02,0.63-0.04c0.26-0.03,0.51-0.03,0.77,0c0.18,0.02,0.35,0.03,0.53,0.04
					c0.4,0.02,0.8,0.06,1.2,0.11c0.41,0.04,0.72,0.23,0.98,0.54c0.42,0.51,0.6,1.1,0.62,1.74c0.02,0.53-0.01,1.06-0.02,1.59
					c-0.09,0.61-0.06,1.22-0.11,1.83c-0.03,0.4-0.07,0.8-0.17,1.19c-0.09,0.34-0.22,0.67-0.4,0.98c-0.1,0.15-0.22,0.27-0.38,0.35
					c-0.19,0.1-0.39,0.16-0.6,0.17c-0.27,0.01-0.55,0.01-0.82,0.02c-0.11,0-0.23,0-0.34,0.01c-0.18,0.02-0.35,0.02-0.53,0
					c-0.16-0.02-0.32,0-0.48,0c-0.08,0-0.16,0.08-0.17,0.15c-0.01,0.03-0.01,0.06-0.01,0.09c-0.04,0.61-0.09,1.22-0.11,1.83
					c-0.02,0.56-0.01,1.13-0.02,1.69c0,0.34-0.01,0.67-0.05,1.01c-0.05,0.35-0.06,0.71-0.02,1.06c0.01,0.08-0.01,0.16-0.03,0.24
					c-0.01,0.03-0.03,0.06-0.06,0.07c-0.06,0.03-0.12,0.05-0.18,0.06c-0.4,0.07-0.8,0.07-1.2,0.04
					C101.22,263.57,101.13,263.54,101.06,263.46z M103.56,255.27c0.23-0.06,0.47-0.06,0.71-0.06c0.11,0,0.23,0,0.34,0.01
					c0.05,0,0.1,0,0.14,0c0.07,0,0.16-0.07,0.18-0.14c0.07-0.17,0.07-0.34,0.08-0.52c0.01-0.34,0-0.68,0.04-1.01
					c0.06-0.58,0.08-1.15,0.08-1.73c0-0.28-0.06-0.54-0.18-0.79c-0.04-0.09-0.11-0.16-0.21-0.19c-0.11-0.03-0.22-0.06-0.33-0.07
					c-0.32-0.02-0.64,0.01-0.96,0.07c-0.09,0.02-0.14,0.08-0.16,0.16c-0.01,0.05-0.02,0.09-0.02,0.14
					c-0.01,0.27-0.02,0.55-0.02,0.82c-0.01,0.48-0.01,0.96-0.06,1.44c-0.06,0.53-0.04,1.06-0.03,1.59c0,0.07,0.02,0.13,0.08,0.19
					C103.33,255.21,103.44,255.24,103.56,255.27z"/>
			</g>
			<g>
				<path class="st18" d="M79.98,228.64c0.09-0.07,0.2-0.1,0.31-0.1c0.45,0,0.9-0.08,1.36-0.07c0.09,0,0.19-0.01,0.28-0.02
					c0.32-0.05,0.64-0.04,0.96-0.02c0.26,0.02,0.53,0.04,0.79,0.06c0.27,0.03,0.51,0.1,0.72,0.26c0.21,0.16,0.42,0.32,0.63,0.48
					c0.07,0.05,0.13,0.12,0.18,0.18c0.15,0.19,0.28,0.38,0.42,0.57c0.04,0.05,0.08,0.11,0.1,0.17c0.21,0.52,0.41,1.04,0.46,1.59
					c0.03,0.34,0.06,0.67,0.03,1.01c-0.01,0.08-0.01,0.16,0,0.24c0.04,0.45,0.02,0.9-0.01,1.35c-0.04,0.55-0.04,1.09-0.05,1.64
					c0,0.13-0.02,0.26-0.02,0.38c0,0.11-0.01,0.23,0.01,0.34c0.03,0.18,0.02,0.35,0,0.53c-0.06,0.53-0.04,1.06-0.02,1.59
					c0.02,0.5,0.01,1-0.09,1.49c-0.02,0.08-0.03,0.16-0.04,0.24c-0.02,0.29-0.11,0.57-0.2,0.85c-0.09,0.32-0.27,0.6-0.5,0.86
					c-0.18,0.2-0.36,0.41-0.59,0.58c-0.25,0.19-0.53,0.31-0.83,0.41c-0.39,0.12-0.79,0.22-1.22,0.21c-0.15,0-0.3,0.01-0.45,0.01
					c-0.21,0-0.41,0.01-0.62,0.05c-0.17,0.03-0.34,0.04-0.51,0.06c-0.3,0.04-0.6,0.01-0.9-0.04c-0.14-0.02-0.23-0.1-0.26-0.23
					c-0.04-0.14-0.05-0.29-0.02-0.43c0.08-0.38,0.04-0.77,0.03-1.16c0-0.06-0.02-0.13-0.01-0.19c0.06-0.38,0.03-0.77,0.03-1.16
					c0-0.4,0.02-0.8,0.02-1.21c0-0.93-0.01-1.87-0.02-2.8c0-0.23,0.01-0.45,0.01-0.68c0-0.11,0.01-0.23,0-0.34
					c-0.07-0.58-0.01-1.16,0.02-1.73c0.02-0.32,0.01-0.64,0-0.97c-0.01-0.43-0.03-0.87-0.04-1.3c0-0.08,0.01-0.16,0.01-0.24
					c0-0.08,0.01-0.16,0-0.24c-0.04-0.21-0.03-0.41-0.01-0.62c0.02-0.13-0.01-0.26-0.03-0.38c-0.04-0.29-0.04-0.58-0.04-0.87
					C79.9,228.88,79.9,228.75,79.98,228.64z M83.88,237c0.02-0.43,0.04-0.83,0.05-1.23c0.01-0.45-0.01-0.9,0.01-1.35
					c0.03-0.66-0.04-1.32-0.1-1.97c-0.03-0.37-0.09-0.74-0.11-1.11c-0.01-0.26-0.1-0.51-0.19-0.75c-0.05-0.12-0.12-0.24-0.22-0.33
					c-0.13-0.13-0.3-0.2-0.5-0.19c-0.19,0.01-0.37,0.04-0.56,0.06c-0.03,0-0.1,0.07-0.11,0.1c-0.01,0.08-0.03,0.16-0.02,0.24
					c0.01,0.21,0.03,0.42,0.05,0.62c0.01,0.16,0.03,0.32,0.04,0.48c0.01,0.34,0.02,0.67,0.03,1.01c0.01,0.48,0.01,0.96,0.01,1.45
					c-0.01,0.34-0.02,0.68-0.06,1.01c-0.04,0.29-0.06,0.58-0.06,0.87c0,0.34,0.01,0.68,0,1.01c0,0.45,0.02,0.9-0.03,1.35
					c-0.02,0.21-0.02,0.42,0,0.63c0.03,0.35,0.02,0.71,0.01,1.06c0,0.4-0.01,0.8-0.01,1.21c0,0.59-0.01,0.53,0.65,0.59
					c0.06,0,0.11,0.01,0.17,0c0.07-0.01,0.16-0.02,0.21-0.06c0.28-0.18,0.49-0.39,0.6-0.68c0.09-0.23,0.1-0.47,0.1-0.71
					C83.86,239.2,83.87,238.09,83.88,237z"/>
				<path class="st18" d="M93.5,237.91c0.07,0.4,0.2,0.78,0.34,1.16c0.28,0.77,0.54,1.55,0.8,2.33c0.2,0.6,0.45,1.2,0.71,1.78
					c0.03,0.06,0.06,0.12,0.08,0.19c0.03,0.08-0.04,0.19-0.13,0.19c-0.54,0.02-1.08,0.08-1.62,0.05c-0.14-0.01-0.27-0.04-0.39-0.15
					c-0.08-0.21-0.2-0.43-0.28-0.67c-0.17-0.53-0.37-1.04-0.54-1.57c-0.14-0.43-0.25-0.87-0.37-1.3c-0.17-0.59-0.42-1.17-0.64-1.75
					c-0.01-0.03-0.03-0.06-0.05-0.09c-0.04-0.06-0.1-0.1-0.18-0.12c-0.33-0.06-0.65-0.05-0.98,0.04c-0.06,0.02-0.14,0.1-0.14,0.15
					c0,0.07,0,0.13,0,0.2c0.01,0.69,0.02,1.39,0.02,2.08c0,0.28-0.01,0.56-0.02,0.84c0,0.43-0.01,0.86,0,1.29
					c0,0.15,0.03,0.3,0.05,0.44c0.01,0.07,0.02,0.13,0.01,0.2c-0.01,0.17-0.11,0.28-0.28,0.35c-0.11,0.05-0.22,0.06-0.34,0.06
					c-0.1,0-0.19,0-0.29-0.02c-0.27-0.05-0.54-0.05-0.81-0.01c-0.1,0.01-0.19,0.01-0.29,0.01c-0.14,0-0.23-0.07-0.24-0.17
					c0-0.08-0.01-0.17-0.01-0.25c0.02-0.53,0.01-1.06,0-1.59c0-0.56,0.01-1.12,0.02-1.68c0-0.07,0.01-0.13,0-0.2
					c-0.06-0.61-0.02-1.22,0.02-1.83c0.01-0.13,0.02-0.26,0-0.4c-0.03-0.25,0.01-0.49-0.03-0.74c-0.02-0.08,0-0.17,0.01-0.25
					c0.07-0.38,0.07-0.76,0.08-1.14c0.02-0.5,0.01-0.99,0.07-1.48c0.01-0.07,0.01-0.13,0-0.2c-0.09-0.51-0.06-1.02-0.05-1.53
					c0-0.21,0-0.43,0-0.64c0-0.07-0.01-0.13,0-0.2c0.05-0.41,0-0.82-0.01-1.24c-0.01-0.35-0.01-0.69-0.01-1.04
					c0-0.1,0.06-0.19,0.12-0.28c0.04-0.06,0.11-0.1,0.19-0.11c0.25-0.01,0.5-0.02,0.75-0.01c0.21,0,0.42,0,0.64-0.04
					c0.32-0.06,0.66-0.03,0.99-0.04c0.29,0,0.58,0.02,0.87,0.02c0.57,0.01,1.11,0.15,1.62,0.36c0.33,0.13,0.57,0.34,0.76,0.6
					c0.2,0.28,0.38,0.57,0.47,0.9c0.06,0.21,0.14,0.41,0.19,0.62c0.09,0.34,0.13,0.68,0.12,1.03c-0.02,0.4,0.02,0.79,0.07,1.19
					c0.05,0.43,0.06,0.86,0,1.29c-0.06,0.41-0.11,0.82-0.16,1.23c-0.02,0.15-0.02,0.3-0.07,0.44c-0.05,0.14-0.06,0.29-0.12,0.43
					c-0.09,0.2-0.2,0.4-0.31,0.59c-0.1,0.16-0.23,0.3-0.42,0.4C93.63,237.7,93.55,237.77,93.5,237.91z M90.34,232.97
					c-0.02,0.58-0.05,1.08-0.05,1.57c0,0.33,0.02,0.66,0.03,0.99c0,0.08,0.02,0.17,0.05,0.24c0.02,0.06,0.08,0.12,0.16,0.13
					c0.36,0.07,0.73,0.07,1.1,0.06c0.15-0.01,0.31-0.03,0.45-0.08c0.33-0.1,0.56-0.31,0.59-0.62c0.04-0.36,0.1-0.72,0.03-1.09
					c-0.02-0.11,0-0.23,0-0.35c0.02-0.31,0.06-0.63,0.01-0.94c-0.01-0.03-0.01-0.07,0-0.1c0.06-0.2,0.02-0.39,0-0.59
					c-0.01-0.13-0.01-0.26-0.02-0.4c-0.01-0.28-0.06-0.56-0.13-0.83c-0.03-0.1-0.07-0.19-0.15-0.26c-0.17-0.16-0.36-0.31-0.58-0.41
					c-0.21-0.1-0.44-0.15-0.67-0.14c-0.21,0.01-0.42,0.05-0.63,0.09c-0.1,0.02-0.16,0.09-0.18,0.18c-0.02,0.08-0.03,0.16-0.03,0.25
					c-0.01,0.3-0.01,0.59,0,0.89C90.32,232.06,90.33,232.56,90.34,232.97z"/>
				<path class="st18" d="M96.97,228.6c0.12-0.03,0.23-0.07,0.31-0.08c0.43,0.03,0.81,0.06,1.2,0.08c0.14,0.01,0.27,0.02,0.4,0.07
					c0.11,0.04,0.19,0.11,0.22,0.22c0.01,0.02,0.01,0.03,0.01,0.05c0.03,0.45,0.12,0.89,0.09,1.34c-0.01,0.25,0,0.5,0,0.75
					c0,0.17,0,0.33-0.02,0.5c-0.05,0.28-0.05,0.56-0.05,0.84c0,0.76-0.01,1.53-0.01,2.29c0,0.43,0,0.86,0,1.29
					c-0.01,0.61,0.01,1.23-0.05,1.84c-0.06,0.56-0.06,1.13-0.08,1.69c-0.02,0.46-0.03,0.93-0.08,1.39
					c-0.03,0.36-0.02,0.73-0.01,1.09c0,0.35-0.02,0.7,0.06,1.04c0.02,0.1,0.01,0.2,0.01,0.3c0,0.05-0.02,0.1-0.03,0.15
					c-0.03,0.12-0.15,0.21-0.28,0.23c-0.06,0.01-0.12,0.01-0.17,0.01c-0.45-0.02-0.89,0.02-1.34,0.02c-0.08,0-0.15-0.01-0.23-0.02
					c-0.06-0.01-0.16-0.09-0.15-0.13c0.01-0.36-0.09-0.73-0.01-1.09c0.03-0.13,0.03-0.26,0.03-0.4c0-0.83,0-1.66,0-2.49
					c0-0.56,0-1.13,0.05-1.69c0.02-0.21,0.01-0.43,0-0.65c-0.02-0.43-0.03-0.86-0.03-1.29c-0.01-0.4-0.01-0.8-0.02-1.19
					c0-0.13-0.01-0.27,0-0.4c0.03-0.48,0-0.96,0.05-1.44c0.01-0.07,0.01-0.13,0-0.2c-0.02-0.28-0.02-0.56,0.05-0.84
					c0.04-0.19,0.02-0.4,0.02-0.6c0-0.73-0.01-1.46-0.01-2.19c0-0.1,0-0.2,0.01-0.3C96.91,228.72,96.95,228.67,96.97,228.6z"/>
				<path class="st18" d="M107.19,236.3c0.03-0.02,0.07-0.04,0.09-0.06c0.02-0.05,0.04-0.1,0.04-0.15c0.01-0.27,0.03-0.54,0.02-0.81
					c-0.01-0.41-0.01-0.81-0.06-1.22c-0.03-0.25-0.02-0.51-0.04-0.76c-0.01-0.19-0.04-0.37-0.06-0.55c-0.01-0.1-0.02-0.2-0.03-0.3
					c-0.03-0.71-0.08-1.42-0.08-2.13c0-0.44-0.04-0.88-0.04-1.32c0-0.05,0.01-0.1,0.02-0.15c0.02-0.07,0.07-0.12,0.14-0.15
					c0.05-0.02,0.11-0.05,0.16-0.05c0.31-0.03,0.63-0.09,0.95-0.09c0.28,0,0.56-0.01,0.83-0.01c0.16,0,0.32,0.01,0.46,0.08
					c0.08,0.03,0.12,0.08,0.13,0.15c0.01,0.05,0.01,0.1,0.01,0.15c-0.01,0.66,0.01,1.32,0.05,1.98c0.03,0.49,0.06,0.98-0.03,1.47
					c-0.03,0.15-0.03,0.3-0.03,0.46c0,0.56,0,1.12,0,1.68c0,0.08,0,0.17,0.01,0.25c0.07,0.54,0.02,1.08,0.02,1.62
					c-0.01,0.68-0.01,1.35-0.01,2.03c0,0.1,0.01,0.2,0.03,0.3c0.14,0.99,0.21,1.99,0.16,2.99c-0.02,0.42,0.01,0.85,0.02,1.27
					c0,0.14,0.02,0.27,0.01,0.41c0,0.17-0.05,0.28-0.3,0.31c-0.12,0.01-0.23,0.04-0.35,0.05c-0.08,0.01-0.16,0-0.24,0
					c-0.45-0.03-0.91,0.01-1.36-0.06c-0.04-0.01-0.07-0.02-0.14-0.04c-0.05-0.07-0.13-0.15-0.18-0.24
					c-0.35-0.77-0.67-1.56-0.99-2.34c-0.11-0.27-0.24-0.54-0.35-0.81c-0.28-0.65-0.56-1.3-0.83-1.96c-0.18-0.43-0.36-0.86-0.57-1.28
					c-0.16-0.31-0.29-0.63-0.42-0.95c-0.1-0.25-0.19-0.52-0.38-0.74c-0.03-0.03-0.07-0.04-0.11-0.02c-0.01,0.01-0.03,0.02-0.03,0.04
					c-0.01,0.03-0.03,0.06-0.03,0.1c-0.01,0.52-0.03,1.05-0.03,1.57c0,0.58,0.04,1.15,0.06,1.72c0.03,0.96,0.08,1.93,0.06,2.89
					c-0.01,0.36,0,0.71,0.02,1.07c0,0.12,0.04,0.23,0.05,0.35c0.01,0.13,0.02,0.27,0.02,0.4c0,0.05-0.09,0.13-0.15,0.15
					c-0.04,0.01-0.08,0.02-0.11,0.03c-0.22,0.01-0.44,0.04-0.65,0.03c-0.34-0.01-0.67,0-1.01,0.02c-0.16,0.01-0.32,0.03-0.46-0.05
					c-0.15-0.15-0.19-0.33-0.19-0.52c0-0.44-0.01-0.88-0.01-1.32c-0.01-0.71,0-1.42-0.06-2.13c-0.04-0.56-0.05-1.12-0.06-1.67
					c-0.01-0.3-0.03-0.61-0.06-0.91c-0.03-0.29-0.03-0.58-0.04-0.86c-0.01-0.54-0.01-1.08,0-1.62c0-0.52,0.02-1.05,0-1.57
					c-0.03-0.69-0.03-1.39-0.04-2.08c-0.01-0.46-0.01-0.91-0.05-1.37c-0.02-0.19-0.02-0.37,0.07-0.55c0.05-0.1,0.13-0.17,0.26-0.18
					c0.24-0.03,0.47-0.05,0.71-0.07c0.26-0.02,0.52-0.03,0.77-0.03c0.18,0,0.36,0,0.53,0.02c0.13,0.01,0.23,0.07,0.27,0.17
					c0.08,0.17,0.16,0.35,0.23,0.52c0.3,0.71,0.61,1.43,0.92,2.14c0.26,0.59,0.55,1.16,0.83,1.74c0.23,0.48,0.47,0.97,0.71,1.45
					c0.05,0.09,0.11,0.18,0.15,0.27c0.11,0.22,0.24,0.43,0.33,0.65C106.89,235.95,106.99,236.09,107.19,236.3z"/>
				<path class="st18" d="M112,228.79c0.14-0.16,0.3-0.23,0.5-0.22c0.38,0.01,0.76,0.02,1.13,0.04c0.17,0.01,0.33,0.05,0.49,0.1
					c0.07,0.05,0.11,0.1,0.11,0.17c0,0.15,0.01,0.29-0.01,0.43c-0.04,0.5-0.03,1-0.02,1.5c0.01,0.55,0.01,1.09,0.01,1.64
					c0,0.15-0.01,0.29,0,0.43c0,0.05,0.02,0.09,0.04,0.14c0.02-0.01,0.05,0,0.06-0.01c0.05-0.07,0.11-0.13,0.14-0.2
					c0.19-0.39,0.37-0.77,0.55-1.16c0.12-0.25,0.23-0.51,0.37-0.76c0.03-0.04,0.05-0.09,0.07-0.13c0.23-0.54,0.56-1.05,0.84-1.58
					c0.02-0.04,0.06-0.08,0.07-0.13c0.13-0.35,0.17-0.39,0.65-0.38c0.13,0,0.27,0,0.4-0.02c0.4-0.08,0.79-0.05,1.18-0.01
					c0.09,0.01,0.19,0.02,0.28,0.03c0.06,0.01,0.14,0.08,0.14,0.14c-0.01,0.08,0,0.16-0.04,0.24c-0.21,0.45-0.36,0.91-0.6,1.35
					c-0.22,0.39-0.42,0.79-0.61,1.19c-0.2,0.43-0.45,0.85-0.67,1.28c-0.08,0.15-0.16,0.29-0.23,0.44c-0.13,0.27-0.24,0.54-0.41,0.79
					c-0.04,0.06-0.06,0.12-0.09,0.18c-0.3,0.64-0.6,1.28-0.88,1.87c-0.02,0.14,0,0.22,0.04,0.29c0.17,0.29,0.33,0.58,0.5,0.87
					c0.04,0.07,0.1,0.14,0.14,0.21c0.24,0.44,0.52,0.86,0.76,1.29c0.28,0.51,0.59,1.01,0.97,1.47c0.22,0.26,0.4,0.55,0.56,0.84
					c0.13,0.23,0.28,0.45,0.44,0.68c0.32,0.45,0.63,0.91,0.95,1.37c0.06,0.09-0.01,0.25-0.13,0.28c-0.2,0.05-0.4,0.1-0.61,0.07
					c-0.34-0.05-0.68-0.03-1.02-0.03c-0.17,0-0.34,0-0.51-0.04c-0.09-0.02-0.17-0.06-0.23-0.13c-0.03-0.04-0.06-0.08-0.09-0.12
					c-0.41-0.6-0.83-1.19-1.21-1.8c-0.18-0.28-0.38-0.55-0.58-0.83c-0.38-0.54-0.75-1.08-1.13-1.62c-0.06-0.08-0.11-0.17-0.21-0.22
					c-0.02-0.01-0.04-0.02-0.05-0.01c-0.03,0.01-0.08,0.03-0.08,0.05c-0.03,0.24-0.07,0.48-0.07,0.72c0,0.58-0.02,1.16,0.01,1.74
					c0.01,0.24-0.02,0.48-0.02,0.72c-0.01,0.32-0.01,0.64-0.02,0.97c0,0.08-0.01,0.16-0.03,0.24c-0.01,0.04-0.06,0.09-0.1,0.1
					c-0.09,0.03-0.18,0.05-0.27,0.05c-0.53,0-1.06-0.01-1.59-0.02c-0.05,0-0.09-0.05-0.15-0.08c0-0.11,0-0.23,0-0.34
					c0.01-0.43-0.07-0.87-0.09-1.3c-0.01-0.13-0.02-0.26,0-0.38c0.08-0.4,0.06-0.8,0.08-1.2c0.01-0.19,0.01-0.39,0.01-0.58
					c0-0.06,0-0.13,0.02-0.19c0.06-0.27,0.06-0.54,0.02-0.82c-0.01-0.1-0.02-0.2,0-0.29c0.09-0.4,0.06-0.8,0.06-1.2
					c0-0.35,0.01-0.71,0.01-1.06c0-0.18,0.01-0.35,0.05-0.53c0.03-0.12,0.03-0.26,0.03-0.38c0.01-1.32,0.06-2.64,0.01-3.96
					c-0.01-0.18,0.01-0.35,0.01-0.53c0.01-0.43,0.04-0.87,0-1.3C111.97,229,111.99,228.89,112,228.79z"/>
			</g>
		</g>
		<g>
			<g>
				<path class="st18" d="M253.51,248.85c0.04,0.1,0.08,0.18,0.09,0.25c0.03,0.19,0.06,0.38,0.06,0.57c0,0.29,0.01,0.58-0.05,0.87
					c-0.01,0.03-0.04,0.05-0.07,0.09c-0.1,0.01-0.21,0.02-0.32,0.02c-0.37,0-0.74,0.01-1.11,0c-0.47-0.01-0.93,0.06-1.39,0.1
					c-0.03,0-0.06,0.02-0.09,0.03c-0.07,0.02-0.15,0.11-0.15,0.17c-0.01,0.06-0.01,0.13-0.01,0.19c-0.01,0.69-0.03,1.38-0.03,2.07
					c0,0.45,0.02,0.9,0.03,1.35c0,0.08,0.01,0.16,0.02,0.24c0.01,0.06,0.1,0.15,0.16,0.16c0.05,0.01,0.1,0.02,0.14,0.02
					c0.27,0,0.55,0.01,0.82,0c0.34-0.01,0.68,0.01,1.01,0.03c0.12,0.01,0.21,0.09,0.22,0.21c0,0.02,0.01,0.03,0.01,0.05
					c0.01,0.47,0.05,0.93,0.02,1.4c0,0.05-0.01,0.1-0.03,0.14c-0.02,0.04-0.06,0.08-0.1,0.09c-0.06,0.02-0.13,0.02-0.19,0.02
					c-0.5,0.01-1,0.01-1.5,0.02c-0.14,0-0.29,0.03-0.43,0.05c-0.09,0.01-0.18,0.1-0.19,0.2c-0.01,0.08-0.02,0.16-0.02,0.24
					c0,0.34-0.03,0.67-0.05,1.01c-0.03,0.45-0.03,0.9-0.03,1.35c0,0.77,0,1.54,0,2.32c0,0.4,0,0.8,0,1.21c0,0.1,0,0.19-0.01,0.29
					c-0.01,0.07-0.04,0.12-0.1,0.16c-0.09,0.06-0.2,0.1-0.31,0.11c-0.24,0-0.48,0.02-0.72,0.02c-0.18,0-0.35-0.01-0.53-0.01
					c-0.1,0-0.18-0.08-0.19-0.18c-0.02-0.09-0.03-0.19-0.03-0.29c-0.01-0.19-0.01-0.39,0-0.58c0.01-0.18,0.04-0.35,0.05-0.53
					c0-0.18-0.04-0.35-0.02-0.53c0.01-0.16,0-0.32,0.02-0.48c0.02-0.19,0.01-0.39,0-0.58c-0.02-0.29-0.06-0.58-0.03-0.87
					c0.01-0.08-0.01-0.16-0.01-0.24c-0.04-0.77-0.02-1.54-0.01-2.32c0.01-0.6,0.03-1.19,0.01-1.79c-0.01-0.37-0.01-0.74,0.01-1.11
					c0.01-0.14,0-0.29,0-0.43c0-0.06-0.01-0.13,0-0.19c0.09-0.35,0.02-0.71,0.05-1.06c0.01-0.16-0.02-0.32-0.02-0.48
					c0-0.03-0.02-0.07-0.01-0.1c0.07-0.27,0-0.54-0.02-0.81c-0.01-0.1-0.01-0.19-0.01-0.29c0.01-0.48,0.01-0.96,0.02-1.45
					c0-0.11,0.03-0.22,0.03-0.34c0.01-0.23,0.12-0.28,0.3-0.32c0.28-0.05,0.57-0.11,0.86-0.11c0.39,0,0.77,0,1.16,0
					c0.43,0,0.87-0.01,1.3-0.01c0.32,0,0.64,0.01,0.96,0.01C253.21,248.83,253.34,248.84,253.51,248.85z"/>
				<path class="st18" d="M255.39,248.94c0.35-0.14,0.7-0.21,1.06-0.19c0.26,0.01,0.52-0.01,0.77,0c0.1,0,0.19,0.01,0.29,0.03
					c0.06,0.01,0.12,0.03,0.18,0.06c0.04,0.02,0.08,0.05,0.12,0.08c0.11,0.25,0.16,0.52,0.23,0.78c0.12,0.45,0.21,0.91,0.37,1.35
					c0.07,0.2,0.09,0.41,0.14,0.61c0.11,0.5,0.2,1.01,0.28,1.52c0.06,0.38,0.12,0.76,0.21,1.14c0.11,0.49,0.19,0.98,0.25,1.47
					c0.01,0.1,0.02,0.19,0.04,0.29c0.15,0.61,0.26,1.23,0.36,1.85c0.01,0.06,0.03,0.12,0.05,0.19c0.06,0.22,0.13,0.43,0.14,0.66
					c0.1,0.34,0.13,0.7,0.21,1.04c0.01,0.06,0.05,0.12,0.05,0.19c0.01,0.31,0.11,0.6,0.13,0.91c0,0.05,0.01,0.1,0.02,0.14
					c0.14,0.71,0.28,1.42,0.43,2.13c0.03,0.16,0.08,0.31,0.11,0.45c-0.04,0.1-0.1,0.15-0.19,0.16c-0.39,0.02-0.77,0.05-1.16,0.06
					c-0.13,0-0.25-0.03-0.35-0.04c-0.1-0.06-0.15-0.13-0.17-0.21c-0.1-0.42-0.28-0.83-0.34-1.26c-0.17-0.57-0.28-1.16-0.38-1.74
					c-0.02-0.11-0.05-0.22-0.09-0.33c-0.06-0.17-0.12-0.33-0.15-0.51c-0.02-0.11-0.11-0.18-0.2-0.18c-0.48-0.02-0.97-0.03-1.45,0
					c-0.08,0.01-0.16,0.03-0.24,0.05c-0.08,0.02-0.15,0.08-0.16,0.16c-0.09,0.52-0.21,1.04-0.25,1.57c-0.05,0.67-0.1,1.35-0.18,2.02
					c-0.01,0.06-0.03,0.12-0.06,0.18c-0.03,0.06-0.08,0.1-0.14,0.13c-0.01,0.01-0.03,0.01-0.05,0.01c-0.3,0.03-0.61,0.08-0.91,0.04
					c-0.19-0.02-0.39-0.03-0.58-0.04c-0.13-0.01-0.23-0.12-0.24-0.26c-0.01-0.05-0.02-0.1-0.01-0.14c0.04-0.24-0.01-0.48,0.06-0.72
					c0.01-0.03,0.01-0.06,0.01-0.1c0-0.43,0.06-0.87,0.11-1.3c0.02-0.16,0.04-0.32,0.05-0.48c0.01-0.13,0.03-0.26,0.03-0.38
					c0.01-0.21,0.01-0.42,0.06-0.62c0.02-0.08,0.02-0.16,0.02-0.24c0.02-0.32,0.04-0.64,0.1-0.96c0.05-0.25,0.07-0.51,0.09-0.77
					c0.05-0.43,0.12-0.86,0.18-1.29c0.01-0.06,0.02-0.13,0.02-0.19c0.05-0.59,0.13-1.18,0.26-1.77c0.02-0.09,0.03-0.19,0.04-0.29
					c0.02-0.42,0.09-0.83,0.17-1.24c0.01-0.05,0.02-0.1,0.02-0.14c0.03-0.4,0.07-0.8,0.1-1.2c0.02-0.24,0.05-0.48,0.09-0.72
					C255.07,250.26,255.18,249.61,255.39,248.94z M256.74,254.4c-0.1,0.22-0.13,0.41-0.16,0.6c-0.05,0.33-0.11,0.67-0.19,0.99
					c-0.09,0.39-0.17,0.78-0.24,1.18c-0.03,0.17-0.02,0.26,0.23,0.25c0.27-0.01,0.54-0.01,0.82-0.01c0.06,0,0.13,0,0.19-0.01
					c0.09-0.01,0.18-0.11,0.17-0.2c-0.01-0.06-0.01-0.13-0.03-0.19c-0.13-0.45-0.3-0.88-0.38-1.34c0-0.01-0.01-0.03-0.02-0.04
					c-0.05-0.19-0.1-0.37-0.15-0.56C256.91,254.85,256.87,254.63,256.74,254.4z"/>
				<path class="st18" d="M265.93,253.55c-0.06-0.44-0.11-0.9-0.08-1.37c0.01-0.12,0-0.23-0.01-0.35c-0.01-0.22-0.07-0.43-0.18-0.62
					c-0.19-0.35-0.48-0.55-0.89-0.56c-0.17,0-0.33,0.02-0.51,0.08c-0.22,0.15-0.36,0.36-0.47,0.62c-0.12,0.3-0.18,0.61-0.15,0.93
					c0.04,0.47,0.17,0.92,0.41,1.33c0.14,0.25,0.26,0.5,0.38,0.76c0.17,0.35,0.36,0.68,0.55,1.01c0.35,0.61,0.72,1.21,1.1,1.8
					c0.18,0.28,0.34,0.58,0.49,0.88c0.08,0.16,0.17,0.32,0.26,0.49c0.11,0.2,0.2,0.42,0.27,0.64c0.16,0.46,0.24,0.94,0.27,1.43
					c0.04,0.52-0.03,1.04-0.27,1.51c-0.05,0.1-0.1,0.21-0.15,0.32c-0.09,0.2-0.22,0.37-0.36,0.54c-0.24,0.27-0.52,0.47-0.86,0.59
					c-0.33,0.12-0.66,0.22-1.02,0.26c-0.35,0.04-0.7,0.1-1.05,0.07c-0.12-0.01-0.23-0.03-0.35-0.05c-0.1-0.01-0.2-0.05-0.29-0.05
					c-0.31,0-0.59-0.13-0.85-0.28c-0.47-0.27-0.58-0.33-0.8-0.97c-0.05-0.16-0.08-0.32-0.08-0.49c0-0.2-0.02-0.4-0.06-0.6
					c-0.03-0.15-0.04-0.3-0.04-0.45c0-0.47,0.01-0.94,0.02-1.41c0-0.02,0-0.03,0-0.05c0.01-0.14,0.15-0.29,0.3-0.29
					c0.28,0,0.57-0.02,0.85-0.04c0.23-0.02,0.46,0.03,0.7,0.05c0.05,0,0.12,0.09,0.13,0.14c0.01,0.1,0.02,0.2,0.01,0.3
					c-0.02,0.47-0.04,0.94-0.02,1.41c0,0.07,0,0.13,0,0.2c0.01,0.07,0.02,0.13,0.05,0.19c0.17,0.38,0.63,0.71,1.16,0.52
					c0.3-0.11,0.51-0.31,0.62-0.61c0.11-0.29,0.14-0.58,0.17-0.88c0.01-0.05,0.01-0.1-0.01-0.15c-0.07-0.23-0.03-0.47-0.12-0.69
					c-0.11-0.28-0.23-0.56-0.37-0.82c-0.15-0.26-0.29-0.53-0.44-0.79c-0.02-0.03-0.03-0.06-0.05-0.09
					c-0.72-1.38-0.85-1.59-1.65-2.93c-0.07-0.11-0.13-0.24-0.19-0.35c-0.05-0.1-0.1-0.21-0.15-0.32c-0.25-0.52-0.41-1.06-0.53-1.62
					c-0.07-0.34-0.1-0.69-0.16-1.04c-0.02-0.12-0.01-0.23,0.02-0.35c0.02-0.08,0.04-0.16,0.06-0.24c0.06-0.3,0.18-0.57,0.35-0.82
					c0.06-0.08,0.11-0.17,0.16-0.25c0.12-0.21,0.28-0.38,0.45-0.54c0.12-0.11,0.26-0.21,0.39-0.32c0.17-0.14,0.37-0.23,0.58-0.28
					c0.59-0.13,1.19-0.17,1.79-0.03c0.18,0.04,0.35,0.1,0.51,0.19c0.29,0.17,0.58,0.34,0.86,0.51c0.39,0.24,0.61,0.61,0.69,1.06
					c0.09,0.48,0.17,0.95,0.28,1.43c0.01,0.03,0.02,0.07,0.02,0.1c0,0.24,0.04,0.46,0.09,0.69c0.03,0.17,0.01,0.33-0.05,0.49
					c-0.05,0.14-0.14,0.23-0.29,0.24c-0.28,0.02-0.56,0.07-0.85,0.02c-0.16-0.03-0.33,0-0.5,0
					C266.04,253.66,265.98,253.64,265.93,253.55z"/>
				<path class="st18" d="M268,250.88c-0.02-0.07-0.04-0.13-0.05-0.19c-0.01-0.18-0.01-0.36-0.04-0.54
					c-0.05-0.38-0.01-0.53,0.2-0.96c0.05-0.01,0.11-0.04,0.17-0.05c0.66-0.03,1.31-0.12,1.97-0.11c0.37-0.05,0.75,0,1.13-0.06
					c0.14-0.02,0.29,0,0.44,0.01c0.1,0,0.2,0.03,0.29,0.02c0.23-0.02,0.46-0.05,0.69,0c0.05,0.01,0.1,0,0.15-0.01
					c0.6-0.08,1.21-0.06,1.82-0.06c0.12,0,0.22,0.04,0.32,0.11c0.07,0.06,0.1,0.14,0.12,0.22c0.05,0.27,0.13,0.54,0.08,0.82
					c-0.03,0.21-0.03,0.43-0.04,0.64c-0.01,0.1-0.08,0.17-0.19,0.2c-0.14,0.04-0.29,0.05-0.44,0.05c-0.62,0.01-1.25,0.02-1.87,0.04
					c-0.06,0-0.13,0.02-0.19,0.04c-0.05,0.02-0.09,0.05-0.09,0.11c-0.01,0.06-0.01,0.13-0.01,0.19c0.03,0.56,0.06,1.11,0.09,1.67
					c0,0.05,0,0.1-0.01,0.15c-0.04,0.66-0.04,1.31,0,1.97c0.01,0.15-0.01,0.29-0.02,0.44c-0.01,0.56-0.03,1.12-0.04,1.68
					c0,0.21,0,0.43,0.01,0.64c0.01,0.8,0.02,1.61,0.03,2.41c0,0.1,0,0.2,0.01,0.29c0.06,0.51,0.07,1.02,0.07,1.53
					c0,0.31,0.02,0.62,0.06,0.93c0.02,0.18,0.02,0.36,0.02,0.54c0,0.09-0.09,0.19-0.18,0.2c-0.11,0.01-0.23,0.02-0.34,0.02
					c-0.28,0-0.56,0-0.83,0.05c-0.17,0.03-0.36,0.01-0.54,0.01c-0.05,0-0.13-0.08-0.13-0.13c-0.01-0.36-0.02-0.72-0.03-1.08
					c0-0.18-0.01-0.36-0.03-0.54c-0.04-0.34-0.03-0.69-0.01-1.03c0.04-0.56,0.05-1.11,0-1.67c-0.03-0.36-0.03-0.72-0.03-1.08
					c0-0.3,0.01-0.59,0.01-0.89c0-0.25,0.01-0.49,0.04-0.74c0.03-0.21,0.02-0.43,0.02-0.64c-0.01-0.29-0.02-0.59-0.05-0.88
					c-0.04-0.34-0.02-0.69-0.03-1.03c0-0.54,0-1.08,0-1.63c0-0.21,0-0.43,0.01-0.64c0.01-0.26,0.01-0.52-0.03-0.78
					c-0.01-0.07-0.06-0.11-0.12-0.14c-0.08-0.03-0.16-0.06-0.24-0.04c-0.52,0.1-1.05,0.05-1.57,0.06c-0.13,0-0.26-0.01-0.39-0.03
					C268.12,250.94,268.06,250.9,268,250.88z"/>
			</g>
			<g>
				<path class="st18" d="M253.83,228.73c0.02,0.08,0.04,0.16,0.05,0.24c0.01,0.15,0.01,0.3,0.01,0.45c0,0.4,0,0.79,0,1.19
					c0,0.1-0.01,0.2,0.01,0.3c0.08,0.49,0.04,0.99,0.05,1.48c0.01,1.04,0.02,2.08,0.02,3.12c0,0.48-0.01,0.96-0.02,1.44
					c-0.01,0.36-0.01,0.73-0.02,1.09c-0.01,0.23-0.02,0.46-0.02,0.69c-0.01,0.59-0.02,1.19-0.03,1.78c0,0.18,0,0.36,0,0.54
					c0,0.05,0.01,0.1,0.01,0.15c0.01,0.1,0.09,0.18,0.18,0.2c0.23,0.04,0.46,0.06,0.69,0.02c0.31-0.06,0.61-0.05,0.92-0.01
					c0.11,0.01,0.22,0,0.32,0c0.06,0,0.12-0.01,0.18-0.01c0.33,0,0.41,0.07,0.43,0.43c0.01,0.15,0.01,0.3,0.01,0.44
					c0,0.07-0.02,0.13-0.01,0.2c0.04,0.32-0.01,0.62-0.08,0.93c-0.06,0.11-0.15,0.16-0.26,0.17c-0.11,0.01-0.22,0.02-0.32,0.02
					c-0.19,0-0.37,0.02-0.55,0.05c-0.26,0.04-0.52,0.03-0.78,0.01c-0.08-0.01-0.15,0-0.23,0c-0.12,0-0.25,0.01-0.37-0.01
					c-0.38-0.06-0.77-0.07-1.15-0.08c-0.14,0-0.28-0.02-0.41-0.05c-0.19-0.04-0.25-0.12-0.3-0.33c-0.01-0.05-0.01-0.1-0.02-0.15
					c-0.01-0.08,0-0.17-0.02-0.25c-0.07-0.46-0.06-0.92-0.08-1.38c-0.02-0.46-0.01-0.93-0.01-1.39c0-0.08,0.01-0.17,0-0.25
					c-0.03-0.5,0.02-0.99,0.05-1.48c0.02-0.33,0.04-0.66,0.03-0.99c-0.01-0.48,0-0.96,0.01-1.44c0.01-0.33,0.01-0.66,0-0.99
					c-0.01-0.71-0.02-1.42-0.02-2.13c0-0.31-0.01-0.63-0.01-0.94c0-0.08,0-0.17-0.01-0.25c-0.09-0.81-0.06-1.62-0.07-2.43
					c0-0.07,0.01-0.13,0.01-0.2c0.02-0.14,0.14-0.28,0.27-0.3c0.01,0,0.03,0,0.05-0.01c0.43-0.03,0.86-0.03,1.29,0.02
					C253.71,228.66,253.77,228.7,253.83,228.73z"/>
				<path class="st18" d="M257.42,228.6c0.1-0.03,0.19-0.07,0.24-0.08c0.34,0.03,0.65,0.06,0.96,0.08c0.11,0.01,0.22,0.02,0.32,0.07
					c0.09,0.04,0.15,0.11,0.18,0.22c0,0.02,0.01,0.03,0.01,0.05c0.02,0.45,0.09,0.89,0.07,1.34c-0.01,0.25,0,0.5,0,0.75
					c0,0.17,0,0.33-0.02,0.5c-0.04,0.28-0.04,0.56-0.04,0.84c0,0.76-0.01,1.53-0.01,2.29c0,0.43,0,0.86,0,1.29
					c0,0.61,0.01,1.23-0.04,1.84c-0.05,0.56-0.05,1.13-0.06,1.69c-0.01,0.46-0.03,0.93-0.06,1.39c-0.03,0.36-0.01,0.73-0.01,1.09
					c0,0.35-0.01,0.7,0.05,1.04c0.02,0.1,0.01,0.2,0.01,0.3c0,0.05-0.01,0.1-0.02,0.15c-0.02,0.12-0.12,0.21-0.22,0.23
					c-0.05,0.01-0.09,0.01-0.14,0.01c-0.36-0.02-0.71,0.02-1.07,0.02c-0.06,0-0.12-0.01-0.18-0.02c-0.05-0.01-0.12-0.09-0.12-0.13
					c0.01-0.36-0.07-0.73-0.01-1.09c0.02-0.13,0.02-0.26,0.02-0.4c0-0.83,0-1.66,0-2.49c0-0.56,0-1.13,0.04-1.69
					c0.01-0.21,0.01-0.43,0-0.65c-0.02-0.43-0.02-0.86-0.03-1.29c-0.01-0.4-0.01-0.8-0.02-1.19c0-0.13-0.01-0.27,0-0.4
					c0.02-0.48,0-0.96,0.04-1.44c0.01-0.07,0.01-0.13,0-0.2c-0.02-0.28-0.01-0.56,0.04-0.84c0.03-0.19,0.02-0.4,0.02-0.6
					c0-0.73,0-1.46-0.01-2.19c0-0.1,0-0.2,0.01-0.3C257.37,228.72,257.4,228.67,257.42,228.6z"/>
				<path class="st18" d="M260.88,228.63c0.3-0.05,0.56,0.02,0.82,0.02c0.11,0,0.2,0.09,0.23,0.21c0.04,0.14,0.08,0.29,0.1,0.43
					c0.09,0.6,0.25,1.2,0.32,1.8c0.03,0.25,0.09,0.49,0.13,0.73c0.05,0.31,0.1,0.62,0.14,0.93c0.02,0.25,0.06,0.49,0.12,0.73
					c0.08,0.34,0.15,0.68,0.21,1.02c0.05,0.24,0.12,0.48,0.16,0.73c0.01,0.1,0.06,0.19,0.09,0.28c0.01,0.03,0.04,0.05,0.06,0.06
					c0.03,0.01,0.06-0.01,0.08-0.04c0.12-0.24,0.15-0.5,0.21-0.76c0.04-0.19,0.08-0.39,0.11-0.58c0.11-0.58,0.22-1.17,0.33-1.75
					c0.01-0.05,0.01-0.1,0.02-0.15c0.04-0.43,0.08-0.86,0.13-1.28c0.01-0.12,0.03-0.23,0.04-0.34c0.04-0.36,0.09-0.72,0.12-1.09
					c0.02-0.28,0.08-0.56,0.13-0.83c0.01-0.07,0.06-0.11,0.13-0.13c0.05-0.01,0.09-0.02,0.14-0.02c0.45,0.03,0.89-0.01,1.34-0.05
					c0.05,0,0.09,0,0.14,0c0.07,0,0.15,0.08,0.16,0.15c0.02,0.23,0.01,0.46-0.03,0.69c-0.07,0.39-0.13,0.78-0.16,1.18
					c-0.03,0.33-0.08,0.66-0.12,0.98c-0.05,0.33-0.05,0.66-0.1,0.99c-0.05,0.31-0.08,0.62-0.12,0.94c-0.01,0.08-0.02,0.16-0.02,0.25
					c-0.01,0.15-0.02,0.3-0.05,0.44c-0.02,0.09-0.03,0.2-0.03,0.29c-0.01,0.18-0.02,0.36-0.06,0.54c-0.01,0.05-0.02,0.1-0.02,0.15
					c-0.03,0.73-0.17,1.44-0.25,2.17c-0.01,0.05-0.02,0.1-0.02,0.15c0,0.4-0.07,0.79-0.11,1.19c-0.03,0.33-0.09,0.66-0.14,0.98
					c-0.06,0.44-0.1,0.89-0.23,1.32c-0.01,0.03-0.02,0.06-0.02,0.1c-0.01,0.43-0.11,0.85-0.17,1.28c-0.02,0.15-0.02,0.3-0.02,0.45
					c0,0.12-0.02,0.23-0.06,0.34c-0.04,0.1-0.11,0.16-0.2,0.18c-0.01,0-0.03,0.01-0.05,0.01c-0.53,0.03-1.05,0.06-1.58,0.08
					c-0.05,0-0.09,0-0.14-0.01c-0.08-0.02-0.15-0.06-0.17-0.15c-0.04-0.13-0.07-0.25-0.09-0.38c-0.04-0.23-0.07-0.46-0.1-0.69
					c-0.04-0.38-0.1-0.75-0.19-1.12c-0.09-0.37-0.14-0.75-0.2-1.12c-0.11-0.58-0.21-1.17-0.31-1.76c-0.01-0.08-0.03-0.16-0.04-0.25
					c-0.04-0.54-0.15-1.08-0.25-1.61c-0.02-0.11-0.03-0.23-0.05-0.34c-0.03-0.21-0.05-0.43-0.09-0.64c-0.03-0.21-0.07-0.42-0.1-0.64
					c-0.03-0.26-0.08-0.52-0.12-0.78c-0.07-0.39-0.11-0.79-0.22-1.17c-0.07-0.61-0.24-1.2-0.38-1.79c-0.05-0.19-0.09-0.39-0.11-0.58
					c-0.05-0.41-0.13-0.82-0.23-1.22c-0.03-0.11-0.04-0.23-0.04-0.34c0-0.08,0.06-0.15,0.14-0.17c0.17-0.04,0.34-0.03,0.51-0.02
					C260.7,228.61,260.8,228.62,260.88,228.63z"/>
				<path class="st18" d="M267.44,243.46c-0.01-0.07-0.03-0.17-0.05-0.26c-0.01-0.1-0.03-0.19-0.03-0.29
					c0.01-0.23-0.02-0.45-0.02-0.67c-0.01-0.37-0.01-0.74-0.02-1.11c0-0.1,0-0.19,0-0.29c0-0.32-0.05-0.64-0.02-0.96
					c0.03-0.3,0.01-0.61,0.02-0.92c0-0.32,0.01-0.64,0.02-0.96c0.01-0.15,0.03-0.29,0.03-0.43c0.01-0.23,0.04-0.45,0.02-0.67
					c-0.05-0.51-0.03-1.03-0.05-1.54c0-0.1,0-0.19,0-0.29c0.07-0.91,0.08-1.83,0.08-2.75c0-0.34-0.01-0.68-0.01-1.01
					c0-0.08,0-0.16-0.01-0.24c-0.07-0.72-0.05-1.45-0.08-2.17c0-0.03,0.01-0.06,0.01-0.11c0.03-0.02,0.06-0.06,0.1-0.08
					c0.07-0.03,0.14-0.05,0.22-0.06c0.18-0.02,0.36-0.04,0.54-0.04c0.36,0.01,0.72,0,1.08,0.06c0.06,0.01,0.12,0.02,0.18,0.02
					c0.21-0.01,0.41-0.04,0.63,0c0.22,0.04,0.45,0.02,0.67,0.03c0.21,0.01,0.42,0.01,0.63,0.01c0.01,0,0.03,0,0.05,0
					c0.09,0.01,0.18,0.09,0.19,0.18c0.01,0.06,0.02,0.13,0.02,0.19c0.01,0.34,0.01,0.68,0.02,1.01c0,0.06-0.01,0.13-0.01,0.19
					c-0.01,0.12-0.1,0.21-0.2,0.21c-0.26,0-0.51,0.01-0.77,0.01c-0.35,0-0.69,0-1.04,0c-0.07,0-0.15,0.02-0.22,0.03
					c-0.05,0.01-0.12,0.07-0.12,0.12c-0.01,0.08-0.02,0.16-0.02,0.24c0,0.4,0,0.8,0,1.21c0,0.32,0,0.64,0,0.97
					c0,0.05,0.01,0.1,0,0.14c-0.06,0.4,0.02,0.8,0.04,1.2c0.01,0.16,0.05,0.32,0.08,0.47c0.05,0.02,0.09,0.05,0.13,0.05
					c0.06,0.01,0.12,0,0.18-0.01c0.4-0.07,0.81-0.03,1.21-0.05c0.04,0,0.12,0.07,0.13,0.12c0.01,0.03,0.02,0.06,0.02,0.09
					c0.03,0.5,0.03,1,0.02,1.49c0,0.03,0,0.07-0.02,0.09c-0.02,0.04-0.06,0.07-0.09,0.09c-0.04,0.02-0.09,0.03-0.13,0.03
					c-0.28,0.01-0.57,0.09-0.85,0.02c-0.21,0.03-0.42,0.02-0.63,0.09c-0.12,0.17-0.15,0.37-0.14,0.59c0.01,0.16,0.03,0.32,0.03,0.48
					c0.01,0.42,0.01,0.84,0.01,1.25c0,0.51-0.01,1.03-0.01,1.54c0,0.14,0.02,0.29,0.03,0.43c0,0.03,0.02,0.06,0.04,0.1
					c0.03,0.01,0.07,0.04,0.11,0.04c0.12,0.01,0.24,0.03,0.36,0.02c0.24-0.02,0.48-0.02,0.72-0.01c0.18,0.01,0.36,0,0.54-0.01
					c0.08,0,0.15,0,0.23,0.01c0.04,0.01,0.09,0.03,0.13,0.05c0.03,0.01,0.05,0.04,0.08,0.07c0.05,0.16,0.06,0.34,0.07,0.51
					c0.02,0.19,0.04,0.38,0.04,0.58c0,0.21-0.02,0.42-0.03,0.62c-0.01,0.17-0.11,0.26-0.26,0.27c-0.36,0-0.72,0.01-1.08,0.01
					c-0.53,0-1.05-0.01-1.58,0.03c-0.09,0.01-0.18,0.02-0.27,0.01c-0.26-0.04-0.51-0.02-0.76,0
					C267.56,243.53,267.51,243.52,267.44,243.46z"/>
			</g>
		</g>
		<g>
			<path class="st18" d="M35.13,167.5c-0.27-1.32-0.24-2.56,0.07-3.8c0.23-0.88,0.36-1.78,0.56-2.67c0.07-0.33,0.18-0.66,0.31-0.97
				c0.08-0.21,0.21-0.4,0.35-0.58c0.1-0.13,0.26-0.23,0.41-0.36c1-0.19,2.04-0.13,3.07-0.15c1.76-0.04,3.52-0.02,5.27-0.21
				c0.78-0.08,1.58,0,2.36,0.01c1.95,0.02,3.89,0.1,5.83,0.24c1.45,0.1,2.91,0.17,4.38,0.17c1.88,0,3.77,0.11,5.65,0.3
				c0.36,0.04,0.73,0.08,1.09,0.07c2.37-0.01,4.74,0.1,7.11,0.23c0.24,0.01,0.49,0,0.73-0.01c0.85-0.03,1.7-0.1,2.55,0.06
				c1.34-0.07,2.67,0.12,4.01,0.1c0.24,0,0.49-0.06,0.73-0.01c1.14,0.23,2.31,0.09,3.45,0.28c0.18,0.03,0.36,0.05,0.54,0.05
				c2.74,0.07,5.47,0.15,8.21,0.21c0.6,0.01,1.21-0.02,1.75-0.02c0.34,0.22,0.48,0.47,0.44,0.78c-0.2,1.35-0.39,2.7-0.63,4.05
				c-0.08,0.44-0.29,0.85-0.41,1.18c-0.3,0.31-0.59,0.41-0.9,0.41c-1.64,0-3.26,0.3-4.91,0.18c-2.24,0.13-4.49,0.06-6.74-0.06
				c-0.42-0.02-0.86-0.01-1.27,0.04c-0.66,0.08-1.32,0.14-1.99,0.12c-0.41-0.01-0.73,0.22-0.81,0.55c-0.43,1.65-0.83,3.31-1.06,5
				c-0.04,0.28-0.02,0.57,0.01,0.85c0.02,0.3,0.18,0.56,0.48,0.69c1.86,0.74,3.69,1.55,5.63,2.11c2.46,0.71,4.92,1.41,7.34,2.25
				c0.22,0.08,0.43,0.22,0.63,0.35c0.2,0.14,0.32,0.34,0.37,0.58c0.01,0.06,0.02,0.11,0.02,0.17c-0.11,1.07-0.16,2.16-0.53,3.19
				c-0.23,0.64-0.38,1.31-0.58,1.96c-0.14,0.44-0.63,0.7-1.14,0.64c-0.18-0.02-0.37-0.02-0.54-0.09c-0.85-0.33-1.79-0.36-2.61-0.77
				c-0.11-0.05-0.23-0.09-0.34-0.12c-1.61-0.35-3.17-0.89-4.73-1.4c-0.58-0.19-1.15-0.38-1.73-0.57c-0.46-0.15-0.93-0.29-1.4-0.42
				c-0.77-0.2-1.54-0.37-2.26-0.71c-0.27-0.13-0.58-0.18-0.87-0.26c-1.18-0.32-2.35-0.64-3.48-1.11c-0.9-0.37-1.84-0.63-2.77-0.93
				c-1.57-0.5-3.1-1.11-4.65-1.66c-0.23-0.08-0.46-0.16-0.69-0.23c-2.16-0.65-4.29-1.39-6.35-2.3c-0.33-0.15-0.68-0.26-1.03-0.36
				c-1.53-0.42-3.01-0.97-4.47-1.58c-0.17-0.07-0.34-0.14-0.52-0.19c-1.46-0.43-2.92-0.87-4.38-1.29c-0.88-0.26-1.74-0.54-2.59-0.88
				C39.75,169.65,37.43,168.74,35.13,167.5z M56.33,167.19c0.74,0.51,1.41,0.78,2.09,1.04c1.19,0.45,2.39,0.9,3.54,1.43
				c1.38,0.64,2.77,1.21,4.18,1.77c0.6,0.24,0.94,0.29,1.08-0.58c0.15-0.95,0.38-1.89,0.57-2.83c0.04-0.22,0.09-0.44,0.11-0.67
				c0.04-0.33-0.27-0.71-0.61-0.74c-0.24-0.02-0.48-0.05-0.72-0.04c-1.75,0.08-3.49,0.32-5.25,0.23c-0.06,0-0.12,0.02-0.18,0.02
				c-0.72,0.03-1.45,0.05-2.17,0.09C58.13,166.94,57.28,166.9,56.33,167.19z"/>
			<path class="st18" d="M82.32,126.06c0.42-0.05,0.77-0.09,1.12-0.14c1.16-0.15,2.26,0.1,3.33,0.64c1.14,0.58,2.29,1.14,3.44,1.7
				c0.66,0.32,1.34,0.58,1.99,0.92c0.64,0.34,1.24,0.77,1.87,1.13c1.27,0.72,2.55,1.43,3.84,2.12c1.09,0.58,2.05,1.31,2.76,2.32
				c0.14,0.2,0.28,0.4,0.46,0.55c0.81,0.71,1.19,1.64,1.62,2.55c0.28,0.6,0.37,1.24,0.37,1.88c-0.02,1.74-0.23,3.44-0.75,5.08
				c-0.14,0.43-0.31,0.86-0.54,1.25c-0.53,0.94-1.07,1.88-1.68,2.76c-0.38,0.56-0.53,1.25-1.04,1.76c-0.36,0.36-0.66,0.77-1.03,1.13
				c-0.58,0.57-0.85,0.53-1.58,0.13c-1.76-0.97-3.51-1.96-5.27-2.94c-0.37-0.21-0.74-0.42-1.12-0.61c-0.98-0.5-1.96-0.97-2.93-1.49
				c-2.42-1.29-4.82-2.61-7.25-3.89c-1.83-0.96-3.69-1.89-5.55-2.81c-0.38-0.19-0.77-0.35-1.12-0.6c-0.2-0.14-0.41-0.27-0.64-0.36
				c-1.2-0.46-2.31-1.08-3.42-1.73c-0.16-0.09-0.35-0.13-0.49-0.24c-0.91-0.74-2-1.15-3.04-1.66c-2.29-1.14-4.58-2.28-6.86-3.43
				c-3.37-1.71-6.64-3.61-9.98-5.38c-0.21-0.11-0.43-0.23-0.62-0.38c-0.69-0.56-0.76-0.87-0.46-1.5c0.12-0.26,0.22-0.53,0.38-0.76
				c0.46-0.72,0.79-1.51,1.11-2.3c0.59-1.43,1.42-2.71,2.53-3.81c0.81-0.81,1.61-1.62,2.54-2.3c1.29-0.96,2.77-1.45,4.47-1.31
				c0.9,0.08,1.79,0.26,2.66,0.56c0.4,0.14,0.8,0.29,1.2,0.45c1.87,0.73,3.74,1.46,5.61,2.2c0.51,0.2,1.01,0.44,1.49,0.69
				c2.11,1.09,4.23,2.17,6.33,3.28c1.02,0.54,2.03,1.11,3.01,1.74c1.07,0.69,2.11,1.45,2.82,2.53
				C81.98,125.87,82.11,125.92,82.32,126.06z M68.3,124.51c-0.01,0.01-0.01,0.02-0.02,0.03c-1.69-0.83-3.39-1.65-5.08-2.5
				c-1.04-0.53-2.13-0.9-3.22-1.27c-1.26-0.43-2.37-0.16-3.22,0.79c-0.19,0.21-0.41,0.4-0.59,0.62c-0.11,0.13-0.18,0.29-0.25,0.44
				c-0.09,0.17,0.01,0.52,0.19,0.63c1.63,0.96,3.29,1.85,5.04,2.57c0.68,0.28,1.35,0.56,1.99,0.9c2.05,1.09,4.09,2.17,6.14,3.25
				c0.49,0.26,0.97,0.53,1.49,0.7c0.98,0.33,1.92,0.76,2.86,1.19c0.67,0.31,1,0.18,1.21-0.49c0.13-0.43,0.26-0.88,0.3-1.33
				c0.09-0.93-0.29-1.71-1.11-2.27c-0.3-0.21-0.63-0.37-0.95-0.55c-1.17-0.66-2.33-1.32-3.5-1.98
				C69.14,125,68.72,124.75,68.3,124.51z M90.52,141.27c0.31,0.19,0.62,0.38,0.94,0.56c1.11,0.64,2.26,1.17,3.44,1.68
				c0.12,0.05,0.41-0.03,0.48-0.12c0.3-0.35,0.5-0.76,0.62-1.2c0.24-0.88,0.06-1.72-0.53-2.47c-0.29-0.37-0.63-0.73-0.99-1.04
				c-0.64-0.55-1.32-1.05-2.06-1.49c-1.67-0.98-3.34-1.98-5.04-2.92c-1.02-0.57-2.09-0.95-3.23-1.14c-0.72-0.12-1.3,0.1-1.75,0.58
				c-0.43,0.46-0.73,1.01-0.93,1.6c-0.05,0.14,0.02,0.34,0.09,0.49c0.13,0.27,0.37,0.47,0.63,0.62c0.74,0.42,1.48,0.84,2.22,1.25
				c0.48,0.27,0.98,0.5,1.43,0.81C87.34,139.52,88.93,140.39,90.52,141.27z"/>
			<path class="st18" d="M112.77,127.74c-0.24-0.16-0.55-0.34-0.84-0.55c-0.3-0.21-0.61-0.41-0.86-0.67
				c-0.59-0.62-1.29-1.12-1.92-1.69c-1.04-0.94-2.06-1.9-3.1-2.85c-0.27-0.25-0.53-0.5-0.8-0.75c-0.89-0.82-1.88-1.53-2.69-2.45
				c-0.76-0.86-1.65-1.61-2.48-2.42c-0.87-0.85-1.74-1.71-2.6-2.58c-0.38-0.39-0.72-0.82-1.1-1.22c-0.59-0.61-1.14-1.28-1.8-1.81
				c-1.54-1.21-2.9-2.6-4.37-3.88c-0.28-0.24-0.54-0.49-0.79-0.77c-2.32-2.59-4.82-5-7.35-7.38c-0.93-0.87-1.88-1.73-2.82-2.6
				c-0.22-0.2-0.44-0.42-0.68-0.61c-2.15-1.7-4.1-3.64-6.18-5.42c-0.09-0.08-0.15-0.19-0.26-0.32c0.01-0.14-0.02-0.33,0.04-0.47
				c0.11-0.26,0.24-0.52,0.41-0.74c0.42-0.54,0.82-1.09,1.3-1.58c0.96-0.97,1.88-1.97,2.96-2.82c0.18-0.14,0.36-0.28,0.51-0.45
				c0.51-0.6,0.96-1.24,1.63-1.72c0.68-0.5,1.24-1.17,1.84-1.77c0.56-0.56,1.11-1.14,1.66-1.71c0.04-0.04,0.09-0.07,0.13-0.11
				c0.24-0.22,0.72-0.26,0.99-0.08c0.2,0.14,0.4,0.28,0.58,0.44c0.95,0.86,1.89,1.73,2.83,2.59c0.18,0.16,0.33,0.36,0.5,0.54
				c0.3,0.34,0.34,0.82,0.06,1.12c-0.65,0.71-1.31,1.42-1.97,2.12c-0.89,0.95-1.8,1.9-2.69,2.85c-0.19,0.21-0.34,0.45-0.51,0.69
				c-0.11,0.16-0.1,0.52,0.03,0.66c0.2,0.23,0.39,0.47,0.61,0.68c1.1,1.05,2.22,2.09,3.33,3.14c0.89,0.83,1.78,1.67,2.67,2.5
				c0.13,0.12,0.29,0.23,0.4,0.37c0.95,1.22,2.26,2.03,3.42,3.01c0.46,0.39,1,0.68,1.5,1.02c0.19-0.08,0.37-0.12,0.49-0.22
				c0.17-0.14,0.32-0.32,0.45-0.51c0.86-1.28,2.01-2.31,3.03-3.46c0.11-0.12,0.5-0.15,0.66-0.06c0.1,0.06,0.23,0.09,0.32,0.17
				c1.46,1.2,2.82,2.52,4.18,3.83c0.09,0.08,0.18,0.19,0.2,0.3c0.04,0.16,0.06,0.35,0.02,0.5c-0.04,0.16-0.15,0.31-0.26,0.44
				c-0.72,0.8-1.24,1.78-2.15,2.41c-0.44,0.66-1.03,1.21-1.4,1.98c0.15,0.78,0.64,1.38,1.26,1.9c0.47,0.39,0.96,0.76,1.4,1.17
				c1.16,1.07,2.32,2.16,3.46,3.25c1.41,1.34,2.8,2.7,4.22,4.04c0.4,0.37,0.83,0.71,1.26,1.05c0.09,0.07,0.21,0.09,0.37,0.15
				c0.12-0.06,0.29-0.1,0.41-0.2c0.34-0.29,0.71-0.58,0.99-0.93c0.56-0.72,1.2-1.36,1.85-2c0.48-0.48,0.93-1,1.39-1.5
				c0.19-0.21,0.38-0.42,0.6-0.6c0.13-0.11,0.3-0.17,0.46-0.22c0.11-0.03,0.23-0.02,0.39-0.03c0.57,0.28,1.07,0.73,1.59,1.14
				c0.57,0.46,1.16,0.89,1.69,1.39c0.58,0.54,1.11,1.13,1.63,1.72c0.44,0.49,0.45,0.98,0.05,1.42c-0.92,1-1.86,2-2.79,2.99
				c-1.37,1.44-2.77,2.86-4.01,4.41c-0.21,0.27-0.42,0.55-0.68,0.76c-0.77,0.6-1.37,1.35-2,2.09
				C113.29,127.59,113.1,127.72,112.77,127.74z"/>
			<path class="st18" d="M135.18,83.9c0.93,1.22,1.97,2.29,3.02,3.35c2.15,2.16,4.26,4.37,6.36,6.57c1.64,1.71,3.36,3.31,5.13,4.87
				c0.19,0.16,0.37,0.32,0.56,0.5c0.22,0.21,0.23,0.68,0,0.82c-1.39,0.85-2.7,1.83-4.19,2.52c-0.38,0.18-0.78,0.24-1.31,0.06
				c-0.6-0.56-1.31-1.14-1.96-1.82c-1.41-1.49-2.89-2.91-4.3-4.4c-1.15-1.22-2.24-2.51-3.36-3.76c-1.54-1.72-3.24-3.27-4.89-4.86
				c-0.09-0.08-0.2-0.15-0.3-0.22c-0.21-0.15-0.44-0.2-0.68-0.13c-0.97,0.29-1.81,0.79-2.5,1.54c-0.12,0.13-0.19,0.53-0.11,0.69
				c0.11,0.22,0.23,0.44,0.35,0.66c1.29,2.29,2.59,4.58,3.87,6.87c0.52,0.93,0.99,1.88,1.5,2.82c0.78,1.43,1.55,2.86,2.35,4.28
				c0.28,0.49,0.62,0.94,0.93,1.4c0.14,0.21,0.28,0.41,0.4,0.63c0.29,0.55,0.23,1.08-0.08,1.56c-0.2,0.31-0.47,0.53-0.77,0.7
				c-0.25,0.14-0.52,0.27-0.8,0.35c-0.8,0.23-1.5,0.63-2.15,1.15c-0.23,0.18-0.49,0.32-0.74,0.47c-0.35,0.21-0.74,0.12-0.94-0.21
				c-0.16-0.27-0.33-0.53-0.47-0.81c-0.91-1.78-1.92-3.51-2.9-5.26c-1.04-1.85-2.03-3.74-3.04-5.61c-0.12-0.22-0.22-0.45-0.35-0.66
				c-1.27-1.95-2.28-4.02-3.29-6.11c-0.22-0.45-0.43-0.91-0.71-1.32c-0.54-0.77-0.87-1.66-1.44-2.4c-0.19-0.24-0.31-0.55-0.42-0.84
				c-0.51-1.35-1.2-2.61-1.86-3.89c-0.85-1.67-1.8-3.29-2.53-5.02c-0.1-0.23-0.21-0.46-0.36-0.66c-1.18-1.56-2.02-3.31-2.93-5.02
				c-0.38-0.72-0.78-1.43-1.17-2.14c-0.12-0.22-0.26-0.43-0.36-0.66c-0.63-1.44-1.5-2.74-2.3-4.08c-0.67-1.13-1.3-2.29-1.94-3.43
				c-0.19-0.34-0.2-0.71-0.2-1.09c0-0.26,0.1-0.5,0.29-0.63c0.64-0.4,1.29-0.8,1.96-1.15c0.57-0.3,1.12-0.62,1.6-1.06
				c0.74-0.68,1.67-1.07,2.53-1.56c0.76-0.43,1.56-0.79,2.33-1.2c1.53-0.81,3.19-1.1,4.92-1.18c1.1-0.05,2.13,0.29,3.09,0.87
				c1.05,0.64,2.06,1.35,2.89,2.3c0.53,0.61,1.13,1.17,1.65,1.78c0.85,1,1.6,2.08,2.2,3.26c0.68,1.34,1.51,2.59,2.36,3.83
				c0.92,1.35,1.73,2.75,2.34,4.27c0.59,1.45,1.22,2.88,1.84,4.31c0.22,0.52,0.49,1.01,0.61,1.57c0.12,0.54,0.38,1.06,0.47,1.61
				c0.14,0.79,0.2,1.6,0.26,2.4c0.05,0.69-0.06,1.35-0.36,1.95C135.13,83.01,135.05,83.35,135.18,83.9z M117.8,72.08
				c1.01,1.96,1.86,3.64,2.75,5.29c0.59,1.1,1.25,2.17,1.9,3.24c0.16,0.27,0.35,0.52,0.57,0.74c0.18,0.18,0.42,0.27,0.66,0.21
				c1.09-0.28,2.06-0.82,3.01-1.4c0.39-0.24,0.75-0.57,1.05-0.93c0.69-0.84,0.9-1.86,0.43-2.91c-0.56-1.25-1.05-2.54-1.91-3.65
				c-0.26-0.34-0.44-0.76-0.63-1.15c-0.53-1.06-0.98-2.17-1.69-3.13c-0.07-0.1-0.14-0.22-0.17-0.33c-0.2-0.75-0.68-1.33-1.09-1.96
				c-0.28-0.42-0.52-0.85-0.77-1.29c-0.54-0.92-1.17-1.77-1.88-2.57c-0.25-0.29-0.54-0.52-0.89-0.65c-0.74-0.29-1.49-0.49-2.27-0.53
				c-0.73-0.03-1.42,0.14-2.01,0.52c-0.54,0.34-1.02,0.78-1.5,1.2c-0.23,0.21-0.27,0.53-0.16,0.85c0.1,0.29,0.22,0.59,0.36,0.86
				c0.53,0.99,1.07,1.98,1.62,2.96C116.09,69.11,117.03,70.73,117.8,72.08z"/>
			<path class="st18" d="M172.29,73.98c0.42,1.47,1.01,2.85,1.6,4.22c1.22,2.79,2.38,5.61,3.55,8.43c0.91,2.19,1.93,4.31,3.01,6.4
				c0.12,0.22,0.23,0.44,0.34,0.66c0.13,0.27-0.03,0.72-0.29,0.76c-1.61,0.29-3.18,0.73-4.82,0.83c-0.42,0.03-0.81-0.06-1.24-0.42
				c-0.36-0.74-0.81-1.54-1.16-2.41c-0.77-1.9-1.64-3.76-2.41-5.66c-0.63-1.56-1.18-3.15-1.77-4.73c-0.81-2.16-1.83-4.22-2.8-6.31
				c-0.05-0.11-0.13-0.21-0.2-0.31c-0.15-0.21-0.34-0.35-0.59-0.37c-1.01-0.09-1.98,0.08-2.89,0.53c-0.16,0.08-0.37,0.43-0.35,0.6
				c0.02,0.25,0.05,0.5,0.09,0.75c0.37,2.6,0.76,5.2,1.12,7.81c0.15,1.05,0.24,2.11,0.38,3.17c0.2,1.61,0.41,3.23,0.64,4.84
				c0.08,0.55,0.24,1.1,0.36,1.65c0.05,0.25,0.11,0.49,0.14,0.74c0.07,0.62-0.18,1.09-0.64,1.43c-0.29,0.21-0.63,0.33-0.98,0.37
				c-0.29,0.04-0.58,0.07-0.87,0.04c-0.83-0.08-1.63,0.04-2.42,0.29c-0.28,0.08-0.57,0.12-0.86,0.17c-0.4,0.07-0.73-0.15-0.8-0.54
				c-0.06-0.31-0.11-0.62-0.14-0.93c-0.21-1.99-0.52-3.97-0.8-5.95c-0.3-2.11-0.54-4.22-0.8-6.33c-0.03-0.25-0.04-0.5-0.09-0.74
				c-0.48-2.27-0.67-4.58-0.85-6.89c-0.04-0.5-0.07-1-0.19-1.49c-0.22-0.91-0.21-1.86-0.47-2.76C155,71.54,155,71.21,155,70.9
				c0.02-1.44-0.17-2.87-0.32-4.3c-0.19-1.86-0.49-3.72-0.54-5.6c-0.01-0.25-0.03-0.51-0.1-0.74c-0.53-1.88-0.68-3.81-0.91-5.74
				c-0.1-0.8-0.21-1.61-0.32-2.42c-0.03-0.25-0.09-0.5-0.1-0.74c-0.07-1.57-0.41-3.1-0.66-4.64c-0.21-1.3-0.38-2.6-0.56-3.9
				c-0.05-0.39,0.07-0.74,0.21-1.08c0.1-0.25,0.27-0.43,0.5-0.48c0.74-0.14,1.49-0.28,2.24-0.36c0.64-0.07,1.27-0.17,1.87-0.4
				c0.94-0.36,1.94-0.39,2.92-0.53c0.86-0.13,1.74-0.17,2.61-0.27c1.72-0.2,3.38,0.13,5.01,0.69c1.04,0.35,1.88,1.04,2.57,1.93
				c0.75,0.98,1.43,2,1.86,3.19c0.28,0.76,0.63,1.49,0.89,2.26c0.43,1.24,0.74,2.51,0.87,3.83c0.15,1.5,0.47,2.97,0.81,4.43
				c0.37,1.59,0.61,3.19,0.64,4.83c0.02,1.56,0.09,3.12,0.15,4.69c0.02,0.56,0.09,1.12,0,1.68c-0.08,0.55-0.04,1.13-0.15,1.67
				c-0.16,0.79-0.39,1.56-0.63,2.33c-0.2,0.66-0.54,1.23-1.04,1.69C172.56,73.14,172.36,73.43,172.29,73.98z M160.38,56.66
				c0.23,2.19,0.41,4.06,0.64,5.93c0.15,1.24,0.38,2.48,0.59,3.71c0.05,0.31,0.14,0.61,0.26,0.9c0.1,0.23,0.3,0.4,0.54,0.43
				c1.12,0.13,2.22-0.02,3.31-0.22c0.45-0.08,0.91-0.26,1.31-0.48c0.95-0.53,1.51-1.41,1.46-2.56c-0.07-1.37-0.06-2.75-0.46-4.09
				c-0.12-0.41-0.13-0.87-0.17-1.3c-0.11-1.18-0.13-2.38-0.44-3.53c-0.03-0.12-0.06-0.25-0.04-0.37c0.08-0.77-0.15-1.49-0.31-2.22
				c-0.11-0.49-0.18-0.98-0.25-1.48c-0.17-1.05-0.45-2.07-0.82-3.07c-0.13-0.36-0.32-0.68-0.59-0.93c-0.58-0.54-1.21-1-1.93-1.32
				c-0.67-0.29-1.37-0.38-2.07-0.24c-0.62,0.12-1.23,0.35-1.84,0.58c-0.29,0.11-0.44,0.4-0.45,0.73c-0.01,0.31-0.01,0.63,0.02,0.94
				c0.14,1.12,0.28,2.23,0.44,3.35C159.86,53.28,160.14,55.13,160.38,56.66z"/>
			<path class="st18" d="M207.66,41.67c1.34-0.22,2.57-0.15,3.79,0.22c0.87,0.26,1.77,0.43,2.65,0.66c0.33,0.09,0.65,0.21,0.96,0.35
				c0.2,0.09,0.4,0.23,0.57,0.37c0.13,0.11,0.22,0.27,0.34,0.42c0.16,1.01,0.05,2.05,0.03,3.08c-0.03,1.76-0.11,3.52,0.01,5.27
				c0.05,0.78-0.06,1.58-0.1,2.36c-0.09,1.94-0.25,3.88-0.46,5.82c-0.16,1.45-0.28,2.91-0.34,4.37c-0.07,1.88-0.26,3.76-0.52,5.63
				c-0.05,0.36-0.1,0.72-0.12,1.09c-0.08,2.37-0.28,4.73-0.5,7.09c-0.02,0.24-0.02,0.49-0.02,0.73c0,0.85,0.03,1.7-0.16,2.54
				c0.02,1.34-0.22,2.67-0.25,4c-0.01,0.24,0.04,0.5-0.02,0.73c-0.27,1.14-0.17,2.3-0.41,3.44c-0.04,0.18-0.06,0.36-0.07,0.54
				c-0.18,2.73-0.36,5.46-0.52,8.19c-0.04,0.6-0.03,1.2-0.04,1.74c-0.23,0.33-0.49,0.47-0.79,0.41c-1.34-0.25-2.68-0.49-4.02-0.78
				c-0.44-0.09-0.84-0.33-1.16-0.45c-0.29-0.31-0.39-0.61-0.37-0.91c0.07-1.64-0.18-3.27,0.01-4.91c-0.04-2.25,0.11-4.49,0.32-6.73
				c0.04-0.42,0.04-0.85,0.01-1.28c-0.06-0.66-0.09-1.32-0.04-1.99c0.03-0.41-0.2-0.74-0.52-0.84c-1.64-0.49-3.28-0.96-4.96-1.25
				c-0.28-0.05-0.57-0.04-0.85-0.03c-0.3,0.01-0.57,0.16-0.7,0.46c-0.81,1.83-1.69,3.63-2.32,5.55c-0.8,2.43-1.6,4.87-2.53,7.25
				c-0.08,0.22-0.23,0.42-0.38,0.61c-0.15,0.2-0.35,0.31-0.59,0.34c-0.06,0.01-0.11,0.02-0.17,0.01c-1.07-0.15-2.15-0.24-3.16-0.65
				c-0.63-0.26-1.29-0.43-1.94-0.66c-0.43-0.15-0.68-0.66-0.59-1.17c0.03-0.18,0.04-0.37,0.11-0.54c0.36-0.83,0.43-1.77,0.86-2.58
				c0.06-0.11,0.1-0.22,0.13-0.34c0.41-1.6,1.01-3.13,1.58-4.67c0.21-0.57,0.43-1.14,0.64-1.71c0.16-0.46,0.33-0.92,0.47-1.38
				c0.23-0.76,0.43-1.53,0.79-2.24c0.14-0.27,0.2-0.57,0.29-0.86c0.36-1.17,0.73-2.32,1.24-3.44c0.4-0.88,0.7-1.82,1.03-2.73
				c0.56-1.55,1.22-3.05,1.83-4.58c0.09-0.23,0.18-0.45,0.26-0.68c0.73-2.14,1.55-4.23,2.54-6.26c0.16-0.33,0.29-0.67,0.4-1.02
				c0.48-1.51,1.09-2.97,1.75-4.4c0.08-0.16,0.15-0.33,0.21-0.51c0.49-1.44,0.98-2.89,1.46-4.33c0.29-0.87,0.61-1.72,0.98-2.55
				C205.33,46.2,206.32,43.91,207.66,41.67z M207.16,62.86c-0.54,0.71-0.83,1.37-1.11,2.05c-0.49,1.17-0.99,2.35-1.57,3.48
				c-0.69,1.35-1.31,2.73-1.93,4.11c-0.26,0.59-0.33,0.93,0.54,1.1c0.94,0.19,1.87,0.45,2.81,0.68c0.22,0.05,0.44,0.1,0.66,0.14
				c0.33,0.05,0.72-0.24,0.76-0.58c0.03-0.24,0.07-0.48,0.07-0.72c-0.01-1.75-0.19-3.49-0.02-5.25c0-0.06-0.01-0.12-0.02-0.18
				c0-0.73,0-1.45-0.01-2.18C207.33,64.67,207.41,63.81,207.16,62.86z"/>
			<path class="st18" d="M239.81,60.43c0.09-0.25,0.14-0.5,0.26-0.7c0.34-0.59,0.7-1.17,1.01-1.78c0.65-1.31,1.06-1.7,2.58-2.67
				c0.17,0.05,0.42,0.07,0.61,0.18c2.01,1.15,4.12,2.13,6.05,3.43c1.22,0.56,2.24,1.44,3.48,1.97c0.47,0.2,0.87,0.57,1.29,0.87
				c0.28,0.2,0.52,0.48,0.83,0.63c0.73,0.36,1.46,0.71,2.03,1.31c0.11,0.12,0.29,0.18,0.45,0.25c1.95,0.91,3.72,2.14,5.52,3.3
				c0.36,0.23,0.57,0.57,0.7,0.96c0.08,0.31,0.01,0.63-0.1,0.91c-0.4,0.97-0.72,1.96-1.45,2.78c-0.53,0.6-0.95,1.3-1.44,1.95
				c-0.23,0.31-0.58,0.38-0.97,0.27c-0.51-0.14-0.96-0.4-1.41-0.68c-1.88-1.16-3.75-2.31-5.63-3.46c-0.19-0.12-0.42-0.2-0.64-0.25
				c-0.17-0.04-0.36,0.01-0.49,0.16c-0.16,0.19-0.31,0.39-0.43,0.6c-1.07,1.83-2.13,3.66-3.19,5.48c-0.09,0.16-0.21,0.31-0.32,0.46
				c-1.47,2.01-2.81,4.1-4.06,6.26c-0.28,0.48-0.65,0.91-0.96,1.37c-1.19,1.75-2.39,3.49-3.57,5.25c-0.45,0.67-0.87,1.36-1.3,2.05
				c-1.63,2.58-3.26,5.15-4.88,7.73c-0.2,0.32-0.39,0.64-0.57,0.97c-0.88,1.72-1.89,3.36-2.95,4.97c-0.65,0.99-1.23,2.01-1.75,3.08
				c-0.3,0.61-0.69,1.18-1.06,1.75c-0.19,0.3-0.68,0.44-0.96,0.3c-0.36-0.18-0.72-0.37-1.06-0.59c-0.84-0.52-1.64-1.07-2.58-1.44
				c-0.58-0.23-1.08-0.66-1.62-1.01c-0.16-0.1-0.23-0.49-0.12-0.66c0.71-1.17,1.42-2.33,2.15-3.49c0.37-0.58,0.72-1.16,1.03-1.77
				c0.59-1.17,1.31-2.25,2.11-3.3c1.28-1.68,2.43-3.45,3.45-5.31c0.66-1.2,1.41-2.34,2.14-3.5c0.6-0.95,1.24-1.87,1.86-2.8
				c0.51-0.78,1.03-1.55,1.64-2.26c0.52-0.61,0.95-1.31,1.36-2c0.57-0.96,1.15-1.91,1.66-2.91c0.59-1.16,1.35-2.24,2.05-3.34
				c1.1-1.73,2.22-3.45,3.34-5.18c0.44-0.68,0.89-1.35,1.36-2.01c0.58-0.81,1.1-1.65,1.51-2.56c0.11-0.24,0.06-0.48-0.07-0.69
				c-0.16-0.26-0.35-0.48-0.63-0.59c-1.75-0.69-3.21-1.86-4.78-2.84c-0.39-0.24-0.75-0.55-1.09-0.86
				C240.05,60.86,239.95,60.64,239.81,60.43z"/>
			<path class="st18" d="M282.47,84.53c0.34,0.19,0.65,0.36,0.85,0.48c0.77,1.03,1.46,1.98,2.17,2.91c0.25,0.33,0.48,0.67,0.6,1.07
				c0.11,0.36,0.06,0.71-0.16,1.04c-0.03,0.05-0.07,0.1-0.11,0.15c-1.21,1.18-2.29,2.5-3.61,3.58c-0.73,0.59-1.4,1.25-2.11,1.87
				c-0.47,0.41-0.94,0.85-1.45,1.2c-0.88,0.61-1.69,1.3-2.49,2.01c-2.17,1.91-4.34,3.82-6.51,5.74c-1.22,1.08-2.44,2.18-3.67,3.25
				c-1.75,1.53-3.46,3.12-5.31,4.52c-1.7,1.29-3.3,2.71-4.94,4.08c-1.35,1.13-2.69,2.26-4.09,3.33c-1.1,0.84-2.1,1.8-3.13,2.72
				c-0.98,0.88-2,1.72-2.83,2.76c-0.23,0.29-0.53,0.53-0.81,0.78c-0.14,0.12-0.31,0.21-0.47,0.31c-0.39,0.22-0.89,0.2-1.2-0.06
				c-0.13-0.11-0.27-0.22-0.38-0.36c-0.84-1.05-1.85-1.95-2.74-2.96c-0.15-0.17-0.28-0.37-0.42-0.56c-0.11-0.15-0.07-0.56,0.07-0.69
				c1.05-0.89,1.88-2.02,3.07-2.77c0.42-0.26,0.8-0.61,1.18-0.94c2.35-2.08,4.71-4.17,7.04-6.27c1.59-1.43,3.2-2.83,4.88-4.15
				c0.64-0.51,1.23-1.06,1.82-1.63c1.17-1.14,2.39-2.23,3.59-3.34c1.11-1.02,2.22-2.04,3.34-3.05c0.37-0.34,0.73-0.69,1.12-1.01
				c1.41-1.15,2.72-2.43,4.19-3.51c0.2-0.15,0.39-0.32,0.57-0.5c0.76-0.76,1.55-1.45,2.48-2.01c0.63-0.38,1.17-0.95,1.73-1.45
				c2.06-1.84,4.12-3.69,6.18-5.53c0.28-0.25,0.56-0.51,0.87-0.72C281.99,84.69,282.24,84.63,282.47,84.53z"/>
			<path class="st18" d="M297.79,139.24c-1.29,0.64-2.57,1.29-3.86,1.92c-0.34,0.17-0.68,0.31-1.03,0.46
				c-0.57,0.26-1.14,0.51-1.7,0.78c-1.36,0.64-2.71,1.29-4.06,1.93c-1.19,0.56-2.38,1.1-3.57,1.65c-1.13,0.53-2.23,1.13-3.42,1.53
				c-0.29,0.1-0.57,0.26-0.85,0.4c-1.29,0.64-2.57,1.29-3.86,1.94c-2.31,1.16-2.31,1.16-5.02,2.05c-0.41,0.14-0.82,0.3-1.23,0.45
				c-1.83,0.67-3.66,0.62-5.46,0.18c-0.77-0.19-1.46-0.57-2.07-1.04c-0.66-0.5-1.36-0.95-2.07-1.38c-0.41-0.25-0.74-0.57-1.03-0.95
				c-0.66-0.89-1.37-1.75-1.9-2.72c-0.36-0.67-0.64-1.37-0.9-2.08c-0.44-1.22-0.53-2.51-0.7-3.79c-0.11-0.82,0.01-1.65,0.32-2.46
				c0.93-2.43,2.41-4.5,4.55-6.14c0.79-0.61,1.64-1.13,2.46-1.7c2.43-1.67,5.06-2.99,7.66-4.35c0.33-0.17,0.66-0.37,1.01-0.49
				c1.37-0.45,2.62-1.17,3.91-1.81c1.17-0.59,2.36-1.15,3.6-1.58c0.59-0.2,1.15-0.5,1.72-0.75c1.93-0.88,3.88-1.72,5.87-2.48
				c0.35-0.13,0.7-0.27,1.03-0.44c2.01-1.04,4.18-1.63,6.28-2.44c1.21-0.27,2.42-0.58,3.64-0.79c0.86-0.15,1.72-0.04,2.55,0.2
				c1.81,0.53,3.52,1.24,5.06,2.28c0.29,0.2,0.57,0.43,0.79,0.69c0.75,0.9,1.4,1.87,1.95,2.9c0.14,0.25,0.26,0.53,0.33,0.81
				c0.15,0.57,0.39,1.09,0.61,1.63c0.43,1.03,0.55,2.14,0.54,3.28c0,1.01-0.19,2.01-0.32,3.01c-0.08,0.6-0.32,1.16-0.66,1.68
				c-0.82,1.23-1.83,2.32-2.94,3.32c-0.14,0.12-0.3,0.22-0.46,0.33C302.37,136.68,300.15,138.08,297.79,139.24z M272.14,131.8
				c-1.28,0.71-3.31,1.67-5.22,2.86c-1.38,0.87-2.59,1.92-3.79,3c-0.72,0.66-1.14,1.44-1.4,2.32c-0.14,0.48-0.16,0.94-0.02,1.4
				c0.32,1.06,0.68,2.1,1.21,3.08c0.47,0.88,1.22,1.4,2.24,1.58c0.72,0.13,1.45,0.17,2.2,0.02c0.85-0.17,1.7-0.35,2.53-0.63
				c1.31-0.44,2.55-1.03,3.75-1.69c2.47-1.36,5.08-2.38,7.67-3.48c1.04-0.44,2.06-0.89,3.1-1.33c1.03-0.44,2.07-0.86,3.11-1.3
				c1.56-0.66,3.03-1.48,4.51-2.28c1.97-1.08,3.96-2.12,5.91-3.24c0.98-0.56,1.87-1.24,2.78-1.89c0.64-0.46,1-1.09,1.12-1.83
				c0.07-0.41,0.08-0.83,0.15-1.23c0.18-1.05-0.12-1.99-0.61-2.86c-0.31-0.55-0.73-1.05-1.12-1.55c-0.22-0.28-0.52-0.47-0.89-0.56
				c-1-0.25-2.04-0.37-3.08-0.4c-0.68-0.02-1.35,0.08-2,0.33c-0.58,0.23-1.17,0.43-1.76,0.63c-1.95,0.65-3.86,1.43-5.75,2.23
				c-1.89,0.8-3.83,1.52-5.65,2.49c-0.27,0.15-0.57,0.26-0.87,0.34c-0.97,0.27-1.86,0.72-2.75,1.18
				C275.92,129.79,274.38,130.61,272.14,131.8z"/>
			<path class="st18" d="M295.08,181.14c0.09,0.08,0.17,0.2,0.27,0.22c0.18,0.05,0.38,0.06,0.56,0.04c1.02-0.11,2.04-0.2,3.06-0.36
				c1.52-0.23,3.04-0.46,4.54-0.8c0.94-0.21,1.9-0.32,2.84-0.5c0.69-0.13,1.37-0.31,2.06-0.47c0.37-0.08,0.75-0.17,1.13-0.24
				c2.65-0.46,5.29-0.97,7.96-1.34c1.65-0.23,3.27-0.59,4.92-0.81c0.19-0.03,0.38-0.03,0.57-0.01c0.26,0.03,0.48,0.15,0.63,0.35
				c0.11,0.14,0.23,0.29,0.27,0.46c0.25,0.92,0.6,1.82,0.71,2.77c0.1,0.83,0.26,1.65,0.4,2.48c0.08,0.48,0.08,0.95-0.09,1.42
				c-0.09,0.25-0.26,0.41-0.52,0.48c-0.18,0.05-0.37,0.09-0.56,0.11c-2.48,0.31-4.94,0.71-7.4,1.18c-1.82,0.35-3.65,0.68-5.52,0.67
				c-0.57,0-1.15,0.08-1.72,0.15c-2.1,0.28-4.19,0.57-6.29,0.86c-0.32,0.05-0.64,0.08-0.95,0.16c-2,0.48-4.04,0.63-6.07,0.89
				c-2.54,0.33-5.08,0.68-7.62,1.03c-0.38,0.05-0.76,0.14-1.13,0.24c-3.67,0.92-7.37,1.66-11.15,2.03
				c-1.59,0.16-3.17,0.48-4.75,0.73c-0.51,0.08-1.01,0.19-1.52,0.25c-0.65,0.08-1.06,0.01-1.27-0.75c-0.09-0.34-0.24-0.68-0.33-1.02
				c-0.06-0.23-0.08-0.47-0.09-0.71c-0.06-1.37-0.41-2.71-0.33-4.1c0.01-0.12,0.05-0.23,0.1-0.43c0.24-0.19,0.5-0.47,0.82-0.65
				c2.75-1.45,5.56-2.8,8.36-4.16c0.97-0.47,1.92-0.99,2.89-1.47c2.33-1.17,4.65-2.35,6.99-3.5c1.54-0.75,3.08-1.52,4.57-2.36
				c1.1-0.63,2.24-1.2,3.38-1.75c0.91-0.44,1.87-0.82,2.61-1.52c0.11-0.1,0.12-0.22,0.02-0.33c-0.03-0.04-0.1-0.07-0.15-0.08
				c-0.12-0.02-0.25-0.05-0.38-0.03c-1.97,0.23-3.95,0.45-5.92,0.72c-2.16,0.29-4.3,0.72-6.45,1.08c-3.6,0.6-7.2,1.23-10.83,1.67
				c-1.34,0.16-2.67,0.38-3.99,0.6c-0.44,0.07-0.86,0.24-1.3,0.34c-0.5,0.11-1,0.19-1.51,0.27c-0.19,0.03-0.53-0.19-0.61-0.37
				c-0.05-0.11-0.12-0.21-0.15-0.33c-0.14-0.64-0.32-1.28-0.4-1.93c-0.12-1.01-0.28-2.01-0.51-3c-0.1-0.46-0.23-0.93-0.01-1.4
				c0.5-0.54,1.16-0.74,1.87-0.84c1.65-0.23,3.3-0.48,4.95-0.72c2.66-0.4,5.33-0.74,7.97-1.27c2.07-0.42,4.17-0.72,6.26-1.05
				c1.14-0.18,2.26-0.41,3.39-0.66c1.06-0.23,2.14-0.4,3.22-0.56c2.03-0.3,4.06-0.59,6.09-0.85c1.97-0.26,3.94-0.48,5.9-0.81
				c2.59-0.44,5.19-0.82,7.79-1.2c1.71-0.25,3.42-0.51,5.12-0.86c0.69-0.15,1.39-0.25,2.09-0.07c0.39,0.1,0.69,0.31,0.8,0.69
				c0.2,0.69,0.4,1.38,0.55,2.08c0.17,0.76,0.31,1.52,0.43,2.29c0.08,0.53,0.14,1.07,0.16,1.6c0.02,0.38-0.18,0.71-0.54,0.91
				c-0.61,0.34-1.24,0.65-1.86,0.96c-2.56,1.28-5.12,2.56-7.65,3.86c-2.09,1.08-4.12,2.25-6.18,3.38c-1.72,0.95-3.43,1.92-5.14,2.88
				c-0.33,0.19-0.64,0.41-0.97,0.6c-0.76,0.45-1.5,0.93-2.31,1.33C296.25,180.08,295.79,180.44,295.08,181.14z"/>
		</g>
	</g>
</g>
</svg>
