<?xml version="1.0" encoding="utf-8"?>
<!-- Generator: Adobe Illustrator 27.0.0, SVG Export Plug-In . SVG Version: 6.00 Build 0)  -->
<svg version="1.1" xmlns="http://www.w3.org/2000/svg" xmlns:xlink="http://www.w3.org/1999/xlink" x="0px" y="0px"
	 viewBox="0 0 360 360" style="enable-background:new 0 0 360 360;" xml:space="preserve">
<style type="text/css">
	.st0{fill:#FFFAE9;}
	.st1{filter:url(#Adobe_OpacityMaskFilter);}
	.st2{mask:url(#SVGID_1_);}
	.st3{fill:#DD9933;}
	.st4{filter:url(#Adobe_OpacityMaskFilter_00000057843346978517192810000004862614378444583866_);}
	.st5{stroke:#000000;stroke-width:1.4608;stroke-miterlimit:10;}
	.st6{stroke:#000000;stroke-width:1.5345;stroke-miterlimit:10;}
	.st7{fill:none;stroke:#231F20;stroke-width:0.5;stroke-miterlimit:10;}
	.st8{fill:#333333;}
	.st9{fill:none;stroke:#FFFAE9;stroke-width:0.5;stroke-miterlimit:10;}
	.st10{filter:url(#Adobe_OpacityMaskFilter_00000183210475897259157950000014669280062107127469_);}
	.st11{mask:url(#SVGID_00000158017005012818549490000014481031807411608225_);fill:#FFFAE9;}
	.st12{filter:url(#Adobe_OpacityMaskFilter_00000108290576536028875360000006482008601663149698_);}
	.st13{mask:url(#SVGID_00000162325473860657854790000012292107212897474967_);}
	.st14{filter:url(#Adobe_OpacityMaskFilter_00000123406283382576189760000015938513684569947788_);}
	.st15{mask:url(#SVGID_00000104683418410485684720000013421080301480440223_);}
	.st16{fill:none;stroke:#FFFAE9;stroke-width:3;stroke-linecap:round;stroke-miterlimit:10;}
	.st17{fill:#878787;}
	.st18{fill:#3A3A3A;}
	.st19{fill:#BF9931;}
	.st20{fill:none;stroke:#333333;stroke-miterlimit:10;}
	.st21{filter:url(#Adobe_OpacityMaskFilter_00000097458375670147170700000003752850149161460387_);}
	.st22{mask:url(#SVGID_00000168822312281650321710000002123148482694204083_);}
	.st23{fill:none;stroke:#878787;stroke-width:0.5;stroke-miterlimit:10;}
	.st24{fill:#4C4C4B;}
	.st25{filter:url(#Adobe_OpacityMaskFilter_00000084515315862265639660000017056948957737526153_);}
	.st26{mask:url(#SVGID_00000046341386033388626360000015162240822677650827_);}
	.st27{filter:url(#Adobe_OpacityMaskFilter_00000032608488639818831420000004474394595028463538_);}
	.st28{filter:url(#Adobe_OpacityMaskFilter_00000010285184802167117120000001139906579915409591_);}
	.st29{mask:url(#SVGID_00000090289651371005037340000016611111720920482731_);}
	.st30{filter:url(#Adobe_OpacityMaskFilter_00000036945359618385549010000012182300083404934294_);}
	.st31{mask:url(#SVGID_00000111189277670574464670000016926732177896633008_);}
	.st32{filter:url(#Adobe_OpacityMaskFilter_00000034080039940551235940000004208931928983203997_);}
	.st33{mask:url(#SVGID_00000169549722624416403330000000509663175353007234_);}
	.st34{filter:url(#Adobe_OpacityMaskFilter_00000002360184227076755340000004953086560544807063_);}
	.st35{fill:#231F20;}
	.st36{fill:#FFFAE9;stroke:#000000;stroke-width:0.8169;stroke-miterlimit:10;}
	.st37{fill:#AAD9BD;}
	.st38{opacity:0.37;fill:none;stroke:#FFFAE9;stroke-width:0.5;stroke-miterlimit:10;}
	.st39{filter:url(#Adobe_OpacityMaskFilter_00000165214177487415507650000015051860006123589545_);}
	.st40{mask:url(#SVGID_00000180345768787996175420000002412190636449256632_);}
	.st41{filter:url(#Adobe_OpacityMaskFilter_00000113349815992147355840000015728409300881427074_);}
	.st42{mask:url(#SVGID_00000111911321020793976900000017147498585377415326_);}
	.st43{filter:url(#Adobe_OpacityMaskFilter_00000067954674175423864840000011266953977112370092_);}
	.st44{filter:url(#Adobe_OpacityMaskFilter_00000025424886554013622570000006371819006787783578_);}
	.st45{mask:url(#SVGID_00000183968675613820621920000005144715402001191869_);}
	.st46{filter:url(#Adobe_OpacityMaskFilter_00000013915178717975009820000009400391782952877997_);}
</style>
<g id="Layer_2">
</g>
<g id="Layer_1">
	<rect class="st18" width="360" height="360"/>
	<g>
		<g>
			<path class="st19" d="M195.48,284.84c0.29,0.33,0.62,0.64,0.85,1.01c0.17,0.28,0.59,0.63,0.01,1.01
				c-0.07,0.04,0.11,0.77,0.34,0.91c0.51,0.3,0.53,0.83,0.77,1.25c0.05,0.09-0.12,0.3-0.12,0.45c0,0.13,0.05,0.29,0.14,0.38
				c0.16,0.17,0.37,0.29,0.53,0.47c0.08,0.08,0.08,0.24,0.11,0.36c-0.13,0-0.26,0-0.57,0c0.25,0.36,0.45,0.64,0.64,0.91
				c0.03-0.03,0.07-0.06,0.1-0.08c0.1,0.61,0.2,1.23,0.31,1.89c0.01,0-0.09,0.02-0.03,0.01c0,0.75,0.05,1.47-0.01,2.18
				c-0.11,1.37-0.22,2.75-0.43,4.11c-0.16,1.04-0.44,2.05-0.7,3.07c-0.14,0.53-0.37,1.04-0.49,1.58c-0.13,0.58-0.17,1.19-0.25,1.78
				c-0.02,0.12-0.01,0.32-0.07,0.34c-0.52,0.16-0.8,0.4-0.42,0.96c0,0-0.25,0.19-0.3,0.32c-0.58,1.71-0.61,3.72-2.66,4.69
				c0.19,0.07,0.35,0.13,0.42,0.15c-0.28,0.29-0.57,0.61-0.89,0.91c-0.73,0.69-1.46,1.37-2.2,2.04c-0.08,0.07-0.2,0.1-0.31,0.15
				c-0.51,0.25-1.02,0.51-1.53,0.76c-0.11,0.05-0.21,0.15-0.32,0.16c-1.11,0.07-2.22,0.23-3.32,0.17c-1.83-0.11-3.09-1.3-4.31-2.51
				c-1.22-1.22-1.92-2.72-2.51-4.35c-0.41-1.14-0.78-2.25-0.87-3.46c-0.12-1.54-0.41-3.07-0.47-4.61c-0.07-1.7,0.04-3.42,0.07-5.12
				c0.01-0.79-0.03-1.59,0.03-2.38c0.07-0.87,0.16-1.75,0.36-2.59c0.28-1.16,0.52-2.35,1.28-3.36c0.28-0.37,0.3-0.93,0.49-1.38
				c0.62-1.47,1.73-2.56,2.99-3.42c0.94-0.64,2.06-1.01,3.12-1.46c1.78-0.74,3.58-0.87,5.36-0.02c0.57,0.27,1.09,0.52,1.77,0.57
				c1.14,0.08,1.86,1.1,2.76,1.71c0.12,0.08,0.12,0.34,0.18,0.52C195.41,284.87,195.44,284.86,195.48,284.84z M183.66,309.11
				c0.47,0.3,1.08,0.39,0.85,1.1c-0.02,0.07,0.27,0.24,0.4,0.37c0.55,0.58,1.22,0.31,1.84,0.25c0.34-0.03,0.74-0.08,0.99-0.28
				c0.9-0.71,1.36-1.71,1.86-2.74c0.93-1.92,1.77-3.83,2.29-5.92c0.52-2.07,1.5-4.04,1.2-6.27c-0.16-1.21-0.23-2.45-0.52-3.63
				c-0.27-1.1-0.78-2.14-1.17-3.21c-0.12-0.32-0.23-0.65-0.27-0.98c-0.07-0.57-0.89-1.21-1.47-1.11c-0.59,0.1-1.18,0.21-1.77,0.25
				c-1.34,0.08-2.62,0.38-3.39,1.54c-0.56,0.84-0.95,1.83-1.23,2.8c-0.25,0.87-0.25,1.81-0.36,2.71c-0.04,0.34-0.09,0.69-0.12,1.03
				c-0.07,0.69-0.17,1.38-0.2,2.08c-0.02,0.48,0.17,0.99,0.04,1.43c-0.35,1.21,0.11,2.37,0.1,3.55c0,0.23-0.05,0.46-0.06,0.64
				c0.08,0.31,0.22,0.62,0.23,0.94c0.01,0.3-0.17,0.61-0.15,0.9c0.03,0.44,0.17,0.88,0.27,1.32c0.06,0.29,0.12,0.58,0.19,0.9
				c0.01,0-0.13-0.01-0.26-0.03c-0.04,0.06-0.08,0.12-0.11,0.17c0.21,0.17,0.43,0.34,0.75,0.58c0-0.01-0.04,0.19-0.09,0.38
				c0.1-0.13,0.2-0.26,0.3-0.4c0.16,0.43,0.32,0.86,0.49,1.32C184.03,308.93,183.89,309,183.66,309.11z"/>
			<path class="st19" d="M162.52,304.04c0.09,0.08,0.36,0.21,0.37,0.35c0.03,0.7-0.01,1.4-0.02,1.92c0.17,0.56,0.33,0.96,0.42,1.39
				c0.13,0.56,0.1,1.18,0.33,1.69c0.3,0.68,0.75,1.32,1.21,1.91c0.09,0.12,0.58,0.06,0.8-0.06c1.33-0.74,2.57-1.58,3.71-2.63
				c0.74-0.68,1.43-1.75,2.77-1.56c0.75,0.1,1.13,0.45,1.24,1.18c0.08,0.51,0.32,1.02,0.57,1.49c0.25,0.46,0.14,0.85-0.3,0.95
				c0.04,0.3,0.17,0.61,0.09,0.87c-0.16,0.54-0.21,1.06-0.19,1.63c0.02,0.68-0.33,1.32-0.95,1.78c-0.72,0.52-1.34,1.18-2.07,1.69
				c-0.43,0.3-0.96,0.47-1.46,0.65c-0.84,0.3-1.69,0.58-2.55,0.82c-0.28,0.08-0.61,0.06-0.91,0.03c-0.96-0.1-1.92-0.29-2.88-0.35
				c-1.96-0.12-2.8-1.61-3.82-2.93c-1.12-1.45-1.81-3.11-2.43-4.8c-0.26-0.7-0.29-1.49-0.42-2.24c-0.04-0.25-0.05-0.51-0.08-0.77
				c-0.17-1.56-0.44-3.12-0.49-4.69c-0.04-1.06,0.2-2.13,0.37-3.19c0.19-1.19,0.25-2.47,0.75-3.53c0.51-1.08,0.34-2.22,0.7-3.3
				c0.25-0.77,0.53-1.53,0.78-2.28c0.57-1.7,1.34-3.27,2.2-4.82c0.16-0.3,0.53-0.5,0.83-0.7c0.71-0.48,1.6-0.81,2.13-1.43
				c0.75-0.87,1.7-0.84,2.64-1.02c0.26-0.05,0.53-0.09,0.78-0.07c0.34,0.03,0.68,0.12,1.02,0.18c0.05,0.01,0.1,0.05,0.14,0.04
				c1.13-0.23,1.94,0.33,2.61,1.11c0.33,0.39,1.13,0.36,1.02,1.2c-0.03,0.2,0.45,0.45,0.66,0.7c0.95,1.14,1.86,2.31,1.81,3.92
				c-0.01,0.37-0.05,0.74-0.07,1.12c-0.02,0.71-0.7,1.19-1.37,0.97c-0.12-0.04-0.29-0.15-0.35-0.11c-0.7,0.45-1.04-0.1-1.46-0.48
				c-0.95-0.85-1.87-1.75-2.91-2.48c-0.52-0.36-1,0.26-1.37,0.61c-0.79,0.77-1.53,1.59-2.28,2.41c-0.09,0.09-0.09,0.27-0.12,0.41
				c-0.06,0.27-0.11,0.53-0.18,0.8c-0.19,0.76-0.43,1.51-0.58,2.28c-0.19,0.96-0.31,1.94-0.45,2.91c-0.09,0.64-0.12,1.28-0.22,1.91
				c-0.08,0.53-0.28,1.05-0.29,1.58c-0.01,0.45,0.18,0.9,0.29,1.35C162.7,302.97,162.81,303.51,162.52,304.04z"/>
			<path class="st19" d="M204.19,313.03c-0.5,1.03-0.95,2-1.46,2.94c-0.08,0.14-0.6,0.24-0.71,0.14c-0.37-0.34-0.68-0.18-1.05-0.06
				c-0.63,0.2-1.28,0.39-1.42-0.63c-0.05-0.32-0.45-0.63-0.43-0.92c0.08-1,0.07-2.19,1-2.75c0.81-0.49,1.84-0.6,2.79-0.84
				c0.12-0.03,0.37,0.19,0.45,0.35C203.66,311.81,203.9,312.39,204.19,313.03z"/>
		</g>
		<g>
			<g>
				<path class="st0" d="M98.12,252.37c0-0.59,0-1.18,0-1.76c0-0.15-0.02-0.29-0.02-0.44c-0.01-0.44-0.02-0.88-0.02-1.32
					c0-0.46,0.01-0.91,0.01-1.37c0-0.02,0-0.03,0-0.05c0-0.05,0.08-0.13,0.12-0.14c0.19-0.04,0.39-0.05,0.59-0.04
					c0.13,0,0.26,0,0.39,0.02c0.2,0.03,0.39,0.03,0.59,0.01c0.12-0.01,0.22,0.07,0.24,0.2c0.01,0.08,0.02,0.16,0,0.24
					c-0.05,0.31-0.05,0.62,0,0.93c0.04,0.21,0.05,0.43,0.02,0.63c-0.03,0.2-0.01,0.39,0,0.59c0.01,0.21,0.01,0.42,0.01,0.64
					c0.01,0.56,0.01,1.11,0.04,1.67c0.03,0.49,0.05,0.98,0.06,1.47c0.02,1.05,0.02,2.09,0.04,3.14c0,0.11,0.01,0.23,0.02,0.34
					c0.04,0.38,0.03,0.75-0.01,1.12c-0.05,0.44-0.15,0.87-0.24,1.3c-0.07,0.37-0.25,0.67-0.46,0.97c-0.14,0.2-0.31,0.38-0.49,0.55
					c-0.34,0.3-0.74,0.48-1.15,0.65c-0.06,0.02-0.13,0.03-0.19,0.05c-0.16,0.04-0.32,0.07-0.48,0.11c-0.64,0.16-1.26,0.14-1.88-0.09
					c-0.09-0.03-0.18-0.07-0.28-0.09c-0.08-0.02-0.15-0.06-0.22-0.11c-0.08-0.06-0.16-0.11-0.25-0.15c-0.41-0.2-0.65-0.54-0.8-0.95
					c-0.06-0.17-0.12-0.34-0.16-0.52c-0.1-0.43-0.18-0.86-0.27-1.29c-0.01-0.03-0.02-0.06-0.02-0.1c-0.03-0.47-0.09-0.94-0.09-1.42
					c-0.01-0.75-0.04-1.5-0.05-2.25c0-0.08,0.01-0.17-0.01-0.24c-0.05-0.24-0.03-0.48,0-0.73c0.03-0.24,0.02-0.49,0-0.73
					c-0.02-0.29,0-0.59,0-0.88c0.01-0.28,0.02-0.56,0.02-0.83c0-0.21-0.02-0.42-0.02-0.63c0-0.2,0.03-0.39,0.03-0.59
					c0-0.8-0.01-1.6-0.01-2.4c0-0.18,0.01-0.36,0.02-0.54c0.01-0.09,0.1-0.18,0.2-0.19c0.08-0.01,0.16-0.01,0.24-0.01
					c0.28,0.02,0.55,0.03,0.83,0.01c0.15-0.01,0.29-0.01,0.44,0.04c0.05,0.02,0.12,0.09,0.12,0.14c0,0.02,0.01,0.03,0.01,0.05
					c0,0.52,0,1.04,0,1.57c0,0.43,0,0.85,0,1.28c0.01,0.82,0,1.63-0.04,2.45c0,0.08-0.01,0.16,0.01,0.24c0.02,0.1,0.01,0.19,0,0.29
					c-0.04,0.29-0.04,0.59-0.01,0.88c0.02,0.18,0.03,0.36,0,0.54c-0.03,0.2-0.02,0.39,0.01,0.59c0.02,0.11,0.03,0.23,0.03,0.34
					c0,0.69,0,1.37,0.07,2.06c-0.03,0.4,0.05,0.78,0.15,1.16c0.08,0.32,0.24,0.61,0.48,0.84c0.1,0.09,0.21,0.16,0.34,0.19
					c0.37,0.08,0.74,0.13,1.12,0.03c0.19-0.05,0.33-0.14,0.44-0.29c0.05-0.07,0.08-0.14,0.11-0.22c0.09-0.23,0.16-0.46,0.19-0.71
					c0.11-0.71,0.18-1.43,0.18-2.15c0-0.83,0.02-1.67,0.02-2.5c0-0.46-0.01-0.92-0.02-1.37c0-0.06,0-0.13,0-0.2
					C98.11,252.37,98.11,252.37,98.12,252.37z"/>
				<path class="st0" d="M101.68,261.7c-0.06-0.1-0.07-0.21-0.07-0.32c0-0.57-0.04-1.15-0.04-1.72c0-0.73,0-1.47,0.07-2.2
					c0.04-0.43,0.04-0.86,0.05-1.29c0.01-0.29,0.02-0.57,0.05-0.86c0.03-0.29,0.03-0.57,0.04-0.86c0.01-0.27,0.01-0.54,0.06-0.81
					c0.02-0.09,0.02-0.19,0.02-0.29c0-0.43,0.01-0.86,0.01-1.29c0-0.37,0.01-0.73,0.01-1.1c0-0.14,0-0.29,0-0.43
					c-0.02-0.64,0-1.28,0.01-1.92c0.01-0.3,0-0.61,0-0.91c0-0.13,0.02-0.25,0.11-0.38c0.18-0.07,0.38-0.1,0.58-0.13
					c0.11-0.02,0.22-0.02,0.33-0.02c0.21,0,0.41-0.02,0.62-0.04c0.25-0.03,0.51-0.03,0.76,0c0.17,0.02,0.35,0.03,0.52,0.04
					c0.4,0.02,0.8,0.06,1.19,0.1c0.4,0.04,0.72,0.23,0.98,0.54c0.42,0.5,0.6,1.09,0.62,1.72c0.02,0.53-0.01,1.05-0.02,1.58
					c-0.09,0.6-0.06,1.21-0.11,1.81c-0.03,0.4-0.07,0.8-0.17,1.18c-0.09,0.34-0.21,0.67-0.4,0.97c-0.1,0.15-0.22,0.27-0.38,0.35
					c-0.19,0.1-0.38,0.16-0.59,0.16c-0.27,0.01-0.54,0.01-0.81,0.02c-0.11,0-0.22,0-0.34,0.01c-0.17,0.02-0.35,0.02-0.52,0
					c-0.16-0.02-0.32,0-0.48,0c-0.08,0-0.16,0.08-0.17,0.15c-0.01,0.03-0.01,0.06-0.01,0.09c-0.04,0.61-0.09,1.21-0.11,1.81
					c-0.02,0.56-0.01,1.12-0.02,1.68c0,0.34-0.01,0.67-0.05,1c-0.04,0.35-0.06,0.7-0.02,1.05c0.01,0.08-0.01,0.16-0.03,0.24
					c-0.01,0.03-0.03,0.06-0.06,0.07c-0.06,0.03-0.12,0.05-0.18,0.06c-0.4,0.07-0.79,0.07-1.19,0.04
					C101.84,261.81,101.75,261.77,101.68,261.7z M104.16,253.57c0.23-0.06,0.47-0.06,0.7-0.06c0.11,0,0.22,0,0.33,0.01
					c0.05,0,0.1,0,0.14,0c0.07,0,0.16-0.07,0.18-0.14c0.06-0.17,0.07-0.34,0.08-0.52c0.01-0.33,0-0.67,0.04-1
					c0.06-0.57,0.08-1.14,0.08-1.72c0-0.28-0.06-0.54-0.17-0.79c-0.04-0.09-0.11-0.16-0.21-0.18c-0.11-0.03-0.22-0.06-0.33-0.07
					c-0.32-0.02-0.64,0.01-0.95,0.07c-0.08,0.02-0.14,0.08-0.16,0.16c-0.01,0.05-0.02,0.09-0.02,0.14
					c-0.01,0.27-0.02,0.54-0.02,0.81c-0.01,0.48-0.01,0.96-0.06,1.43c-0.06,0.52-0.04,1.05-0.03,1.58c0,0.06,0.02,0.12,0.08,0.19
					C103.93,253.51,104.04,253.54,104.16,253.57z"/>
			</g>
			<g>
				<path class="st0" d="M80.77,227.15c0.09-0.07,0.2-0.1,0.31-0.1c0.45,0,0.9-0.08,1.35-0.07c0.09,0,0.19-0.01,0.28-0.02
					c0.32-0.04,0.64-0.04,0.95-0.02c0.26,0.02,0.52,0.04,0.78,0.06c0.27,0.03,0.51,0.1,0.71,0.26c0.21,0.16,0.42,0.32,0.63,0.48
					c0.07,0.05,0.13,0.12,0.18,0.18c0.14,0.19,0.28,0.38,0.42,0.57c0.04,0.05,0.08,0.11,0.1,0.17c0.2,0.51,0.41,1.03,0.45,1.58
					c0.03,0.33,0.06,0.67,0.03,1c-0.01,0.08-0.01,0.16,0,0.24c0.04,0.45,0.02,0.9-0.01,1.34c-0.04,0.54-0.04,1.08-0.05,1.63
					c0,0.13-0.02,0.26-0.02,0.38c0,0.11-0.01,0.22,0.01,0.33c0.03,0.18,0.02,0.35,0,0.53c-0.06,0.53-0.04,1.05-0.02,1.58
					c0.02,0.5,0.01,0.99-0.09,1.48c-0.02,0.08-0.03,0.16-0.04,0.24c-0.02,0.29-0.11,0.57-0.2,0.84c-0.09,0.31-0.26,0.6-0.49,0.86
					c-0.18,0.2-0.36,0.41-0.58,0.58c-0.25,0.19-0.52,0.31-0.82,0.4c-0.39,0.12-0.79,0.21-1.21,0.21c-0.15,0-0.3,0.01-0.45,0.01
					c-0.21,0-0.41,0.01-0.61,0.05c-0.17,0.03-0.34,0.04-0.5,0.06c-0.3,0.04-0.6,0.01-0.89-0.04c-0.14-0.02-0.23-0.1-0.26-0.22
					c-0.04-0.14-0.05-0.29-0.02-0.43c0.08-0.38,0.04-0.76,0.03-1.15c0-0.06-0.02-0.13-0.01-0.19c0.06-0.38,0.03-0.76,0.03-1.15
					c0-0.4,0.02-0.8,0.02-1.2c0-0.93-0.01-1.85-0.02-2.78c0-0.22,0.01-0.45,0.01-0.67c0-0.11,0.01-0.23,0-0.34
					c-0.07-0.57-0.01-1.15,0.02-1.72c0.02-0.32,0.01-0.64,0-0.96c-0.01-0.43-0.03-0.86-0.04-1.29c0-0.08,0.01-0.16,0.01-0.24
					c0-0.08,0.01-0.16,0-0.24c-0.04-0.21-0.03-0.41-0.01-0.62c0.02-0.12-0.01-0.25-0.03-0.38c-0.04-0.29-0.04-0.57-0.04-0.86
					C80.69,227.39,80.69,227.26,80.77,227.15z M84.64,235.45c0.02-0.42,0.04-0.82,0.05-1.22c0.01-0.45-0.01-0.89,0.01-1.34
					c0.03-0.66-0.04-1.31-0.1-1.96c-0.03-0.37-0.09-0.73-0.11-1.1c-0.01-0.26-0.1-0.5-0.19-0.75c-0.05-0.12-0.12-0.23-0.22-0.33
					c-0.13-0.13-0.3-0.2-0.49-0.19c-0.19,0.01-0.37,0.04-0.55,0.06c-0.03,0-0.1,0.07-0.1,0.1c-0.01,0.08-0.03,0.16-0.02,0.24
					c0.01,0.21,0.03,0.41,0.05,0.62c0.01,0.16,0.03,0.32,0.04,0.48c0.01,0.33,0.02,0.67,0.03,1c0.01,0.48,0.01,0.96,0.01,1.44
					c-0.01,0.33-0.02,0.67-0.06,1c-0.04,0.29-0.06,0.57-0.06,0.86c0,0.33,0.01,0.67,0,1c0,0.45,0.02,0.89-0.03,1.34
					c-0.02,0.21-0.02,0.42,0,0.62c0.03,0.35,0.02,0.7,0.01,1.05c0,0.4-0.01,0.8-0.01,1.2c0,0.58-0.01,0.53,0.65,0.58
					c0.06,0,0.11,0.01,0.17,0c0.07-0.01,0.16-0.02,0.21-0.06c0.28-0.17,0.49-0.39,0.6-0.68c0.09-0.23,0.1-0.47,0.1-0.71
					C84.62,237.62,84.63,236.52,84.64,235.45z"/>
				<path class="st0" d="M94.18,236.35c0.07,0.4,0.2,0.78,0.34,1.15c0.28,0.77,0.53,1.54,0.79,2.31c0.2,0.6,0.44,1.19,0.7,1.77
					c0.03,0.06,0.06,0.12,0.08,0.18c0.03,0.07-0.04,0.19-0.13,0.19c-0.54,0.02-1.07,0.08-1.61,0.05c-0.14-0.01-0.26-0.04-0.39-0.15
					c-0.08-0.21-0.2-0.43-0.27-0.67c-0.17-0.52-0.37-1.03-0.54-1.55c-0.14-0.43-0.25-0.86-0.37-1.29c-0.17-0.59-0.41-1.16-0.64-1.73
					c-0.01-0.03-0.03-0.06-0.05-0.09c-0.04-0.06-0.1-0.1-0.18-0.12c-0.33-0.06-0.65-0.05-0.97,0.04c-0.06,0.02-0.14,0.1-0.14,0.14
					c0,0.06,0,0.13,0,0.2c0.01,0.69,0.02,1.38,0.02,2.07c0,0.28-0.01,0.56-0.02,0.83c0,0.43-0.01,0.85,0,1.28
					c0,0.15,0.03,0.29,0.05,0.44c0.01,0.07,0.02,0.13,0.01,0.2c-0.01,0.16-0.11,0.28-0.27,0.35c-0.11,0.05-0.22,0.06-0.34,0.06
					c-0.1,0-0.19,0-0.29-0.02c-0.27-0.05-0.53-0.05-0.8-0.01c-0.09,0.01-0.19,0.01-0.29,0.01c-0.13,0-0.23-0.06-0.24-0.17
					c0-0.08-0.01-0.16-0.01-0.25c0.02-0.52,0.01-1.05,0-1.57c0-0.56,0.01-1.11,0.02-1.67c0-0.07,0.01-0.13,0-0.2
					c-0.06-0.61-0.02-1.21,0.02-1.82c0.01-0.13,0.02-0.26,0-0.39c-0.03-0.24,0.01-0.49-0.03-0.73c-0.02-0.08,0-0.16,0.01-0.25
					c0.07-0.37,0.07-0.75,0.08-1.13c0.02-0.49,0.01-0.98,0.07-1.47c0.01-0.06,0.01-0.13,0-0.2c-0.09-0.51-0.06-1.01-0.05-1.52
					c0-0.21,0-0.43,0-0.64c0-0.07-0.01-0.13,0-0.2c0.05-0.41,0-0.82-0.01-1.23c-0.01-0.34-0.01-0.69-0.01-1.03
					c0-0.1,0.06-0.19,0.12-0.27c0.04-0.06,0.11-0.1,0.18-0.11c0.25-0.01,0.5-0.02,0.75-0.01c0.21,0,0.42,0,0.63-0.04
					c0.32-0.06,0.65-0.03,0.98-0.04c0.29,0,0.58,0.02,0.87,0.02c0.57,0.01,1.1,0.15,1.61,0.35c0.32,0.13,0.57,0.34,0.75,0.59
					c0.2,0.28,0.38,0.57,0.47,0.89c0.06,0.21,0.14,0.41,0.19,0.62c0.09,0.34,0.13,0.68,0.11,1.02c-0.02,0.39,0.02,0.79,0.07,1.18
					c0.05,0.43,0.06,0.85,0,1.28c-0.06,0.41-0.11,0.81-0.16,1.22c-0.02,0.15-0.02,0.29-0.07,0.44c-0.05,0.14-0.06,0.29-0.12,0.43
					c-0.09,0.2-0.2,0.39-0.31,0.58c-0.1,0.16-0.23,0.3-0.42,0.4C94.31,236.14,94.23,236.21,94.18,236.35z M91.05,231.44
					C91.03,232.02,91,232.51,91,233c0,0.33,0.02,0.66,0.03,0.98c0,0.08,0.02,0.16,0.05,0.24c0.02,0.06,0.08,0.11,0.16,0.13
					c0.36,0.07,0.73,0.07,1.09,0.06c0.15-0.01,0.31-0.03,0.45-0.08c0.33-0.1,0.56-0.31,0.59-0.61c0.04-0.36,0.1-0.72,0.03-1.08
					c-0.02-0.11,0-0.23,0-0.34c0.02-0.31,0.06-0.62,0.01-0.93c-0.01-0.03-0.01-0.07,0-0.1c0.06-0.2,0.02-0.39,0-0.59
					c-0.01-0.13-0.01-0.26-0.02-0.39c-0.01-0.28-0.06-0.55-0.13-0.83c-0.03-0.1-0.07-0.19-0.15-0.26c-0.17-0.16-0.35-0.3-0.57-0.41
					c-0.21-0.1-0.43-0.15-0.66-0.13c-0.21,0.01-0.42,0.05-0.63,0.09c-0.1,0.02-0.16,0.09-0.18,0.17c-0.02,0.08-0.03,0.16-0.03,0.24
					c-0.01,0.3-0.01,0.59,0,0.89C91.03,230.54,91.04,231.03,91.05,231.44z"/>
				<path class="st0" d="M97.63,227.11c0.12-0.03,0.23-0.06,0.3-0.08c0.42,0.03,0.81,0.06,1.19,0.08c0.14,0.01,0.27,0.02,0.4,0.07
					c0.11,0.04,0.19,0.11,0.22,0.21c0.01,0.02,0.01,0.03,0.01,0.05c0.03,0.44,0.11,0.88,0.09,1.33c-0.01,0.25,0,0.49,0,0.74
					c0,0.16,0,0.33-0.02,0.49c-0.04,0.28-0.05,0.56-0.05,0.84c0,0.76-0.01,1.51-0.01,2.27c0,0.43,0,0.86,0,1.28
					c-0.01,0.61,0.01,1.22-0.05,1.83c-0.06,0.56-0.06,1.12-0.08,1.68c-0.02,0.46-0.03,0.92-0.08,1.38
					c-0.03,0.36-0.02,0.72-0.01,1.09c0,0.35-0.02,0.69,0.06,1.03c0.02,0.1,0.01,0.2,0.01,0.3c0,0.05-0.02,0.1-0.03,0.15
					c-0.03,0.12-0.15,0.21-0.28,0.22c-0.06,0.01-0.12,0.01-0.17,0.01c-0.44-0.02-0.89,0.02-1.33,0.02c-0.08,0-0.15-0.01-0.23-0.02
					c-0.06-0.01-0.15-0.08-0.15-0.13c0.01-0.36-0.09-0.72-0.01-1.08c0.03-0.13,0.03-0.26,0.03-0.39c0-0.82,0-1.65,0-2.47
					c0-0.56,0-1.12,0.05-1.68c0.02-0.21,0.01-0.43,0-0.64c-0.02-0.43-0.03-0.86-0.03-1.28c-0.01-0.39-0.01-0.79-0.02-1.18
					c0-0.13-0.01-0.26,0-0.39c0.03-0.48,0-0.96,0.05-1.43c0.01-0.07,0.01-0.13,0-0.2c-0.02-0.28-0.02-0.56,0.05-0.83
					c0.04-0.19,0.02-0.39,0.02-0.59c0-0.72-0.01-1.45-0.01-2.17c0-0.1,0-0.2,0.01-0.3C97.56,227.23,97.6,227.18,97.63,227.11z"/>
				<path class="st0" d="M107.76,234.75c0.03-0.02,0.07-0.04,0.08-0.06c0.02-0.04,0.04-0.1,0.04-0.14c0.01-0.27,0.03-0.54,0.02-0.81
					c-0.01-0.4-0.01-0.8-0.06-1.21c-0.03-0.25-0.02-0.5-0.04-0.75c-0.01-0.18-0.04-0.37-0.06-0.55c-0.01-0.1-0.02-0.2-0.03-0.3
					c-0.03-0.7-0.08-1.41-0.08-2.11c0-0.44-0.04-0.87-0.04-1.31c0-0.05,0.01-0.1,0.02-0.15c0.02-0.07,0.07-0.12,0.14-0.15
					c0.05-0.02,0.11-0.05,0.16-0.05c0.31-0.03,0.62-0.09,0.94-0.09c0.28,0,0.55-0.01,0.83-0.01c0.16,0,0.31,0.01,0.46,0.08
					c0.08,0.03,0.12,0.08,0.13,0.15c0.01,0.05,0.01,0.1,0.01,0.15c-0.01,0.65,0.01,1.31,0.05,1.96c0.03,0.48,0.06,0.97-0.03,1.46
					c-0.03,0.15-0.03,0.3-0.03,0.45c0,0.55,0,1.11,0,1.66c0,0.08,0,0.17,0.01,0.25c0.07,0.53,0.02,1.07,0.02,1.61
					c-0.01,0.67-0.01,1.34-0.01,2.01c0,0.1,0.01,0.2,0.03,0.3c0.14,0.99,0.21,1.97,0.16,2.96c-0.02,0.42,0.01,0.84,0.02,1.26
					c0,0.13,0.02,0.27,0.01,0.4c0,0.17-0.05,0.28-0.3,0.3c-0.12,0.01-0.23,0.04-0.35,0.05c-0.08,0.01-0.16,0-0.24,0
					c-0.45-0.03-0.9,0.01-1.35-0.06c-0.04-0.01-0.07-0.02-0.14-0.04c-0.05-0.07-0.13-0.15-0.17-0.24c-0.35-0.77-0.66-1.54-0.98-2.32
					c-0.11-0.27-0.24-0.53-0.35-0.8c-0.28-0.65-0.56-1.29-0.83-1.94c-0.18-0.43-0.36-0.85-0.56-1.27c-0.15-0.31-0.29-0.62-0.42-0.94
					c-0.1-0.25-0.18-0.51-0.38-0.73c-0.03-0.03-0.07-0.04-0.11-0.02c-0.01,0.01-0.03,0.02-0.03,0.04c-0.01,0.03-0.03,0.06-0.03,0.1
					c-0.01,0.52-0.03,1.04-0.03,1.56c0,0.57,0.04,1.14,0.06,1.71c0.03,0.96,0.08,1.91,0.06,2.87c-0.01,0.35,0,0.71,0.02,1.06
					c0,0.12,0.04,0.23,0.05,0.35c0.01,0.13,0.02,0.27,0.02,0.4c0,0.05-0.09,0.13-0.15,0.14c-0.04,0.01-0.08,0.02-0.11,0.03
					c-0.22,0.01-0.43,0.04-0.65,0.03c-0.34-0.01-0.67,0-1,0.02c-0.15,0.01-0.32,0.03-0.46-0.05c-0.15-0.15-0.19-0.33-0.19-0.52
					c0-0.44-0.01-0.87-0.01-1.31c-0.01-0.7,0-1.41-0.05-2.11c-0.04-0.55-0.05-1.11-0.06-1.66c-0.01-0.3-0.03-0.6-0.06-0.9
					c-0.03-0.28-0.03-0.57-0.04-0.86c-0.01-0.54-0.01-1.07,0-1.61c0-0.52,0.02-1.04,0-1.56c-0.03-0.69-0.03-1.38-0.04-2.07
					c-0.01-0.45-0.01-0.91-0.05-1.36c-0.02-0.18-0.02-0.37,0.07-0.55c0.05-0.1,0.13-0.17,0.26-0.18c0.23-0.03,0.47-0.05,0.7-0.07
					c0.26-0.02,0.51-0.03,0.77-0.03c0.18,0,0.35,0,0.53,0.02c0.12,0.01,0.22,0.07,0.27,0.17c0.08,0.17,0.16,0.34,0.23,0.52
					c0.3,0.71,0.6,1.42,0.92,2.12c0.26,0.58,0.55,1.15,0.83,1.72c0.23,0.48,0.47,0.96,0.71,1.44c0.05,0.09,0.1,0.18,0.15,0.27
					c0.11,0.21,0.24,0.42,0.33,0.65C107.47,234.41,107.57,234.54,107.76,234.75z"/>
				<path class="st0" d="M112.53,227.3c0.14-0.16,0.3-0.23,0.5-0.22c0.37,0.01,0.75,0.02,1.12,0.04c0.17,0.01,0.33,0.05,0.48,0.1
					c0.07,0.05,0.11,0.1,0.11,0.16c0,0.14,0.01,0.29-0.01,0.43c-0.04,0.49-0.03,0.99-0.02,1.48c0.01,0.54,0.01,1.09,0.01,1.63
					c0,0.14-0.01,0.29,0,0.43c0,0.05,0.02,0.09,0.04,0.14c0.02-0.01,0.05,0,0.06-0.01c0.05-0.07,0.11-0.13,0.14-0.2
					c0.19-0.38,0.37-0.77,0.55-1.15c0.12-0.25,0.22-0.51,0.37-0.75c0.03-0.04,0.05-0.08,0.07-0.13c0.23-0.54,0.56-1.05,0.83-1.57
					c0.02-0.04,0.06-0.08,0.07-0.13c0.13-0.34,0.16-0.38,0.65-0.38c0.13,0,0.27,0,0.39-0.02c0.39-0.08,0.78-0.05,1.17-0.01
					c0.09,0.01,0.19,0.02,0.28,0.03c0.06,0.01,0.14,0.08,0.14,0.13c-0.01,0.08,0,0.16-0.04,0.24c-0.21,0.44-0.36,0.91-0.6,1.34
					c-0.22,0.39-0.42,0.78-0.61,1.18c-0.2,0.43-0.45,0.84-0.67,1.27c-0.08,0.15-0.16,0.29-0.23,0.44c-0.13,0.26-0.24,0.54-0.41,0.79
					c-0.04,0.05-0.06,0.12-0.09,0.18c-0.3,0.64-0.6,1.27-0.87,1.85c-0.02,0.14,0,0.22,0.04,0.29c0.16,0.29,0.33,0.57,0.5,0.86
					c0.04,0.07,0.1,0.14,0.14,0.21c0.23,0.43,0.52,0.85,0.76,1.28c0.28,0.51,0.58,1,0.96,1.46c0.22,0.26,0.39,0.54,0.55,0.83
					c0.13,0.23,0.28,0.45,0.43,0.67c0.32,0.45,0.63,0.91,0.94,1.36c0.06,0.09-0.01,0.24-0.13,0.27c-0.2,0.05-0.4,0.1-0.61,0.07
					c-0.34-0.05-0.67-0.03-1.01-0.03c-0.17,0-0.34,0-0.5-0.04c-0.09-0.02-0.17-0.06-0.23-0.13c-0.03-0.04-0.06-0.08-0.09-0.12
					c-0.41-0.59-0.82-1.18-1.2-1.79c-0.18-0.28-0.38-0.55-0.57-0.82c-0.37-0.53-0.75-1.07-1.12-1.6c-0.06-0.08-0.11-0.17-0.21-0.22
					c-0.02-0.01-0.04-0.02-0.05-0.01c-0.03,0.01-0.08,0.03-0.08,0.05c-0.03,0.24-0.07,0.48-0.07,0.71c0,0.57-0.02,1.15,0.01,1.72
					c0.01,0.24-0.02,0.48-0.02,0.72c-0.01,0.32-0.01,0.64-0.02,0.96c0,0.08-0.01,0.16-0.03,0.24c-0.01,0.04-0.06,0.09-0.1,0.1
					c-0.09,0.03-0.18,0.05-0.27,0.05c-0.52,0-1.05-0.01-1.57-0.02c-0.05,0-0.09-0.05-0.15-0.08c0-0.11,0-0.22,0-0.34
					c0.01-0.43-0.07-0.86-0.09-1.29c-0.01-0.13-0.02-0.26,0-0.38c0.08-0.4,0.06-0.8,0.08-1.19c0.01-0.19,0.01-0.38,0.01-0.57
					c0-0.06,0-0.13,0.02-0.19c0.06-0.27,0.05-0.54,0.02-0.81c-0.01-0.09-0.02-0.19,0-0.29c0.09-0.4,0.06-0.79,0.06-1.19
					c0-0.35,0.01-0.7,0.01-1.05c0-0.18,0.01-0.35,0.05-0.52c0.03-0.12,0.03-0.25,0.03-0.38c0.01-1.31,0.06-2.62,0.01-3.93
					c-0.01-0.18,0.01-0.35,0.01-0.53c0.01-0.43,0.04-0.86,0-1.29C112.5,227.51,112.53,227.39,112.53,227.3z"/>
			</g>
		</g>
		<g>
			<g>
				<path class="st0" d="M252.93,247.21c0.04,0.1,0.08,0.18,0.09,0.25c0.03,0.19,0.06,0.38,0.06,0.57c0,0.29,0.01,0.58-0.05,0.86
					c-0.01,0.03-0.04,0.05-0.07,0.09c-0.1,0.01-0.21,0.02-0.32,0.02c-0.37,0-0.73,0.01-1.1,0c-0.46-0.01-0.92,0.06-1.38,0.1
					c-0.03,0-0.06,0.02-0.09,0.03c-0.06,0.02-0.15,0.11-0.15,0.17c-0.01,0.06-0.01,0.13-0.01,0.19c-0.01,0.69-0.03,1.37-0.03,2.06
					c0,0.45,0.02,0.89,0.03,1.34c0,0.08,0.01,0.16,0.02,0.24c0.01,0.06,0.1,0.15,0.16,0.16c0.05,0.01,0.09,0.02,0.14,0.02
					c0.27,0,0.54,0.01,0.81,0c0.34-0.01,0.67,0.01,1.01,0.03c0.12,0.01,0.21,0.09,0.22,0.21c0,0.02,0.01,0.03,0.01,0.05
					c0.01,0.46,0.05,0.92,0.02,1.39c0,0.05-0.01,0.1-0.03,0.14c-0.02,0.04-0.06,0.08-0.1,0.09c-0.06,0.02-0.13,0.02-0.19,0.02
					c-0.49,0.01-0.99,0.01-1.48,0.02c-0.14,0-0.29,0.03-0.43,0.05c-0.09,0.01-0.18,0.1-0.19,0.2c-0.01,0.08-0.02,0.16-0.02,0.24
					c0,0.34-0.03,0.67-0.05,1c-0.03,0.44-0.03,0.89-0.03,1.34c0,0.77,0,1.53,0,2.3c0,0.4,0,0.8,0,1.2c0,0.1,0,0.19-0.01,0.29
					c-0.01,0.06-0.04,0.12-0.1,0.16c-0.09,0.06-0.2,0.1-0.31,0.1c-0.24,0-0.48,0.02-0.72,0.02c-0.18,0-0.35-0.01-0.53-0.01
					c-0.1,0-0.18-0.08-0.19-0.18c-0.02-0.09-0.03-0.19-0.03-0.28c-0.01-0.19-0.01-0.38,0-0.57c0.01-0.18,0.04-0.35,0.04-0.52
					c0-0.18-0.04-0.35-0.02-0.53c0.01-0.16,0-0.32,0.02-0.48c0.02-0.19,0.01-0.38,0-0.57c-0.02-0.29-0.06-0.57-0.03-0.86
					c0.01-0.08-0.01-0.16-0.01-0.24c-0.04-0.77-0.02-1.53-0.01-2.3c0.01-0.59,0.03-1.18,0.01-1.77c-0.01-0.37-0.01-0.73,0.01-1.1
					c0.01-0.14,0-0.29,0-0.43c0-0.06-0.01-0.13,0-0.19c0.09-0.35,0.02-0.7,0.05-1.05c0.01-0.16-0.02-0.32-0.02-0.48
					c0-0.03-0.02-0.07-0.01-0.09c0.07-0.27,0-0.54-0.02-0.81c-0.01-0.1-0.01-0.19-0.01-0.29c0.01-0.48,0.01-0.96,0.02-1.44
					c0-0.11,0.03-0.22,0.03-0.33c0.01-0.22,0.12-0.28,0.3-0.31c0.28-0.05,0.57-0.11,0.85-0.1c0.38,0,0.77,0,1.15,0
					c0.43,0,0.86-0.01,1.29-0.01c0.32,0,0.64,0.01,0.96,0.01C252.64,247.18,252.76,247.19,252.93,247.21z"/>
				<path class="st0" d="M254.79,247.29c0.35-0.14,0.69-0.2,1.05-0.19c0.25,0.01,0.51-0.01,0.77,0c0.09,0,0.19,0.01,0.29,0.03
					c0.06,0.01,0.12,0.03,0.18,0.06c0.04,0.02,0.08,0.05,0.12,0.08c0.11,0.25,0.16,0.52,0.22,0.78c0.11,0.45,0.21,0.9,0.37,1.34
					c0.07,0.2,0.09,0.4,0.14,0.61c0.11,0.5,0.2,1,0.28,1.51c0.06,0.38,0.12,0.76,0.21,1.13c0.11,0.48,0.19,0.97,0.25,1.46
					c0.01,0.09,0.02,0.19,0.04,0.28c0.14,0.61,0.25,1.22,0.36,1.83c0.01,0.06,0.03,0.12,0.05,0.19c0.06,0.22,0.13,0.43,0.13,0.65
					c0.1,0.34,0.13,0.69,0.21,1.03c0.01,0.06,0.04,0.12,0.05,0.19c0.01,0.31,0.11,0.6,0.13,0.9c0,0.05,0.01,0.1,0.02,0.14
					c0.14,0.7,0.28,1.41,0.43,2.11c0.03,0.15,0.08,0.31,0.11,0.45c-0.04,0.1-0.1,0.15-0.19,0.16c-0.38,0.02-0.76,0.05-1.15,0.06
					c-0.13,0-0.25-0.03-0.35-0.04c-0.1-0.06-0.15-0.13-0.16-0.21c-0.1-0.42-0.28-0.82-0.34-1.25c-0.17-0.57-0.28-1.15-0.38-1.73
					c-0.02-0.11-0.05-0.22-0.09-0.32c-0.06-0.17-0.12-0.33-0.15-0.5c-0.02-0.1-0.11-0.18-0.2-0.18c-0.48-0.02-0.96-0.03-1.44,0
					c-0.08,0.01-0.16,0.03-0.23,0.05c-0.08,0.02-0.14,0.08-0.16,0.16c-0.09,0.52-0.21,1.03-0.25,1.56c-0.05,0.67-0.1,1.34-0.18,2
					c-0.01,0.06-0.03,0.12-0.06,0.18c-0.03,0.06-0.08,0.1-0.14,0.12c-0.01,0.01-0.03,0.01-0.05,0.01c-0.3,0.03-0.6,0.08-0.91,0.04
					c-0.19-0.02-0.38-0.03-0.57-0.04c-0.13-0.01-0.23-0.12-0.24-0.26c-0.01-0.05-0.02-0.1-0.01-0.14c0.04-0.24-0.01-0.48,0.06-0.71
					c0.01-0.03,0.01-0.06,0.01-0.09c0-0.43,0.06-0.86,0.11-1.29c0.02-0.16,0.04-0.32,0.05-0.47c0.01-0.13,0.03-0.25,0.03-0.38
					c0.01-0.21,0.01-0.42,0.06-0.62c0.02-0.08,0.02-0.16,0.02-0.24c0.02-0.32,0.04-0.64,0.1-0.95c0.05-0.25,0.06-0.51,0.09-0.76
					c0.05-0.43,0.12-0.85,0.18-1.28c0.01-0.06,0.02-0.13,0.02-0.19c0.05-0.59,0.13-1.18,0.26-1.75c0.02-0.09,0.03-0.19,0.04-0.28
					c0.02-0.41,0.09-0.82,0.17-1.23c0.01-0.05,0.02-0.09,0.02-0.14c0.03-0.4,0.07-0.8,0.1-1.19c0.02-0.24,0.05-0.48,0.09-0.71
					C254.48,248.6,254.59,247.95,254.79,247.29z M256.13,252.71c-0.1,0.22-0.13,0.4-0.16,0.59c-0.05,0.33-0.11,0.66-0.18,0.99
					c-0.09,0.39-0.17,0.78-0.24,1.17c-0.03,0.17-0.02,0.26,0.22,0.24c0.27-0.01,0.54-0.01,0.81-0.01c0.06,0,0.13,0,0.19-0.01
					c0.09-0.01,0.18-0.11,0.17-0.2c-0.01-0.06-0.01-0.13-0.03-0.19c-0.12-0.44-0.3-0.88-0.37-1.33c0-0.01-0.01-0.03-0.02-0.04
					c-0.05-0.18-0.1-0.37-0.15-0.55C256.3,253.15,256.27,252.93,256.13,252.71z"/>
				<path class="st0" d="M265.26,251.86c-0.06-0.43-0.11-0.9-0.08-1.36c0.01-0.12,0-0.23-0.01-0.35c-0.01-0.22-0.07-0.43-0.18-0.62
					c-0.19-0.34-0.47-0.55-0.88-0.55c-0.17,0-0.33,0.02-0.51,0.08c-0.21,0.14-0.36,0.36-0.46,0.61c-0.12,0.3-0.18,0.61-0.15,0.93
					c0.04,0.47,0.17,0.91,0.41,1.32c0.14,0.24,0.26,0.5,0.38,0.75c0.17,0.34,0.36,0.68,0.55,1.01c0.35,0.6,0.71,1.2,1.09,1.78
					c0.18,0.28,0.33,0.57,0.48,0.87c0.08,0.16,0.17,0.32,0.26,0.48c0.11,0.2,0.2,0.42,0.27,0.64c0.16,0.46,0.24,0.93,0.27,1.41
					c0.04,0.52-0.03,1.03-0.27,1.5c-0.05,0.1-0.1,0.21-0.14,0.32c-0.09,0.2-0.21,0.37-0.36,0.53c-0.24,0.26-0.52,0.46-0.85,0.58
					c-0.33,0.11-0.66,0.22-1.01,0.26c-0.35,0.04-0.69,0.09-1.04,0.07c-0.12-0.01-0.23-0.03-0.35-0.04c-0.1-0.01-0.2-0.05-0.29-0.05
					c-0.31,0-0.59-0.13-0.84-0.28c-0.46-0.27-0.58-0.33-0.8-0.96c-0.05-0.16-0.08-0.32-0.08-0.49c0-0.2-0.02-0.4-0.06-0.59
					c-0.03-0.14-0.04-0.3-0.04-0.44c0-0.46,0.01-0.93,0.02-1.39c0-0.02,0-0.03,0-0.05c0.01-0.14,0.15-0.29,0.3-0.29
					c0.28,0,0.56-0.02,0.84-0.04c0.23-0.02,0.46,0.03,0.69,0.05c0.05,0,0.12,0.09,0.13,0.14c0.01,0.1,0.02,0.2,0.01,0.3
					c-0.02,0.46-0.04,0.93-0.02,1.39c0,0.07,0,0.13,0,0.2c0.01,0.06,0.02,0.13,0.04,0.19c0.17,0.38,0.62,0.71,1.15,0.52
					c0.3-0.11,0.5-0.31,0.62-0.61c0.11-0.28,0.14-0.58,0.17-0.88c0.01-0.05,0.01-0.1-0.01-0.15c-0.07-0.22-0.03-0.46-0.12-0.68
					c-0.11-0.28-0.23-0.55-0.37-0.81c-0.14-0.26-0.29-0.52-0.43-0.78c-0.02-0.03-0.03-0.06-0.05-0.09c-0.71-1.37-0.85-1.58-1.63-2.9
					c-0.07-0.11-0.13-0.23-0.18-0.35c-0.05-0.1-0.1-0.21-0.15-0.32c-0.24-0.51-0.41-1.05-0.53-1.6c-0.07-0.34-0.1-0.69-0.16-1.03
					c-0.02-0.12-0.01-0.23,0.02-0.35c0.02-0.08,0.04-0.16,0.06-0.24c0.06-0.29,0.18-0.57,0.35-0.82c0.06-0.08,0.11-0.17,0.16-0.25
					c0.11-0.21,0.27-0.38,0.44-0.53c0.12-0.11,0.26-0.21,0.39-0.31c0.17-0.14,0.37-0.23,0.58-0.28c0.59-0.13,1.18-0.17,1.78-0.03
					c0.18,0.04,0.35,0.1,0.51,0.19c0.29,0.16,0.57,0.33,0.86,0.51c0.39,0.24,0.6,0.61,0.69,1.05c0.09,0.47,0.17,0.95,0.28,1.42
					c0.01,0.03,0.02,0.06,0.02,0.1c0,0.23,0.04,0.46,0.09,0.69c0.03,0.17,0.01,0.33-0.05,0.49c-0.05,0.14-0.14,0.23-0.29,0.24
					c-0.28,0.02-0.56,0.07-0.84,0.02c-0.16-0.03-0.33,0-0.5,0C265.37,251.98,265.3,251.95,265.26,251.86z"/>
				<path class="st0" d="M267.3,249.21c-0.02-0.07-0.04-0.13-0.05-0.19c-0.01-0.18-0.01-0.36-0.04-0.54
					c-0.05-0.38-0.01-0.52,0.2-0.96c0.05-0.01,0.11-0.04,0.17-0.05c0.65-0.03,1.3-0.12,1.95-0.11c0.37-0.05,0.75,0,1.12-0.06
					c0.14-0.02,0.29,0,0.44,0.01c0.1,0,0.2,0.03,0.29,0.02c0.23-0.02,0.45-0.05,0.68,0c0.05,0.01,0.1,0,0.15-0.01
					c0.6-0.08,1.2-0.06,1.8-0.06c0.12,0,0.22,0.04,0.31,0.11c0.07,0.06,0.1,0.14,0.11,0.21c0.05,0.27,0.13,0.53,0.08,0.82
					c-0.03,0.21-0.03,0.42-0.04,0.63c-0.01,0.1-0.08,0.17-0.19,0.2c-0.14,0.04-0.29,0.05-0.43,0.05c-0.62,0.01-1.24,0.02-1.86,0.04
					c-0.06,0-0.13,0.02-0.19,0.04c-0.05,0.02-0.08,0.05-0.09,0.11c-0.01,0.06-0.01,0.13-0.01,0.19c0.03,0.55,0.06,1.11,0.09,1.66
					c0,0.05,0,0.1-0.01,0.15c-0.04,0.65-0.04,1.3,0,1.95c0.01,0.15-0.01,0.29-0.02,0.44c-0.01,0.55-0.03,1.11-0.04,1.66
					c0,0.21,0,0.42,0.01,0.64c0.01,0.8,0.02,1.6,0.03,2.39c0,0.1,0,0.2,0.01,0.29c0.05,0.5,0.07,1.01,0.06,1.51
					c0,0.31,0.02,0.62,0.06,0.93c0.02,0.18,0.02,0.36,0.02,0.54c0,0.09-0.09,0.19-0.18,0.2c-0.11,0.01-0.23,0.02-0.34,0.02
					c-0.28,0-0.55,0-0.83,0.05c-0.17,0.03-0.36,0.01-0.54,0.01c-0.05,0-0.13-0.08-0.13-0.13c-0.01-0.36-0.02-0.72-0.03-1.07
					c0-0.18-0.01-0.36-0.03-0.54c-0.04-0.34-0.03-0.68-0.01-1.02c0.04-0.55,0.05-1.1,0-1.66c-0.03-0.36-0.03-0.72-0.03-1.07
					c0-0.29,0.01-0.59,0.01-0.88c0-0.24,0.01-0.49,0.04-0.73c0.03-0.21,0.02-0.42,0.02-0.63c-0.01-0.29-0.02-0.58-0.05-0.88
					c-0.04-0.34-0.02-0.68-0.03-1.02c0-0.54,0-1.08,0-1.61c0-0.21,0-0.42,0.01-0.64c0.01-0.26,0.01-0.52-0.03-0.78
					c-0.01-0.07-0.06-0.11-0.12-0.14c-0.08-0.03-0.16-0.06-0.24-0.04c-0.52,0.1-1.04,0.05-1.56,0.06c-0.13,0-0.26-0.01-0.39-0.03
					C267.43,249.27,267.37,249.24,267.3,249.21z"/>
			</g>
			<g>
				<path class="st0" d="M253.25,227.24c0.02,0.08,0.04,0.16,0.04,0.24c0.01,0.15,0.01,0.29,0.01,0.44c0,0.39,0,0.79,0,1.18
					c0,0.1-0.01,0.2,0.01,0.29c0.08,0.49,0.04,0.98,0.05,1.47c0.01,1.03,0.02,2.07,0.02,3.1c0,0.47-0.01,0.95-0.02,1.43
					c-0.01,0.36-0.01,0.72-0.02,1.08c-0.01,0.23-0.02,0.46-0.02,0.69c-0.01,0.59-0.02,1.18-0.03,1.77c0,0.18,0,0.36,0,0.54
					c0,0.05,0.01,0.1,0.01,0.15c0.01,0.1,0.09,0.18,0.18,0.2c0.23,0.04,0.46,0.06,0.69,0.02c0.31-0.06,0.61-0.05,0.91-0.01
					c0.11,0.01,0.21,0,0.32,0c0.06,0,0.12-0.01,0.18-0.01c0.33,0,0.4,0.07,0.43,0.42c0.01,0.15,0.01,0.29,0.01,0.44
					c0,0.07-0.02,0.13-0.01,0.2c0.04,0.31-0.01,0.62-0.08,0.92c-0.06,0.11-0.15,0.16-0.26,0.17c-0.11,0.01-0.21,0.02-0.32,0.02
					c-0.18,0-0.37,0.02-0.55,0.05c-0.26,0.04-0.52,0.03-0.78,0.01c-0.08-0.01-0.15,0-0.23,0c-0.12,0-0.25,0.01-0.37-0.01
					c-0.38-0.06-0.76-0.07-1.14-0.08c-0.14,0-0.27-0.02-0.41-0.05c-0.19-0.04-0.24-0.12-0.3-0.33c-0.01-0.05-0.01-0.1-0.02-0.15
					c-0.01-0.08,0-0.16-0.02-0.25c-0.07-0.45-0.06-0.91-0.07-1.37c-0.02-0.46-0.01-0.92-0.01-1.38c0-0.08,0.01-0.17,0-0.25
					c-0.03-0.49,0.02-0.98,0.04-1.47c0.02-0.33,0.04-0.65,0.03-0.98c-0.01-0.47,0-0.95,0.01-1.43c0.01-0.33,0.01-0.65,0-0.98
					c-0.01-0.71-0.02-1.41-0.02-2.12c0-0.31-0.01-0.62-0.01-0.93c0-0.08,0-0.16-0.01-0.25c-0.09-0.8-0.06-1.6-0.06-2.41
					c0-0.06,0.01-0.13,0.01-0.2c0.02-0.14,0.14-0.27,0.27-0.29c0.01,0,0.03,0,0.05-0.01c0.43-0.03,0.86-0.03,1.28,0.02
					C253.13,227.17,253.19,227.21,253.25,227.24z"/>
				<path class="st0" d="M256.81,227.11c0.1-0.03,0.18-0.06,0.24-0.08c0.34,0.03,0.64,0.06,0.95,0.08c0.11,0.01,0.21,0.02,0.31,0.07
					c0.09,0.04,0.15,0.11,0.18,0.21c0,0.02,0.01,0.03,0.01,0.05c0.02,0.44,0.09,0.88,0.07,1.33c-0.01,0.25,0,0.49,0,0.74
					c0,0.16,0,0.33-0.02,0.49c-0.04,0.28-0.04,0.56-0.04,0.84c0,0.76-0.01,1.51-0.01,2.27c0,0.43,0,0.86,0,1.28
					c0,0.61,0.01,1.22-0.04,1.83c-0.04,0.56-0.05,1.12-0.06,1.68c-0.01,0.46-0.03,0.92-0.06,1.38c-0.03,0.36-0.01,0.72-0.01,1.09
					c0,0.35-0.01,0.69,0.05,1.03c0.02,0.1,0.01,0.2,0.01,0.3c0,0.05-0.01,0.1-0.02,0.15c-0.02,0.12-0.12,0.21-0.22,0.22
					c-0.05,0.01-0.09,0.01-0.14,0.01c-0.35-0.02-0.71,0.02-1.06,0.02c-0.06,0-0.12-0.01-0.18-0.02c-0.05-0.01-0.12-0.08-0.12-0.13
					c0.01-0.36-0.07-0.72-0.01-1.08c0.02-0.13,0.02-0.26,0.02-0.39c0-0.82,0-1.65,0-2.47c0-0.56,0-1.12,0.04-1.68
					c0.01-0.21,0.01-0.43,0-0.64c-0.02-0.43-0.02-0.86-0.03-1.28c-0.01-0.39-0.01-0.79-0.02-1.18c0-0.13-0.01-0.26,0-0.39
					c0.02-0.48,0-0.96,0.04-1.43c0.01-0.07,0.01-0.13,0-0.2c-0.02-0.28-0.01-0.56,0.04-0.83c0.03-0.19,0.02-0.39,0.02-0.59
					c0-0.72,0-1.45-0.01-2.17c0-0.1,0-0.2,0.01-0.3C256.76,227.23,256.79,227.18,256.81,227.11z"/>
				<path class="st0" d="M260.24,227.14c0.3-0.05,0.55,0.02,0.81,0.02c0.11,0,0.2,0.09,0.23,0.21c0.04,0.14,0.07,0.29,0.1,0.43
					c0.09,0.6,0.24,1.19,0.32,1.79c0.03,0.24,0.09,0.48,0.13,0.73c0.05,0.31,0.1,0.61,0.13,0.92c0.02,0.24,0.06,0.49,0.12,0.73
					c0.08,0.33,0.15,0.67,0.21,1.01c0.05,0.24,0.12,0.48,0.16,0.72c0.01,0.1,0.05,0.19,0.09,0.28c0.01,0.03,0.04,0.05,0.06,0.06
					c0.03,0.01,0.06-0.01,0.07-0.04c0.12-0.24,0.15-0.5,0.21-0.75c0.04-0.19,0.07-0.39,0.11-0.58c0.11-0.58,0.22-1.16,0.33-1.74
					c0.01-0.05,0.01-0.1,0.02-0.15c0.04-0.42,0.08-0.85,0.13-1.27c0.01-0.11,0.03-0.23,0.04-0.34c0.04-0.36,0.09-0.72,0.12-1.08
					c0.02-0.28,0.08-0.55,0.13-0.83c0.01-0.07,0.06-0.11,0.13-0.13c0.04-0.01,0.09-0.02,0.14-0.02c0.45,0.03,0.89-0.01,1.33-0.05
					c0.05,0,0.09,0,0.14,0c0.07,0,0.15,0.07,0.15,0.15c0.02,0.23,0.01,0.46-0.03,0.69c-0.07,0.39-0.13,0.77-0.16,1.17
					c-0.03,0.33-0.08,0.65-0.12,0.98c-0.04,0.33-0.05,0.65-0.1,0.98c-0.05,0.31-0.08,0.62-0.12,0.93c-0.01,0.08-0.02,0.16-0.02,0.25
					c-0.01,0.15-0.02,0.29-0.05,0.44c-0.02,0.09-0.03,0.19-0.03,0.29c-0.01,0.18-0.02,0.36-0.06,0.54c-0.01,0.05-0.02,0.1-0.02,0.15
					c-0.03,0.72-0.17,1.43-0.25,2.15c-0.01,0.05-0.02,0.1-0.02,0.15c0,0.4-0.07,0.78-0.11,1.18c-0.03,0.33-0.09,0.65-0.13,0.97
					c-0.06,0.44-0.1,0.88-0.22,1.31c-0.01,0.03-0.02,0.06-0.02,0.1c-0.01,0.43-0.11,0.84-0.17,1.27c-0.02,0.15-0.02,0.29-0.02,0.44
					c0,0.12-0.02,0.23-0.06,0.34c-0.04,0.1-0.1,0.16-0.2,0.18c-0.01,0-0.03,0.01-0.04,0.01c-0.52,0.03-1.04,0.06-1.56,0.08
					c-0.05,0-0.09,0-0.14-0.01c-0.08-0.02-0.15-0.06-0.17-0.15c-0.04-0.12-0.07-0.25-0.09-0.38c-0.04-0.23-0.07-0.45-0.1-0.68
					c-0.04-0.37-0.1-0.75-0.19-1.11c-0.09-0.37-0.13-0.74-0.2-1.11c-0.11-0.58-0.21-1.16-0.31-1.74c-0.01-0.08-0.03-0.16-0.04-0.24
					c-0.04-0.54-0.14-1.07-0.25-1.6c-0.02-0.11-0.03-0.23-0.05-0.34c-0.03-0.21-0.05-0.42-0.08-0.63c-0.03-0.21-0.07-0.42-0.09-0.63
					c-0.03-0.26-0.08-0.52-0.12-0.78c-0.07-0.39-0.1-0.78-0.22-1.16c-0.07-0.61-0.23-1.19-0.37-1.78c-0.05-0.19-0.08-0.38-0.11-0.58
					c-0.05-0.41-0.13-0.81-0.23-1.21c-0.03-0.11-0.04-0.22-0.04-0.34c0-0.08,0.06-0.15,0.14-0.17c0.17-0.04,0.34-0.03,0.5-0.02
					C260.06,227.12,260.17,227.13,260.24,227.14z"/>
				<path class="st0" d="M266.75,241.85c-0.01-0.07-0.03-0.17-0.05-0.26c-0.01-0.09-0.03-0.19-0.03-0.28
					c0.01-0.23-0.02-0.45-0.02-0.67c-0.01-0.37-0.01-0.73-0.02-1.1c0-0.1,0-0.19,0-0.29c0-0.32-0.05-0.63-0.02-0.95
					c0.03-0.3,0.01-0.61,0.02-0.91c0-0.32,0.01-0.64,0.02-0.96c0.01-0.14,0.03-0.29,0.03-0.43c0.01-0.22,0.04-0.45,0.02-0.67
					c-0.05-0.51-0.03-1.02-0.05-1.53c0-0.09,0-0.19,0-0.29c0.07-0.91,0.08-1.82,0.08-2.73c0-0.33-0.01-0.67-0.01-1
					c0-0.08,0-0.16-0.01-0.24c-0.06-0.72-0.05-1.43-0.08-2.15c0-0.03,0.01-0.06,0.01-0.11c0.03-0.02,0.06-0.06,0.1-0.08
					c0.07-0.03,0.14-0.05,0.22-0.06c0.18-0.02,0.36-0.04,0.54-0.04c0.36,0.01,0.72,0,1.07,0.06c0.06,0.01,0.12,0.02,0.18,0.02
					c0.21-0.01,0.41-0.04,0.62,0c0.22,0.04,0.45,0.02,0.67,0.03c0.21,0.01,0.42,0.01,0.63,0.01c0.01,0,0.03,0,0.04,0
					c0.08,0.01,0.18,0.09,0.19,0.17c0.01,0.06,0.02,0.13,0.02,0.19c0.01,0.33,0.01,0.67,0.02,1.01c0,0.06-0.01,0.13-0.01,0.19
					c-0.01,0.12-0.09,0.21-0.2,0.21c-0.25,0-0.51,0.01-0.76,0.01c-0.34,0-0.69,0-1.03,0c-0.07,0-0.15,0.02-0.22,0.03
					c-0.05,0.01-0.12,0.07-0.12,0.12c-0.01,0.08-0.02,0.16-0.02,0.24c0,0.4,0,0.8,0,1.2c0,0.32,0,0.64,0,0.96
					c0,0.05,0.01,0.1,0,0.14c-0.06,0.4,0.02,0.79,0.04,1.19c0.01,0.16,0.05,0.31,0.08,0.47c0.05,0.02,0.09,0.05,0.13,0.05
					c0.06,0.01,0.12,0,0.18-0.01c0.4-0.07,0.8-0.03,1.21-0.05c0.04,0,0.12,0.07,0.13,0.12c0.01,0.03,0.02,0.06,0.02,0.09
					c0.03,0.49,0.03,0.99,0.02,1.48c0,0.03,0,0.07-0.02,0.09c-0.02,0.04-0.06,0.07-0.09,0.09c-0.04,0.02-0.09,0.03-0.13,0.03
					c-0.28,0.01-0.56,0.09-0.85,0.02c-0.21,0.03-0.42,0.02-0.63,0.09c-0.12,0.17-0.15,0.37-0.13,0.58c0.01,0.16,0.03,0.32,0.03,0.48
					c0.01,0.41,0.01,0.83,0.01,1.24c0,0.51-0.01,1.02-0.01,1.53c0,0.14,0.02,0.29,0.03,0.43c0,0.03,0.02,0.06,0.04,0.1
					c0.03,0.01,0.07,0.04,0.11,0.04c0.12,0.01,0.24,0.03,0.35,0.02c0.24-0.02,0.48-0.02,0.72-0.01c0.18,0.01,0.36,0,0.54-0.01
					c0.07,0,0.15,0,0.22,0.01c0.04,0.01,0.09,0.03,0.12,0.05c0.03,0.01,0.04,0.04,0.08,0.07c0.05,0.16,0.05,0.33,0.07,0.51
					c0.02,0.19,0.04,0.38,0.04,0.57c0,0.21-0.02,0.41-0.03,0.62c-0.01,0.17-0.1,0.26-0.26,0.27c-0.36,0-0.72,0.01-1.07,0.01
					c-0.52,0-1.04-0.01-1.56,0.03c-0.09,0.01-0.18,0.02-0.27,0.01c-0.25-0.04-0.51-0.02-0.76,0
					C266.87,241.92,266.82,241.91,266.75,241.85z"/>
			</g>
		</g>
		<g>
			<path class="st0" d="M36.28,166.49c-0.27-1.31-0.24-2.54,0.07-3.77c0.22-0.87,0.36-1.77,0.55-2.65c0.07-0.33,0.18-0.65,0.31-0.97
				c0.08-0.21,0.21-0.4,0.35-0.58c0.1-0.13,0.26-0.23,0.4-0.35c1-0.19,2.03-0.13,3.05-0.15c1.75-0.04,3.49-0.02,5.23-0.21
				c0.77-0.08,1.57,0,2.35,0.01c1.93,0.02,3.86,0.1,5.79,0.24c1.44,0.1,2.89,0.17,4.34,0.17c1.87,0,3.74,0.11,5.6,0.3
				c0.36,0.04,0.72,0.08,1.08,0.07c2.35-0.01,4.7,0.1,7.05,0.23c0.24,0.01,0.48,0,0.72-0.01c0.84-0.03,1.68-0.1,2.53,0.06
				c1.32-0.06,2.65,0.11,3.98,0.1c0.24,0,0.49-0.06,0.72-0.01c1.14,0.22,2.29,0.09,3.43,0.27c0.18,0.03,0.36,0.05,0.54,0.05
				c2.71,0.07,5.43,0.15,8.14,0.21c0.6,0.01,1.2-0.02,1.73-0.02c0.33,0.22,0.48,0.47,0.44,0.77c-0.19,1.34-0.39,2.68-0.62,4.01
				c-0.08,0.44-0.29,0.85-0.41,1.17c-0.3,0.3-0.59,0.41-0.89,0.41c-1.63,0-3.23,0.3-4.87,0.18c-2.23,0.13-4.46,0.06-6.69-0.06
				c-0.42-0.02-0.85-0.01-1.26,0.04c-0.66,0.08-1.31,0.13-1.98,0.12c-0.4-0.01-0.73,0.22-0.81,0.54c-0.43,1.64-0.83,3.28-1.06,4.97
				c-0.04,0.28-0.02,0.56,0.01,0.85c0.02,0.3,0.18,0.56,0.48,0.68c1.85,0.73,3.66,1.54,5.59,2.09c2.44,0.7,4.88,1.4,7.28,2.23
				c0.22,0.08,0.43,0.22,0.62,0.35c0.2,0.14,0.32,0.34,0.36,0.57c0.01,0.06,0.02,0.11,0.02,0.17c-0.11,1.06-0.16,2.14-0.52,3.16
				c-0.23,0.64-0.38,1.3-0.58,1.95c-0.13,0.43-0.62,0.7-1.13,0.63c-0.18-0.02-0.37-0.02-0.54-0.09c-0.84-0.33-1.77-0.36-2.59-0.76
				c-0.11-0.05-0.22-0.09-0.34-0.12c-1.6-0.35-3.14-0.88-4.69-1.39c-0.57-0.19-1.14-0.38-1.72-0.57c-0.46-0.15-0.92-0.29-1.39-0.42
				c-0.76-0.2-1.53-0.37-2.25-0.7c-0.27-0.13-0.57-0.18-0.87-0.26c-1.17-0.31-2.33-0.64-3.45-1.1c-0.89-0.37-1.83-0.63-2.74-0.92
				c-1.56-0.5-3.07-1.1-4.61-1.64c-0.23-0.08-0.46-0.16-0.69-0.23c-2.15-0.64-4.26-1.38-6.3-2.28c-0.33-0.15-0.68-0.26-1.03-0.36
				c-1.52-0.42-2.99-0.96-4.43-1.57c-0.17-0.07-0.34-0.13-0.51-0.19c-1.45-0.43-2.9-0.86-4.35-1.28c-0.87-0.25-1.73-0.54-2.57-0.88
				C40.86,168.62,38.55,167.73,36.28,166.49z M57.31,166.18c0.73,0.51,1.39,0.77,2.07,1.03c1.18,0.44,2.37,0.89,3.51,1.42
				c1.37,0.63,2.75,1.2,4.15,1.76c0.59,0.24,0.93,0.29,1.07-0.58c0.15-0.94,0.38-1.88,0.57-2.81c0.04-0.22,0.09-0.44,0.11-0.66
				c0.04-0.33-0.27-0.7-0.61-0.73c-0.24-0.02-0.48-0.05-0.72-0.04c-1.74,0.08-3.46,0.32-5.21,0.22c-0.06,0-0.12,0.02-0.18,0.02
				c-0.72,0.03-1.44,0.05-2.16,0.09C59.09,165.94,58.24,165.9,57.31,166.18z"/>
			<path class="st0" d="M83.09,125.38c0.41-0.05,0.77-0.09,1.12-0.14c1.16-0.15,2.25,0.1,3.3,0.63c1.13,0.57,2.27,1.14,3.41,1.69
				c0.65,0.32,1.33,0.58,1.97,0.92c0.64,0.34,1.23,0.77,1.86,1.12c1.26,0.71,2.53,1.41,3.81,2.1c1.09,0.58,2.03,1.3,2.73,2.3
				c0.13,0.19,0.28,0.39,0.46,0.55c0.8,0.7,1.18,1.63,1.61,2.53c0.28,0.59,0.37,1.23,0.36,1.86c-0.02,1.72-0.23,3.41-0.75,5.04
				c-0.13,0.43-0.31,0.85-0.53,1.24c-0.53,0.93-1.06,1.86-1.67,2.74c-0.38,0.56-0.53,1.24-1.03,1.74c-0.35,0.36-0.66,0.77-1.03,1.12
				c-0.57,0.57-0.84,0.52-1.56,0.12c-1.75-0.97-3.48-1.94-5.23-2.92c-0.37-0.21-0.74-0.42-1.11-0.61c-0.97-0.5-1.95-0.97-2.91-1.48
				c-2.4-1.28-4.78-2.59-7.19-3.86c-1.82-0.96-3.66-1.87-5.5-2.78c-0.38-0.19-0.77-0.35-1.11-0.6c-0.19-0.14-0.41-0.27-0.63-0.36
				c-1.19-0.46-2.29-1.07-3.39-1.71c-0.16-0.09-0.35-0.13-0.48-0.24c-0.91-0.73-1.99-1.14-3.01-1.65c-2.27-1.13-4.54-2.26-6.81-3.41
				c-3.34-1.69-6.59-3.58-9.9-5.33c-0.21-0.11-0.43-0.23-0.61-0.38c-0.69-0.56-0.75-0.86-0.45-1.49c0.12-0.25,0.22-0.52,0.37-0.76
				c0.46-0.72,0.78-1.5,1.1-2.28c0.59-1.42,1.41-2.68,2.51-3.78c0.8-0.8,1.6-1.61,2.52-2.29c1.28-0.95,2.75-1.44,4.43-1.3
				c0.89,0.08,1.78,0.26,2.64,0.56c0.4,0.14,0.8,0.29,1.19,0.44c1.86,0.72,3.71,1.44,5.56,2.18c0.5,0.2,1,0.43,1.48,0.68
				c2.1,1.08,4.2,2.15,6.28,3.26c1.01,0.54,2.02,1.1,2.98,1.72c1.07,0.68,2.09,1.44,2.79,2.51
				C82.75,125.19,82.88,125.24,83.09,125.38z M69.18,123.85c-0.01,0.01-0.01,0.02-0.02,0.03c-1.68-0.83-3.37-1.64-5.04-2.48
				c-1.03-0.52-2.11-0.89-3.2-1.26c-1.25-0.43-2.35-0.16-3.2,0.78c-0.19,0.21-0.4,0.39-0.59,0.61c-0.11,0.13-0.18,0.29-0.25,0.43
				c-0.09,0.17,0.01,0.52,0.18,0.62c1.61,0.95,3.27,1.84,5,2.55c0.67,0.28,1.34,0.55,1.98,0.89c2.03,1.08,4.06,2.15,6.09,3.22
				c0.48,0.25,0.96,0.52,1.47,0.7c0.97,0.33,1.91,0.75,2.84,1.18c0.67,0.31,0.99,0.18,1.2-0.49c0.13-0.43,0.25-0.87,0.3-1.32
				c0.09-0.92-0.28-1.7-1.1-2.26c-0.3-0.2-0.62-0.37-0.94-0.55c-1.16-0.66-2.31-1.31-3.47-1.96
				C70.02,124.32,69.6,124.08,69.18,123.85z M91.23,140.47c0.31,0.19,0.62,0.37,0.93,0.55c1.1,0.63,2.25,1.16,3.41,1.66
				c0.11,0.05,0.41-0.03,0.48-0.12c0.3-0.35,0.49-0.76,0.61-1.19c0.23-0.87,0.06-1.7-0.53-2.45c-0.29-0.37-0.62-0.72-0.98-1.04
				c-0.63-0.55-1.31-1.05-2.04-1.47c-1.66-0.97-3.31-1.96-5-2.89c-1.02-0.56-2.07-0.94-3.21-1.13c-0.71-0.12-1.29,0.1-1.74,0.58
				c-0.43,0.45-0.72,1-0.93,1.59c-0.05,0.14,0.02,0.34,0.09,0.49c0.13,0.27,0.37,0.47,0.63,0.62c0.73,0.42,1.47,0.83,2.21,1.24
				c0.47,0.27,0.97,0.49,1.42,0.8C88.07,138.73,89.65,139.6,91.23,140.47z"/>
			<path class="st0" d="M113.3,127.05c-0.24-0.16-0.55-0.34-0.83-0.55c-0.29-0.21-0.6-0.41-0.85-0.67c-0.59-0.62-1.28-1.11-1.9-1.67
				c-1.03-0.93-2.05-1.88-3.07-2.82c-0.27-0.25-0.53-0.5-0.8-0.74c-0.89-0.81-1.87-1.52-2.67-2.43c-0.75-0.86-1.64-1.6-2.46-2.4
				c-0.86-0.85-1.73-1.69-2.58-2.56c-0.38-0.39-0.72-0.82-1.09-1.21c-0.58-0.61-1.13-1.27-1.79-1.79c-1.52-1.2-2.88-2.58-4.34-3.85
				c-0.27-0.24-0.54-0.49-0.78-0.76c-2.3-2.57-4.78-4.96-7.29-7.32c-0.93-0.87-1.87-1.72-2.8-2.58c-0.22-0.2-0.44-0.42-0.67-0.6
				c-2.14-1.69-4.07-3.61-6.14-5.37c-0.09-0.07-0.15-0.19-0.26-0.31c0.01-0.14-0.02-0.32,0.04-0.47c0.11-0.26,0.24-0.52,0.41-0.74
				c0.41-0.54,0.82-1.09,1.29-1.57c0.95-0.96,1.87-1.96,2.94-2.79c0.18-0.14,0.36-0.28,0.51-0.45c0.51-0.59,0.96-1.23,1.61-1.71
				c0.68-0.49,1.23-1.16,1.82-1.76c0.56-0.56,1.1-1.13,1.65-1.7c0.04-0.04,0.09-0.07,0.13-0.11c0.24-0.22,0.71-0.26,0.98-0.07
				c0.2,0.14,0.4,0.27,0.58,0.44c0.94,0.85,1.88,1.71,2.81,2.57c0.18,0.16,0.33,0.35,0.49,0.53c0.3,0.33,0.33,0.81,0.06,1.11
				c-0.65,0.71-1.3,1.4-1.96,2.1c-0.89,0.94-1.78,1.88-2.67,2.83c-0.19,0.21-0.34,0.45-0.5,0.68c-0.11,0.16-0.1,0.51,0.03,0.66
				c0.2,0.23,0.39,0.46,0.6,0.67c1.1,1.04,2.2,2.08,3.3,3.11c0.88,0.83,1.77,1.65,2.65,2.48c0.13,0.12,0.29,0.23,0.4,0.37
				c0.94,1.21,2.24,2.01,3.39,2.99c0.45,0.39,0.99,0.67,1.49,1.01c0.19-0.08,0.37-0.12,0.49-0.22c0.17-0.14,0.32-0.32,0.44-0.51
				c0.86-1.27,2-2.29,3.01-3.43c0.11-0.12,0.49-0.15,0.66-0.06c0.1,0.06,0.22,0.09,0.31,0.17c1.45,1.19,2.79,2.5,4.14,3.8
				c0.08,0.08,0.18,0.19,0.2,0.29c0.04,0.16,0.06,0.35,0.02,0.49c-0.04,0.16-0.15,0.31-0.26,0.43c-0.71,0.79-1.23,1.77-2.13,2.39
				c-0.44,0.65-1.02,1.2-1.39,1.96c0.15,0.78,0.64,1.37,1.25,1.88c0.46,0.39,0.95,0.75,1.39,1.16c1.16,1.06,2.3,2.14,3.44,3.22
				c1.4,1.33,2.78,2.68,4.19,4c0.39,0.37,0.83,0.7,1.25,1.04c0.09,0.07,0.21,0.09,0.37,0.15c0.12-0.06,0.28-0.1,0.41-0.2
				c0.34-0.29,0.71-0.57,0.98-0.92c0.56-0.71,1.19-1.35,1.83-1.99c0.48-0.47,0.92-0.99,1.38-1.49c0.19-0.2,0.38-0.42,0.6-0.6
				c0.13-0.1,0.29-0.17,0.45-0.22c0.11-0.03,0.23-0.02,0.39-0.03c0.56,0.28,1.06,0.72,1.58,1.13c0.57,0.45,1.15,0.89,1.68,1.38
				c0.57,0.54,1.1,1.12,1.62,1.7c0.43,0.48,0.45,0.97,0.05,1.41c-0.91,0.99-1.84,1.98-2.77,2.96c-1.36,1.43-2.74,2.83-3.98,4.37
				c-0.21,0.26-0.41,0.55-0.68,0.75c-0.77,0.6-1.36,1.34-1.98,2.07C113.81,126.9,113.63,127.02,113.3,127.05z"/>
			<path class="st0" d="M135.53,83.55c0.92,1.21,1.96,2.27,3,3.32c2.14,2.14,4.22,4.33,6.31,6.52c1.63,1.7,3.34,3.29,5.09,4.83
				c0.19,0.16,0.37,0.32,0.55,0.49c0.22,0.21,0.23,0.68,0,0.81c-1.38,0.84-2.68,1.82-4.16,2.5c-0.38,0.18-0.77,0.24-1.3,0.06
				c-0.6-0.56-1.3-1.13-1.94-1.81c-1.4-1.48-2.87-2.89-4.27-4.37c-1.14-1.21-2.22-2.49-3.34-3.73c-1.53-1.71-3.21-3.25-4.85-4.82
				c-0.09-0.08-0.19-0.15-0.3-0.22c-0.21-0.14-0.44-0.2-0.67-0.13c-0.96,0.29-1.8,0.79-2.48,1.53c-0.12,0.13-0.19,0.53-0.11,0.69
				c0.11,0.22,0.23,0.44,0.35,0.66c1.28,2.27,2.57,4.54,3.84,6.82c0.51,0.92,0.99,1.87,1.49,2.79c0.77,1.42,1.54,2.84,2.34,4.24
				c0.27,0.48,0.62,0.93,0.93,1.39c0.14,0.21,0.28,0.41,0.39,0.63c0.29,0.55,0.23,1.07-0.08,1.55c-0.19,0.3-0.46,0.53-0.77,0.7
				c-0.25,0.14-0.51,0.27-0.79,0.35c-0.8,0.23-1.49,0.63-2.13,1.14c-0.23,0.18-0.49,0.32-0.73,0.46c-0.35,0.21-0.73,0.12-0.93-0.21
				c-0.16-0.26-0.32-0.53-0.46-0.81c-0.91-1.77-1.9-3.48-2.88-5.22c-1.03-1.84-2.02-3.71-3.02-5.56c-0.12-0.22-0.21-0.45-0.35-0.66
				c-1.26-1.93-2.26-3.99-3.27-6.06c-0.22-0.44-0.43-0.9-0.71-1.31c-0.53-0.76-0.86-1.65-1.43-2.38c-0.19-0.24-0.31-0.54-0.41-0.83
				c-0.5-1.34-1.19-2.59-1.84-3.86c-0.85-1.66-1.79-3.27-2.51-4.98c-0.1-0.23-0.21-0.46-0.36-0.65c-1.17-1.55-2.01-3.28-2.91-4.98
				c-0.38-0.71-0.78-1.41-1.16-2.12c-0.12-0.22-0.26-0.43-0.36-0.65c-0.63-1.42-1.49-2.71-2.28-4.05c-0.66-1.12-1.29-2.27-1.92-3.41
				c-0.19-0.34-0.2-0.71-0.2-1.08c0-0.26,0.1-0.5,0.29-0.62c0.63-0.4,1.28-0.79,1.94-1.14c0.57-0.29,1.11-0.61,1.59-1.05
				c0.73-0.67,1.66-1.06,2.51-1.55c0.75-0.43,1.55-0.78,2.32-1.19c1.51-0.81,3.17-1.09,4.88-1.17c1.09-0.05,2.11,0.29,3.07,0.86
				c1.04,0.63,2.04,1.34,2.87,2.28c0.53,0.6,1.12,1.16,1.64,1.77c0.85,0.99,1.58,2.06,2.18,3.23c0.67,1.33,1.5,2.57,2.34,3.8
				c0.92,1.34,1.71,2.73,2.32,4.24c0.58,1.44,1.21,2.86,1.82,4.28c0.22,0.51,0.48,1,0.6,1.56c0.12,0.54,0.37,1.06,0.47,1.6
				c0.13,0.78,0.2,1.58,0.26,2.38c0.05,0.68-0.06,1.34-0.36,1.93C135.48,82.67,135.4,83.01,135.53,83.55z M118.29,71.82
				c1.01,1.94,1.84,3.61,2.72,5.25c0.59,1.09,1.24,2.15,1.88,3.22c0.16,0.26,0.35,0.51,0.56,0.74c0.17,0.18,0.42,0.27,0.66,0.21
				c1.08-0.28,2.05-0.82,2.98-1.39c0.39-0.24,0.75-0.56,1.04-0.92c0.68-0.83,0.89-1.85,0.43-2.89c-0.56-1.24-1.05-2.52-1.9-3.62
				c-0.26-0.34-0.43-0.75-0.63-1.14c-0.53-1.05-0.98-2.15-1.68-3.11c-0.07-0.1-0.14-0.21-0.17-0.33c-0.2-0.74-0.67-1.32-1.08-1.94
				c-0.27-0.41-0.52-0.85-0.77-1.28c-0.53-0.92-1.16-1.76-1.86-2.55c-0.25-0.29-0.54-0.51-0.88-0.65c-0.73-0.29-1.48-0.49-2.26-0.52
				c-0.73-0.03-1.41,0.14-2,0.52c-0.53,0.34-1.01,0.77-1.49,1.2c-0.23,0.2-0.26,0.53-0.16,0.84c0.1,0.29,0.21,0.59,0.36,0.86
				c0.53,0.99,1.06,1.96,1.61,2.94C116.59,68.87,117.52,70.49,118.29,71.82z"/>
			<path class="st0" d="M172.35,73.71c0.42,1.46,1,2.83,1.59,4.18c1.22,2.77,2.36,5.57,3.52,8.36c0.9,2.17,1.92,4.27,2.99,6.35
				c0.11,0.22,0.23,0.44,0.34,0.66c0.13,0.27-0.03,0.71-0.29,0.76c-1.59,0.28-3.16,0.72-4.78,0.83c-0.42,0.03-0.81-0.05-1.23-0.41
				c-0.35-0.73-0.8-1.53-1.15-2.39c-0.76-1.89-1.63-3.73-2.39-5.62c-0.63-1.54-1.17-3.12-1.76-4.69c-0.8-2.15-1.81-4.19-2.77-6.26
				c-0.05-0.11-0.13-0.21-0.2-0.31c-0.15-0.21-0.34-0.35-0.58-0.37c-1-0.08-1.96,0.08-2.87,0.53c-0.16,0.08-0.37,0.42-0.35,0.6
				c0.02,0.25,0.05,0.49,0.09,0.74c0.37,2.58,0.75,5.16,1.11,7.75c0.15,1.05,0.24,2.1,0.38,3.14c0.2,1.6,0.41,3.2,0.64,4.8
				c0.08,0.55,0.24,1.09,0.36,1.63c0.05,0.24,0.11,0.49,0.14,0.73c0.07,0.62-0.17,1.08-0.64,1.42c-0.29,0.21-0.62,0.32-0.97,0.37
				c-0.29,0.04-0.58,0.07-0.87,0.04c-0.82-0.08-1.61,0.04-2.4,0.29c-0.28,0.08-0.57,0.12-0.85,0.17c-0.4,0.07-0.73-0.15-0.79-0.54
				c-0.05-0.31-0.11-0.61-0.14-0.92c-0.2-1.98-0.51-3.94-0.79-5.91c-0.3-2.09-0.54-4.19-0.8-6.28c-0.03-0.25-0.04-0.5-0.09-0.74
				c-0.47-2.26-0.66-4.54-0.85-6.83c-0.04-0.49-0.07-1-0.19-1.47c-0.22-0.9-0.21-1.85-0.47-2.74c-0.09-0.29-0.09-0.61-0.08-0.92
				c0.02-1.43-0.17-2.85-0.32-4.27c-0.19-1.85-0.48-3.69-0.54-5.56c-0.01-0.25-0.03-0.5-0.1-0.74c-0.53-1.86-0.68-3.78-0.9-5.7
				c-0.09-0.8-0.21-1.6-0.32-2.4c-0.03-0.25-0.09-0.49-0.1-0.74c-0.07-1.56-0.4-3.07-0.66-4.6c-0.21-1.29-0.38-2.58-0.56-3.87
				c-0.05-0.38,0.07-0.73,0.21-1.08c0.1-0.24,0.27-0.43,0.49-0.47c0.74-0.14,1.48-0.28,2.22-0.36c0.64-0.07,1.26-0.17,1.86-0.4
				c0.93-0.36,1.93-0.38,2.9-0.53c0.86-0.13,1.73-0.17,2.59-0.27c1.7-0.2,3.35,0.13,4.97,0.68c1.03,0.35,1.87,1.03,2.55,1.92
				c0.74,0.97,1.42,1.99,1.85,3.17c0.27,0.75,0.62,1.48,0.89,2.24c0.43,1.23,0.73,2.49,0.86,3.8c0.15,1.48,0.46,2.94,0.8,4.39
				c0.37,1.58,0.61,3.16,0.63,4.79c0.02,1.55,0.09,3.1,0.15,4.65c0.02,0.56,0.09,1.11,0,1.67c-0.08,0.55-0.04,1.12-0.14,1.66
				c-0.16,0.78-0.39,1.55-0.62,2.31c-0.2,0.65-0.54,1.23-1.04,1.67C172.62,72.87,172.42,73.16,172.35,73.71z M160.53,56.53
				c0.23,2.18,0.41,4.03,0.64,5.88c0.15,1.23,0.38,2.46,0.59,3.68c0.05,0.3,0.14,0.61,0.26,0.89c0.1,0.23,0.29,0.4,0.54,0.43
				c1.11,0.13,2.2-0.02,3.28-0.22c0.45-0.08,0.9-0.25,1.3-0.48c0.94-0.53,1.5-1.4,1.45-2.54c-0.07-1.36-0.06-2.73-0.45-4.06
				c-0.12-0.41-0.13-0.86-0.17-1.29c-0.11-1.17-0.13-2.36-0.44-3.51c-0.03-0.12-0.06-0.25-0.04-0.37c0.08-0.76-0.15-1.47-0.31-2.2
				c-0.1-0.48-0.17-0.98-0.25-1.47c-0.16-1.05-0.44-2.06-0.81-3.05c-0.13-0.36-0.31-0.67-0.58-0.92c-0.58-0.54-1.2-1-1.91-1.31
				c-0.67-0.29-1.36-0.38-2.05-0.24c-0.62,0.12-1.22,0.35-1.82,0.57c-0.29,0.11-0.44,0.4-0.45,0.73c-0.01,0.31-0.01,0.62,0.02,0.93
				c0.13,1.11,0.28,2.22,0.44,3.32C160.02,53.17,160.3,55.01,160.53,56.53z"/>
			<path class="st0" d="M207.44,41.65c1.32-0.22,2.55-0.15,3.76,0.22c0.86,0.26,1.75,0.43,2.63,0.65c0.33,0.09,0.65,0.2,0.95,0.34
				c0.2,0.09,0.39,0.23,0.57,0.37c0.13,0.11,0.22,0.26,0.34,0.41c0.15,1,0.05,2.03,0.03,3.05c-0.03,1.74-0.11,3.49,0.01,5.23
				c0.05,0.77-0.06,1.56-0.1,2.34c-0.09,1.93-0.25,3.85-0.46,5.77c-0.16,1.44-0.28,2.88-0.34,4.33c-0.07,1.87-0.25,3.73-0.51,5.58
				c-0.05,0.36-0.1,0.72-0.11,1.08c-0.08,2.35-0.27,4.69-0.49,7.04c-0.02,0.24-0.02,0.48-0.02,0.72c0,0.84,0.03,1.69-0.15,2.52
				c0.02,1.33-0.21,2.64-0.25,3.97c-0.01,0.24,0.04,0.49-0.02,0.72c-0.27,1.13-0.17,2.29-0.4,3.41c-0.04,0.18-0.06,0.36-0.07,0.54
				c-0.18,2.71-0.35,5.42-0.52,8.13c-0.04,0.6-0.03,1.2-0.04,1.73c-0.23,0.33-0.49,0.46-0.79,0.41c-1.33-0.25-2.66-0.49-3.99-0.78
				c-0.43-0.09-0.84-0.32-1.15-0.45c-0.29-0.31-0.38-0.61-0.37-0.9c0.07-1.63-0.18-3.24,0.01-4.87c-0.04-2.23,0.11-4.45,0.31-6.68
				c0.04-0.42,0.04-0.85,0.01-1.27c-0.06-0.66-0.09-1.31-0.04-1.98c0.03-0.4-0.2-0.73-0.51-0.83c-1.62-0.49-3.25-0.95-4.92-1.24
				c-0.27-0.05-0.56-0.04-0.84-0.03c-0.3,0.01-0.57,0.15-0.7,0.45c-0.8,1.82-1.67,3.6-2.3,5.5c-0.8,2.41-1.59,4.83-2.51,7.19
				c-0.08,0.22-0.23,0.42-0.37,0.61c-0.14,0.2-0.35,0.31-0.59,0.34c-0.06,0.01-0.11,0.02-0.17,0.01c-1.06-0.15-2.13-0.24-3.14-0.64
				c-0.63-0.25-1.28-0.43-1.92-0.65c-0.43-0.15-0.67-0.65-0.59-1.16c0.03-0.18,0.04-0.37,0.11-0.53c0.36-0.83,0.43-1.76,0.86-2.56
				c0.06-0.11,0.1-0.22,0.13-0.34c0.41-1.58,1-3.11,1.57-4.64c0.21-0.57,0.43-1.13,0.63-1.7c0.16-0.45,0.33-0.91,0.47-1.37
				c0.23-0.75,0.43-1.51,0.79-2.22c0.13-0.27,0.2-0.57,0.29-0.86c0.36-1.16,0.73-2.3,1.23-3.41c0.4-0.87,0.69-1.8,1.02-2.71
				c0.56-1.54,1.21-3.03,1.82-4.54c0.09-0.22,0.18-0.45,0.26-0.68c0.72-2.12,1.54-4.2,2.52-6.21c0.16-0.32,0.29-0.67,0.39-1.01
				c0.47-1.5,1.08-2.95,1.74-4.37c0.08-0.16,0.15-0.33,0.21-0.5c0.48-1.43,0.97-2.86,1.45-4.3c0.29-0.86,0.6-1.71,0.98-2.53
				C205.13,46.15,206.12,43.88,207.44,41.65z M206.94,62.68c-0.54,0.71-0.82,1.36-1.11,2.03c-0.49,1.16-0.98,2.33-1.55,3.46
				c-0.68,1.34-1.3,2.71-1.91,4.08c-0.26,0.58-0.32,0.92,0.54,1.09c0.94,0.19,1.86,0.45,2.79,0.68c0.22,0.05,0.44,0.1,0.66,0.14
				c0.33,0.05,0.71-0.24,0.76-0.58c0.03-0.24,0.07-0.48,0.07-0.72c-0.01-1.74-0.19-3.47-0.02-5.21c0-0.06-0.01-0.12-0.02-0.18
				c0-0.72,0-1.44-0.01-2.16C207.12,64.47,207.2,63.62,206.94,62.68z"/>
			<path class="st0" d="M239.34,60.26c0.09-0.25,0.14-0.49,0.26-0.7c0.34-0.59,0.7-1.16,1-1.77c0.64-1.3,1.05-1.68,2.56-2.65
				c0.17,0.05,0.41,0.07,0.6,0.18c2,1.14,4.09,2.11,6,3.4c1.21,0.55,2.23,1.43,3.45,1.95c0.47,0.2,0.86,0.57,1.28,0.87
				c0.28,0.2,0.52,0.47,0.82,0.62c0.72,0.36,1.44,0.71,2.02,1.3c0.11,0.12,0.29,0.18,0.45,0.25c1.94,0.91,3.69,2.12,5.48,3.27
				c0.36,0.23,0.57,0.56,0.7,0.95c0.08,0.31,0.01,0.62-0.1,0.9c-0.4,0.96-0.71,1.95-1.43,2.76c-0.53,0.59-0.95,1.29-1.43,1.93
				c-0.23,0.31-0.58,0.38-0.96,0.27c-0.51-0.14-0.95-0.4-1.39-0.67c-1.86-1.15-3.72-2.3-5.58-3.43c-0.19-0.12-0.42-0.2-0.64-0.25
				c-0.17-0.04-0.36,0.01-0.49,0.16c-0.15,0.19-0.3,0.38-0.42,0.59c-1.06,1.81-2.11,3.63-3.16,5.44c-0.09,0.16-0.21,0.31-0.32,0.46
				c-1.45,2-2.79,4.07-4.03,6.21c-0.28,0.47-0.64,0.9-0.95,1.36c-1.18,1.73-2.37,3.46-3.54,5.2c-0.45,0.67-0.87,1.35-1.29,2.03
				c-1.61,2.56-3.23,5.11-4.84,7.67c-0.2,0.31-0.39,0.63-0.56,0.96c-0.87,1.7-1.88,3.33-2.92,4.93c-0.64,0.98-1.22,2-1.74,3.05
				c-0.3,0.61-0.69,1.17-1.05,1.74c-0.19,0.3-0.67,0.44-0.96,0.29c-0.36-0.18-0.71-0.37-1.05-0.58c-0.83-0.52-1.63-1.06-2.56-1.43
				c-0.58-0.23-1.07-0.65-1.6-1c-0.16-0.1-0.22-0.49-0.12-0.66c0.71-1.16,1.41-2.32,2.13-3.46c0.36-0.57,0.71-1.15,1.02-1.76
				c0.58-1.16,1.3-2.23,2.09-3.27c1.27-1.67,2.41-3.42,3.42-5.27c0.65-1.19,1.4-2.33,2.12-3.47c0.6-0.94,1.23-1.85,1.84-2.78
				c0.51-0.77,1.02-1.54,1.62-2.24c0.52-0.61,0.94-1.3,1.35-1.99c0.57-0.95,1.14-1.9,1.65-2.89c0.58-1.15,1.33-2.22,2.03-3.31
				c1.1-1.72,2.2-3.43,3.31-5.13c0.44-0.67,0.89-1.34,1.35-1.99c0.57-0.81,1.09-1.64,1.5-2.54c0.11-0.24,0.05-0.47-0.07-0.68
				c-0.15-0.25-0.35-0.47-0.62-0.58c-1.73-0.69-3.18-1.85-4.74-2.82c-0.39-0.24-0.74-0.55-1.08-0.85
				C239.58,60.69,239.48,60.47,239.34,60.26z"/>
			<path class="st0" d="M281.66,84.18c0.34,0.19,0.64,0.36,0.85,0.47c0.76,1.02,1.45,1.96,2.15,2.88c0.25,0.33,0.47,0.66,0.59,1.06
				c0.11,0.36,0.06,0.7-0.16,1.03c-0.03,0.05-0.07,0.1-0.11,0.15c-1.2,1.17-2.27,2.48-3.58,3.55c-0.72,0.59-1.39,1.24-2.1,1.86
				c-0.47,0.41-0.93,0.84-1.44,1.19c-0.88,0.6-1.68,1.29-2.47,2c-2.15,1.9-4.31,3.79-6.46,5.69c-1.21,1.07-2.42,2.16-3.64,3.23
				c-1.74,1.52-3.43,3.09-5.27,4.49c-1.69,1.28-3.28,2.68-4.9,4.05c-1.34,1.12-2.67,2.25-4.06,3.3c-1.09,0.83-2.08,1.79-3.1,2.7
				c-0.97,0.87-1.99,1.7-2.8,2.74c-0.23,0.29-0.53,0.53-0.81,0.77c-0.14,0.12-0.31,0.21-0.47,0.3c-0.39,0.22-0.89,0.2-1.19-0.06
				c-0.13-0.11-0.27-0.22-0.38-0.36c-0.83-1.05-1.83-1.94-2.71-2.94c-0.15-0.17-0.28-0.37-0.41-0.56c-0.1-0.15-0.07-0.56,0.07-0.68
				c1.04-0.88,1.86-2.01,3.04-2.75c0.42-0.26,0.8-0.6,1.17-0.93c2.33-2.07,4.67-4.13,6.98-6.22c1.58-1.42,3.18-2.81,4.84-4.12
				c0.64-0.5,1.22-1.05,1.81-1.62c1.16-1.13,2.37-2.21,3.56-3.31c1.1-1.01,2.21-2.02,3.31-3.03c0.37-0.34,0.72-0.69,1.11-1
				c1.4-1.14,2.7-2.41,4.16-3.48c0.2-0.15,0.39-0.32,0.56-0.49c0.75-0.75,1.54-1.43,2.46-1.99c0.63-0.38,1.16-0.94,1.72-1.44
				c2.05-1.82,4.09-3.66,6.13-5.49c0.28-0.25,0.56-0.5,0.86-0.71C281.19,84.34,281.43,84.27,281.66,84.18z"/>
			<path class="st0" d="M296.86,138.46c-1.28,0.64-2.55,1.28-3.83,1.91c-0.33,0.16-0.68,0.31-1.02,0.46
				c-0.56,0.26-1.13,0.51-1.69,0.77c-1.35,0.63-2.69,1.28-4.03,1.92c-1.18,0.55-2.36,1.09-3.54,1.64c-1.12,0.53-2.22,1.12-3.39,1.52
				c-0.29,0.1-0.56,0.25-0.84,0.39c-1.28,0.64-2.55,1.28-3.82,1.92c-2.29,1.15-2.29,1.15-4.98,2.04c-0.41,0.13-0.82,0.3-1.22,0.45
				c-1.82,0.67-3.63,0.62-5.41,0.18c-0.76-0.19-1.45-0.56-2.05-1.03c-0.65-0.5-1.35-0.94-2.05-1.37c-0.41-0.25-0.74-0.56-1.02-0.94
				c-0.66-0.88-1.35-1.73-1.89-2.7c-0.36-0.66-0.63-1.36-0.89-2.06c-0.44-1.21-0.53-2.49-0.69-3.76c-0.1-0.81,0.01-1.64,0.32-2.44
				c0.92-2.41,2.39-4.47,4.51-6.09c0.79-0.6,1.63-1.13,2.44-1.69c2.41-1.65,5.02-2.96,7.6-4.32c0.33-0.17,0.66-0.37,1.01-0.48
				c1.36-0.45,2.6-1.16,3.88-1.8c1.16-0.58,2.34-1.14,3.57-1.57c0.58-0.2,1.14-0.49,1.7-0.75c1.92-0.87,3.85-1.71,5.82-2.46
				c0.35-0.13,0.7-0.27,1.02-0.44c1.99-1.03,4.15-1.62,6.23-2.42c1.2-0.27,2.4-0.57,3.61-0.79c0.86-0.15,1.7-0.04,2.53,0.2
				c1.8,0.52,3.49,1.23,5.02,2.26c0.29,0.2,0.57,0.42,0.79,0.69c0.75,0.89,1.39,1.86,1.94,2.88c0.14,0.25,0.26,0.52,0.33,0.8
				c0.15,0.56,0.39,1.08,0.61,1.62c0.43,1.03,0.55,2.13,0.54,3.25c0,1-0.19,1.99-0.32,2.99c-0.08,0.6-0.32,1.15-0.66,1.66
				c-0.82,1.22-1.82,2.3-2.92,3.29c-0.14,0.12-0.3,0.22-0.45,0.32C301.41,135.92,299.21,137.31,296.86,138.46z M271.41,131.07
				c-1.27,0.7-3.29,1.65-5.18,2.84c-1.37,0.86-2.57,1.9-3.76,2.97c-0.72,0.65-1.13,1.43-1.39,2.3c-0.14,0.47-0.16,0.93-0.02,1.39
				c0.31,1.05,0.68,2.09,1.2,3.06c0.47,0.87,1.21,1.39,2.22,1.57c0.72,0.13,1.44,0.17,2.18,0.02c0.85-0.17,1.68-0.35,2.51-0.62
				c1.3-0.43,2.53-1.02,3.72-1.68c2.45-1.35,5.04-2.36,7.61-3.45c1.03-0.43,2.05-0.88,3.07-1.32c1.03-0.43,2.06-0.85,3.08-1.29
				c1.54-0.65,3-1.46,4.47-2.27c1.96-1.07,3.93-2.1,5.87-3.21c0.97-0.56,1.86-1.23,2.76-1.88c0.64-0.46,0.99-1.08,1.11-1.81
				c0.07-0.41,0.08-0.82,0.15-1.22c0.18-1.04-0.12-1.98-0.61-2.84c-0.31-0.55-0.73-1.04-1.12-1.54c-0.22-0.28-0.52-0.47-0.88-0.56
				c-1-0.24-2.02-0.37-3.06-0.4c-0.67-0.02-1.34,0.08-1.99,0.33c-0.58,0.22-1.16,0.43-1.75,0.62c-1.94,0.64-3.83,1.41-5.71,2.21
				c-1.88,0.8-3.8,1.51-5.6,2.47c-0.27,0.14-0.57,0.26-0.86,0.34c-0.96,0.27-1.85,0.71-2.73,1.17
				C275.16,129.08,273.63,129.9,271.41,131.07z"/>
			<path class="st0" d="M294.17,180.02c0.09,0.08,0.16,0.2,0.27,0.22c0.18,0.04,0.37,0.06,0.56,0.04c1.01-0.11,2.03-0.2,3.03-0.35
				c1.51-0.23,3.01-0.45,4.5-0.79c0.93-0.21,1.88-0.32,2.82-0.5c0.69-0.13,1.36-0.31,2.04-0.46c0.37-0.08,0.74-0.17,1.12-0.23
				c2.63-0.45,5.25-0.96,7.9-1.33c1.64-0.23,3.25-0.58,4.88-0.81c0.19-0.03,0.38-0.03,0.57-0.01c0.26,0.03,0.48,0.15,0.63,0.35
				c0.11,0.14,0.23,0.29,0.27,0.46c0.25,0.91,0.6,1.8,0.71,2.75c0.1,0.82,0.26,1.64,0.39,2.46c0.08,0.47,0.07,0.94-0.09,1.41
				c-0.09,0.25-0.26,0.4-0.52,0.47c-0.18,0.05-0.37,0.09-0.56,0.11c-2.46,0.31-4.9,0.7-7.34,1.17c-1.8,0.34-3.63,0.68-5.48,0.67
				c-0.57,0-1.14,0.08-1.71,0.15c-2.08,0.28-4.16,0.57-6.24,0.85c-0.32,0.04-0.63,0.08-0.94,0.15c-1.98,0.47-4.01,0.62-6.02,0.89
				c-2.52,0.33-5.04,0.68-7.56,1.02c-0.37,0.05-0.75,0.14-1.12,0.24c-3.64,0.92-7.31,1.64-11.06,2.01
				c-1.58,0.15-3.14,0.48-4.71,0.73c-0.5,0.08-1,0.19-1.51,0.25c-0.64,0.08-1.06,0.01-1.26-0.74c-0.09-0.34-0.24-0.67-0.33-1.02
				c-0.06-0.23-0.08-0.47-0.08-0.7c-0.06-1.36-0.41-2.69-0.33-4.06c0.01-0.12,0.05-0.23,0.1-0.43c0.23-0.19,0.49-0.47,0.82-0.64
				c2.73-1.44,5.52-2.78,8.3-4.13c0.97-0.47,1.91-0.98,2.86-1.46c2.31-1.16,4.61-2.34,6.94-3.47c1.53-0.75,3.05-1.5,4.53-2.34
				c1.09-0.62,2.22-1.19,3.35-1.74c0.9-0.44,1.85-0.82,2.59-1.51c0.11-0.1,0.12-0.22,0.02-0.32c-0.03-0.04-0.1-0.07-0.15-0.08
				c-0.12-0.02-0.25-0.05-0.37-0.03c-1.96,0.23-3.92,0.45-5.87,0.71c-2.14,0.29-4.26,0.72-6.39,1.07c-3.57,0.6-7.14,1.22-10.75,1.66
				c-1.32,0.16-2.65,0.38-3.96,0.6c-0.44,0.07-0.85,0.24-1.29,0.34c-0.5,0.11-1,0.19-1.5,0.27c-0.18,0.03-0.53-0.19-0.6-0.36
				c-0.05-0.11-0.12-0.21-0.14-0.33c-0.14-0.64-0.32-1.27-0.4-1.92c-0.12-1-0.28-1.99-0.5-2.98c-0.1-0.45-0.23-0.93-0.01-1.39
				c0.5-0.53,1.15-0.73,1.85-0.83c1.64-0.23,3.27-0.47,4.91-0.72c2.64-0.39,5.29-0.73,7.91-1.26c2.06-0.42,4.14-0.71,6.21-1.04
				c1.13-0.18,2.24-0.41,3.36-0.65c1.05-0.23,2.13-0.4,3.19-0.55c2.01-0.3,4.03-0.58,6.04-0.84c1.95-0.26,3.91-0.48,5.86-0.81
				c2.57-0.43,5.15-0.81,7.73-1.19c1.7-0.25,3.4-0.5,5.08-0.86c0.69-0.14,1.38-0.25,2.08-0.07c0.39,0.1,0.68,0.31,0.79,0.68
				c0.2,0.68,0.39,1.37,0.55,2.06c0.17,0.75,0.31,1.51,0.43,2.27c0.08,0.52,0.14,1.06,0.16,1.59c0.02,0.38-0.18,0.71-0.53,0.9
				c-0.6,0.34-1.23,0.64-1.85,0.95c-2.54,1.27-5.08,2.54-7.59,3.83c-2.07,1.07-4.09,2.23-6.13,3.36c-1.71,0.94-3.4,1.9-5.1,2.86
				c-0.33,0.19-0.64,0.41-0.96,0.6c-0.75,0.45-1.49,0.93-2.29,1.32C295.34,178.97,294.88,179.33,294.17,180.02z"/>
		</g>
		<g>
			<path class="st0" d="M239.78,170.7c-0.13-2.9-0.5-5.82-1.07-8.68c-0.53-2.6-1.35-5.17-2.15-7.66l-0.18-0.56
				c-1.37-4.27-3.57-8.1-5.33-10.97c-2.02-3.28-4.5-6.52-7.59-9.91c-4.37-4.78-9.52-8.91-15.32-12.29
				c-6.73-3.92-13.75-6.54-20.87-7.8c-2.92-0.52-5.94-0.86-8.99-1.02c-3.43-0.18-7.16,0.06-11.74,0.77
				c-3.21,0.49-6.63,1.11-9.91,2.29c-1.49,0.54-2.97,1.17-4.4,1.79c-1.18,0.51-2.39,1.03-3.6,1.49c-3.21,1.23-6.05,3.13-8.8,4.97
				l-0.7,0.46c-2.39,1.59-4.48,3.53-6.41,5.38c-2.69,2.58-5.2,5.54-7.64,9.06c-2.24,3.22-3.87,6.69-5.3,9.96
				c-3.05,6.99-4.8,13.7-5.35,20.52c-0.59,7.29,0.13,14.45,2.14,21.27c1.68,5.69,4.03,10.66,7.19,15.2
				c0.25,0.36,0.41,0.67,0.48,0.95c0.49,1.97,1.41,3.59,2.83,4.96c1.27,1.23,2.64,2.77,3.11,4.89l0.33,1.47
				c0.42,1.86,0.84,3.72,1.23,5.59c0.2,0.95,0.37,1.9,0.54,2.85c0.27,1.51,0.56,3.07,0.93,4.59c0.64,2.57,2.33,3.82,4.88,3.63
				c1.19-0.1,1.89,0.37,2.4,1.6c0.22,0.54,0.37,1.19,0.45,2.01c0.15,1.49,0.28,2.99,0.41,4.49c0.15,1.7,0.3,3.4,0.47,5.09
				c0.18,1.82,0.44,3.75,1.36,5.51c0.66,1.27,1.77,2.04,3.03,2.13c1.27,0.08,2.44-0.53,3.25-1.69c0.1-0.14,0.21-0.28,0.32-0.42
				c0.22-0.28,0.45-0.58,0.63-0.92c0.77-1.48,1.74-3.31,1.62-5.47c-0.07-1.3,0-2.58,0.08-4.01c0.07-1.19,0.09-1.37,1.37-1.5
				c0.34,0.87,0.4,1.8,0.46,2.79c0.02,0.35,0.04,0.69,0.08,1.04c0.09,0.9,0.16,1.81,0.24,2.71c0.11,1.37,0.23,2.8,0.4,4.19
				c0.14,1.15,0.75,2.06,1.72,2.57c1.02,0.53,2.31,0.52,3.31-0.01c0.09-0.05,0.18-0.09,0.3-0.13c0.04,0.17,0.07,0.35,0.1,0.51
				c0.15,0.72,0.28,1.4,0.37,2.08c0.23,1.74,0.44,3.48,0.65,5.22c0.17,1.38,0.34,2.76,0.51,4.14c0.21,1.64,0.81,2.84,1.8,3.58
				c0.78,0.59,1.8,0.88,3.05,0.88c0.46,0,0.94-0.04,1.46-0.12c1.48-0.23,2.53-0.93,3.13-2.1c1.47-2.87,2.42-5.96,2.8-9.17
				c0.12-1,0.15-2.02,0.19-3c0.02-0.59,0.04-1.17,0.08-1.76l0.02-0.37c0.05-0.74,0.09-1.52,0.26-2.22c0.18-0.74,0.52-1.22,0.98-1.41
				c0.46-0.18,1.07-0.06,1.7,0.35c1.73,1.13,4.17,0.99,5.79-0.32c2.02-1.64,2.73-3.95,3.23-5.98c0.46-1.84,0.85-3.73,1.23-5.55
				c0.16-0.77,0.32-1.54,0.49-2.31c0.23-1.08,0.48-1.64,1.23-1.82c0.46,0.3,0.58,0.77,0.74,1.47l0.03,0.12
				c0.16,0.7,0.28,1.41,0.4,2.13l0.14,0.79c0.33,1.82,1.04,4.01,3.59,4.77c0.03,0.02,0.05,0.04,0.08,0.07
				c0.06,0.06,0.12,0.11,0.19,0.16c1.93,1.36,4.02,1.25,5.81,0.96c1.13-0.18,1.9-0.86,2.18-1.91c0.29-1.08,0.49-2.18,0.7-3.26
				l0.02-0.13c0.1-0.55,0.19-1.11,0.28-1.66c0.14-0.88,0.29-1.79,0.49-2.66c0.11-0.47,0.24-0.95,0.41-1.06
				c0.17-0.1,0.65-0.02,1.15,0.09c0.49,1.04,0.38,2.18,0.26,3.38l-0.03,0.29c-0.04,0.44-0.1,0.89-0.16,1.33
				c-0.12,0.97-0.25,1.96-0.24,2.96c0.02,1.27,0.15,2.54,0.28,3.78c0.06,0.62,0.13,1.24,0.18,1.87c0.15,1.92,1.13,3.57,2.69,4.53
				c1.54,0.95,3.42,1.09,5.17,0.38c0.4-0.16,0.79-0.5,1.05-0.9c0.95-1.47,2.05-3.46,2.18-5.78c0.18-3.25,0.37-6.61,0.29-9.97
				c-0.03-1.29,0-2.61,0.03-3.88c0.05-2.2,0.1-4.46-0.15-6.71c-0.06-0.55-0.12-1.2-0.09-1.81c0.04-0.72,0.24-1.11,1.25-1.26
				c0.1,0.15,0.19,0.29,0.28,0.43c0.32,0.49,0.62,0.95,0.97,1.39c0.58,0.72,1.14,1.31,1.7,1.78c1.46,1.23,2.71,1.29,3.5,1.12
				c1.09-0.24,2.05-1.06,2.62-2.27c0.65-1.36,0.85-2.92,0.95-4.13c0.11-1.24,0.01-2.51-0.09-3.73l-0.05-0.6
				c-0.25-3.41,0.62-6.74,2.66-10.19c0.15-0.25,0.42-0.47,0.71-0.71c0.19-0.16,0.39-0.32,0.56-0.49c0.15-0.15,0.31-0.29,0.46-0.44
				c0.46-0.42,0.93-0.85,1.2-1.42c1.4-3,2.54-5.66,3.5-8.13c0.59-1.53,1.01-3.1,1.24-4.66c0.28-1.91,0.34-3.88,0.36-5.73
				c0.02-1.25,0.22-2.13,0.67-2.93c0.33-0.59,0.4-1.33,0.42-1.9c0.02-0.77,0.05-1.54,0.09-2.31
				C239.79,175.42,239.89,173.04,239.78,170.7z M183.15,141.84c2.28-2.33,8.57-2.31,10.86,0.95c1.5,2.14,2.07,4.39,2.31,6.71
				c0.3,2.87,0.39,5.75-0.27,8.59c-0.4,1.74-0.88,3.48-1.51,5.18c-0.44,1.19-0.15,2.21,0.55,3.28c1.07,1.64,2.02,3.32,1.88,5.23
				c-0.17,2.29-0.74,4.43-3.22,5.87c-1.91,1.11-2.2,2.66-2.1,4.35c0.14,2.23,0.34,4.46,0.49,6.69c0.09,1.38,0.25,2.77,0.18,4.15
				c-0.06,1.13-0.31,2.26-0.68,3.35c-0.3,0.88-1.05,1.58-2.34,1.71c-1.02,0.1-2.16-0.41-2.64-1.43c-0.54-1.16-0.95-2.38-1.14-3.6
				c-0.26-1.67-0.26-3.37-0.37-4.9c-0.01-2.74-0.06-5.32-0.02-7.9c0.03-2.24-0.45-4.36-2.27-6.18c-1.59-1.59-1.78-3.4-1.47-5.24
				c0.24-1.46,0.73-2.9,1.17-4.34c0.6-1.98,0.87-3.98,0.5-6.02c-0.14-0.73-0.49-1.44-0.72-2.16c-1.01-3.15-1.56-6.33-1.58-9.57
				C180.73,144.69,181.79,143.23,183.15,141.84z M149.83,144.41c0.12-0.77,0.45-1.3,0.99-1.59c0.29-0.15,0.89-0.35,1.69,0.02
				c0.46,0.22,0.93,0.51,1.39,0.85c2.66,1.98,4.37,4.58,5.7,6.86c0.35,0.6,0.71,1.19,1.09,1.79c0.7-1.06,1.41-2.14,2.12-3.22
				l1.33-2.03c0.55-0.83,1.22-1.78,2.27-2.5c0.58-0.4,1.75-1.19,3.1-0.38c0.06,0,0.1,0.01,0.14,0.01l0.81,0.13l0.9,3.33l-0.36,0.49
				c-0.7,0.94-1.38,1.91-2.07,2.88c-1.48,2.1-3.01,4.26-4.79,6.29l0.32,0.47c0.71,1.04,1.39,2.05,2.06,3.06
				c0.39,0.6,0.74,1.22,1.07,1.82l0.14,0.25c0.35,0.63,0.75,1.23,1.17,1.86c0.65,0.98,1.33,2,1.83,3.16
				c0.45,1.02,0.44,1.98,0.4,2.62c-0.08,1.22-0.94,2.05-2.18,2.11c-0.07,0-0.15,0.01-0.22,0.01c-0.85,0-1.59-0.24-2.3-0.76
				c-3.12-2.25-4.84-5.39-6.42-8.5c-0.35,0.56-0.7,1.11-1.04,1.66l-0.09,0.15c-0.18,0.29-0.4,0.65-0.74,0.96
				c-0.2,0.18-1.21,1.01-2.2,0.52c-0.68-0.34-1.2-1.11-1.24-1.84c-0.03-0.66,0.08-1.37,0.34-2.01c0.45-1.14,0.95-2.24,1.52-3.45
				c0.24-0.52,0.51-1.03,0.78-1.56l0.07-0.14l-2.33-4.65c-0.19-0.38-0.37-0.76-0.55-1.14c-0.63-1.33-1.23-2.58-2.13-3.63
				c-0.58-0.68-1.12-1.39-1.64-2.07c-0.22-0.29-0.44-0.59-0.67-0.87l-0.33-0.43L149.83,144.41z M217.44,185.91
				c-0.7,0.32-1.4,0.65-2.06,0.96c-0.12,1.3-0.24,2.54-0.35,3.79c-0.27,3.03-1.51,5.76-2.82,8.43c-0.38,0.78-1.05,1.43-1.65,2.09
				c-1.13,1.25-2.25,2.53-3.5,3.65c-0.73,0.65-1.69,1.04-2.58,1.49c-0.8,0.4-1.61,0.79-2.46,1.07c-2.6,0.86-4.27,2.65-5.59,5
				c-1.1,1.96-2.53,3.75-3.81,5.61c-0.09,0.13-0.22,0.24-0.29,0.37c-1.49,2.9-4.09,3.53-7.03,3.46c-0.93-0.02-1.88-0.2-2.8-0.08
				c-2.5,0.33-4.78-0.45-7.06-1.25c-0.54-0.19-1.16-0.33-1.58-0.69c-1.8-1.52-3.87-1.12-5.89-0.9c-0.88,0.1-1.77,0.35-2.58,0.71
				c-3.02,1.36-5.8,0.86-8.54-0.81c-3.27-1.99-5.11-4.97-5.91-8.58c-0.98-4.39-2.66-8.52-4.53-12.57c-0.71-1.55-1.66-2.93-3.23-3.76
				c-3.42,1.05-4.41,0.95-5.67-0.7c0.41-0.28,0.8-0.6,1.23-0.82c0.46-0.24,0.98-0.38,1.46-0.59c1.34-0.61,2.67-1.22,3.29-2.75
				c0.41-1,1.36-1.23,2.36-1.29c0.5-0.03,0.99,0.26,0.86,0.68c-0.41,1.3,0.22,2.89-1.27,3.88c2.65,1.73,3.99,4.2,5.16,6.82
				c0.68,1.52,1.57,2.96,2.16,4.52c0.75,1.96,1.28,3.99,1.92,5.99c0.83,2.61,2.42,4.62,4.75,6.06c1.57,0.97,3.19,0.94,4.77,0.19
				c2.32-1.11,4.78-1.49,7.28-1.37c1.09,0.05,2.26,0.52,3.22,1.1c2.55,1.54,5.26,2.21,8.22,2.06c1.04-0.05,2.11-0.03,3.14,0.11
				c1.37,0.18,2.12-0.45,2.79-1.55c1.48-2.41,3.12-4.73,4.6-7.15c1.17-1.91,2.86-3.18,4.78-4.21c0.83-0.44,1.73-0.75,2.59-1.14
				c1.43-0.64,2.89-1.22,3.84-2.61c0.38-0.55,0.92-1.01,1.46-1.42c2.95-2.28,4.1-5.54,4.77-8.98c0.34-1.78,0.3-3.65,0.34-5.48
				c0.01-0.4-0.33-0.82-0.54-1.21c-0.43-0.77-0.88-1.52-1.31-2.25c0.31-0.39,0.5-0.63,0.71-0.87c0.47-0.56,0.94-0.52,1.49-0.05
				c0.64,0.54,1.33,1.02,2,1.52c1.01,0.75,2.02,0.76,3.07,0.06c0.3-0.2,0.65-0.43,0.98-0.45c0.31-0.01,0.77,0.15,0.93,0.39
				C219.15,183.33,218.46,185.44,217.44,185.91z"/>
			<path class="st0" d="M202.4,256.72c-0.25-1.82-0.4-3.65-0.69-5.46c-0.27-1.72-1.75-3.29-3.76-2.95
				c-1.32,0.22-1.88,0.61-1.95,1.98c-0.04,0.78,0.03,1.58,0.14,2.36c0.18,1.27,0.07,2.49-0.26,3.74c-0.36,1.35-0.5,2.76-0.62,3.48
				c0.07,2.61,0.36,4.45,1.58,6.02c1.42,1.83,4.39,1.53,5.07-0.12c0.8-1.95,1.48-3.93,1.03-6.1
				C202.73,258.69,202.54,257.71,202.4,256.72z"/>
		</g>
	</g>
</g>
</svg>
