<?xml version="1.0" encoding="utf-8"?>
<!-- Generator: Adobe Illustrator 27.0.0, SVG Export Plug-In . SVG Version: 6.00 Build 0)  -->
<svg version="1.1" xmlns="http://www.w3.org/2000/svg" xmlns:xlink="http://www.w3.org/1999/xlink" x="0px" y="0px"
	 viewBox="0 0 864 360" style="enable-background:new 0 0 864 360;" xml:space="preserve">
<style type="text/css">
	.st0{fill:#FFFAE9;}
	.st1{filter:url(#Adobe_OpacityMaskFilter);}
	.st2{mask:url(#SVGID_1_);}
	.st3{fill:#DD9933;}
	.st4{filter:url(#Adobe_OpacityMaskFilter_00000026847889799289457430000002945445195572818837_);}
	.st5{stroke:#000000;stroke-width:1.4608;stroke-miterlimit:10;}
	.st6{stroke:#000000;stroke-width:1.5345;stroke-miterlimit:10;}
	.st7{fill:none;stroke:#231F20;stroke-width:0.5;stroke-miterlimit:10;}
	.st8{fill:#333333;}
	.st9{fill:none;stroke:#FFFAE9;stroke-width:0.5;stroke-miterlimit:10;}
	.st10{filter:url(#Adobe_OpacityMaskFilter_00000158749813292503802880000004084499011756081802_);}
	.st11{mask:url(#SVGID_00000078761527294429557130000015825385289074032808_);fill:#FFFAE9;}
	.st12{filter:url(#Adobe_OpacityMaskFilter_00000089576348631216882880000006667461508859063690_);}
	.st13{mask:url(#SVGID_00000074425965056872218920000014250552469619866259_);}
	.st14{filter:url(#Adobe_OpacityMaskFilter_00000065767533419998474550000010752984118365287818_);}
	.st15{mask:url(#SVGID_00000024681887148536740660000013968456303499124152_);}
	.st16{fill:none;stroke:#FFFAE9;stroke-width:3;stroke-linecap:round;stroke-miterlimit:10;}
	.st17{fill:#878787;}
	.st18{fill:#3A3A3A;}
	.st19{fill:#BF9931;}
	.st20{fill:none;stroke:#333333;stroke-miterlimit:10;}
	.st21{filter:url(#Adobe_OpacityMaskFilter_00000101070251429893925790000004771699406867729822_);}
	.st22{mask:url(#SVGID_00000029755985688742232750000009823049151361515652_);}
	.st23{fill:none;stroke:#878787;stroke-width:0.5;stroke-miterlimit:10;}
	.st24{fill:#4C4C4B;}
	.st25{filter:url(#Adobe_OpacityMaskFilter_00000065754325314496347830000016772567753332310945_);}
	.st26{mask:url(#SVGID_00000052800299939122642920000018248811867257667001_);}
	.st27{filter:url(#Adobe_OpacityMaskFilter_00000166638497840954447590000008200177455206413758_);}
	.st28{filter:url(#Adobe_OpacityMaskFilter_00000152247691015006460310000006246027315641435556_);}
	.st29{mask:url(#SVGID_00000120538538440511723120000004663412140308527256_);}
	.st30{filter:url(#Adobe_OpacityMaskFilter_00000051341218107655189700000017159732739672041642_);}
	.st31{mask:url(#SVGID_00000112611565299920408010000018064109818552460931_);}
	.st32{filter:url(#Adobe_OpacityMaskFilter_00000044859997354888623070000017883633151023269290_);}
	.st33{mask:url(#SVGID_00000180338301472052104410000013483229937859694266_);}
	.st34{filter:url(#Adobe_OpacityMaskFilter_00000164499059170360594380000004157254567158523286_);}
	.st35{fill:#231F20;}
	.st36{fill:#FFFAE9;stroke:#000000;stroke-width:0.8169;stroke-miterlimit:10;}
	.st37{fill:#AAD9BD;}
	.st38{opacity:0.37;fill:none;stroke:#FFFAE9;stroke-width:0.5;stroke-miterlimit:10;}
	.st39{filter:url(#Adobe_OpacityMaskFilter_00000081612555573696904720000000891821683838914714_);}
	.st40{mask:url(#SVGID_00000132800306137570542720000012628999856004778123_);}
	.st41{filter:url(#Adobe_OpacityMaskFilter_00000103972974114349873960000011985720171145960094_);}
	.st42{mask:url(#SVGID_00000119837035234909857580000009779232562932228752_);}
	.st43{filter:url(#Adobe_OpacityMaskFilter_00000028310095355633224510000005771384554463304589_);}
	.st44{filter:url(#Adobe_OpacityMaskFilter_00000033357436764765800620000001466796631224339076_);}
	.st45{mask:url(#SVGID_00000129188201550340426240000000107561461740941444_);}
	.st46{filter:url(#Adobe_OpacityMaskFilter_00000160178529439165248960000013801552323146836355_);}
</style>
<g id="Layer_2">
</g>
<g id="Layer_1">
	<g>
		<g>
			<path class="st18" d="M233.65,217.82c-5.71,4.86-16.13,6.21-28.6,6.39c1.02-2.64,2.19-5.44,3.35-8.23
				c7-16.89,15.9-35.85,24.82-47.17c0.58-0.73,2.2-2.21,2.63-3.38c0.15-0.29,0.15-0.44,0.14-0.73
				c-1.34-8.65-10.45-11.12-17.93-11.25c-3.67,0.01-7.63,1.19-11.88,3.55c-8.5,2.66-19.06,5.48-29.47,8.59
				c-12.46,3.7-24.78,8.14-33.13,14.18c-9.67,7.22-16.97,20-8.28,33.19c2.06,3.08,2.05-0.3,3.07-3.24
				c6.11-18.8,29.71-30.16,50.96-39.32c-12,11.77-24.87,28.39-37.74,45.74c-2.19,3.09-4.53,6.03-6.73,9.12
				c-9.83,1.49-18.92,4.45-25.95,9.75c0.58-3.08,0.57-6.31-0.17-9.24c-1.33-4.4-3.39-7.48-6.19-9.52c-5-3.66-12.34-3.34-20.4,0.05
				c-10.99,4.87-23.14,15.62-32.35,30.32c-0.29,0.44-0.58,0.88-0.88,1.32c-8.04,13.38-13.13,28.8-13.68,41.86
				c-0.69,16.88,6.1,30.07,23.12,30.02c15.7-0.04,32.25-12.41,48.35-30.21c11.56-12.65,22.82-27.8,33.49-43.23
				c2.92-4.12,5.7-8.23,8.63-12.35c8.8-0.9,17.75-1.07,26.27-0.66c-1.6,4.26-3.35,8.67-4.81,12.93c-5.1,14.98-8.87,29.96-9.13,43.17
				c-0.12,8.22,1.07,15.55,4.02,21.86c2.21,4.1,5.45,6.88,10.15,7.9c5.58,1.16,14.23-3.27,17.74-7.68c1.17-1.62,1.46-2.65,0.14-4.26
				c-2.36-2.78-2.8-2.63-4.57-6.3c-1.77-3.37-3.1-7.33-3.85-11.58c-2.53-13.35-0.67-29.64,2.82-43.15
				c1.02-4.11,2.18-7.93,3.49-11.46c2.79,0.43,5.43,0.72,8.07,1.3C227.84,239.41,239.55,229.1,233.65,217.82z M129.24,246.42
				c-13.16,17.65-25.89,33.68-37.01,43.24c-2.34,2.06-4.69,3.83-7.03,5.3c-20.95,13.56-27.42,7.12-27.02-5.21
				c0.41-12.77,8.13-31.87,14.71-41.28c0.44-0.59,0.88-1.18,1.32-1.91c5.99-8.38,17.99-22.94,27.68-22.67
				c6.46,0.13,6.18,5.56,4.43,10.11c-1.6,4.11-4.09,8.52-7.01,12.49c-6.29,8.68-15.07,16.18-24.16,19.88
				c-0.88,0.3,0.88,1.17,3.38,1.17c11-0.76,23.61-7.4,31.22-15.05c1.76-1.77,3.36-3.82,4.68-6.03c0.15-0.15,0.15-0.29,0.29-0.44
				c6.45-3.25,13.34-5.91,20.67-7.83C133.34,240.98,131.29,243.77,129.24,246.42z M192.56,216.02c-1.17,2.64-2.33,5.29-3.5,7.93
				c-7.63-0.13-15.41-0.4-23.19-0.23c1.75-2.65,3.36-5.15,5.12-7.64c17.98-26.61,33.33-47.78,43.31-47.81
				C216.94,168.26,204.67,189.28,192.56,216.02z"/>
			<path class="st18" d="M745.59,257.5c-3.07,5-19.43,32.63-28.97,32.66c-3.82-0.58-3.68-3.66-2.95-6.89
				c1.31-5.73,7.88-15.58,13.43-25.57l0-0.15c4.38-7.79,11.11-17.49,5.66-24.67c-2.95-3.95-6.47-5.56-9.99-5.55
				c-5.28,0.01-10.27,2.52-14.95,6.35c-0.89-3.23-4.86-6.3-8.53-6.29c-2.2,0.01-4.99,1.48-7.47,4.42
				c-5.12,6.32-10.82,15.88-15.63,25.87c-2.37,5.04-4.52,10.19-6.27,15.07c-2.14,2.6-4.59,4.88-7.62,6.54
				c-8.35,4.57-11.88,2.53-15.56-0.4c5.12-7.06,8.91-14.41,11.24-21.16c5.83-16.74,2.71-30.24-11.67-30.2l-0.15,0
				c-15.41,0.04-29.02,14.31-36.9,30.33c-2.16,4.39-3.89,8.91-5.09,13.31c-6.44,9.13-14.85,19.33-20.65,19.34
				c-8.07,0.02,0.1-17.17,9.31-32.6c7.01-11.61,14.76-22.2,16.67-23.52c-0.45-3.67-5.01-6.74-8.97-6.73l-0.15,0
				c-2.79,0.01-5.87,1.19-7.91,3.98c-4.24,5.44-10.97,15.58-16.37,26.31c-2.22,4.3-4.23,8.66-5.82,12.83
				c-7.51,9.25-17.69,19.81-24.76,19.83c-6.02,0.02-0.63-14.82,8.57-32.6c2.04-3.97,4.23-8.08,6.57-12.2
				c2.48-4.26,6.43-10.73,11.25-18.08c5.55-8.67,12.13-18.38,18.27-26.61l13.94-0.04c1.76,0,3.81-1.48,4.39-3.24
				c0.73-1.76-0.16-3.23-1.92-3.22l-11.45,0.03c3.51-4.41,6.73-7.94,9.07-10.15c-0.45-3.67-5.01-7.32-8.97-7.31
				c-2.94,0.01-5.86,1.92-8.06,4.57c-0.59,0.74-1.32,1.62-2.19,2.79c-1.9,2.65-4.53,6.03-7.31,10.14l-15.7,0.04
				c-1.76,0-3.81,1.48-4.39,3.24c-0.73,1.76,0.16,3.23,1.92,3.22l13.65-0.04c-5.7,7.94-11.99,17.35-17.98,26.61
				c-7.01,10.88-13.44,21.76-17.68,30.28l0,0.15c-2.6,5.23-4.79,10.28-6.34,14.84c-6.28,8.65-14.04,17.64-19.4,17.66
				c-8.07,0.02-0.05-17.17,9.31-32.6c7.01-11.61,14.76-22.2,16.67-23.52c-0.6-3.67-5.01-6.74-8.97-6.73l-0.15,0
				c-2.94,0.01-6.01,1.19-8.06,3.98c-0.73,0.88-3.22,4.26-4.68,6.47c0-1.61-2.52-10.41-11.33-10.39
				c-15.41,0.04-29.75,14.31-38.22,30.33c-3.84,7.24-6.46,14.83-7.45,21.59c-1.24,1.76-2.53,3.41-3.89,4.94
				c-1.69,1.91-3.44,3.62-5.25,5.12c-1.81,1.51-3.58,2.77-5.31,3.78c-1.73,1.01-3.35,1.76-4.86,2.25c-1.51,0.49-2.83,0.66-3.98,0.52
				c-0.88-0.11-1.44-0.51-1.71-1.19c-0.26-0.68-0.34-1.45-0.23-2.3c0.2-1.56,0.7-3.34,1.51-5.34c0.81-1.99,1.81-4.07,3.01-6.23
				c1.2-2.16,2.54-4.35,4.04-6.57c1.49-2.22,3.01-4.34,4.56-6.36c1.55-2.02,3.07-3.89,4.58-5.6c1.51-1.71,2.89-3.12,4.15-4.21
				c0.15,0.07,0.32,0.2,0.53,0.39c0.21,0.19,0.42,0.41,0.64,0.66c0.22,0.24,0.43,0.46,0.64,0.66c0.21,0.19,0.37,0.3,0.48,0.31
				c0.14-0.22,0.36-0.57,0.65-1.04c0.29-0.47,0.59-1,0.89-1.59c0.31-0.59,0.58-1.22,0.81-1.88c0.24-0.67,0.4-1.36,0.49-2.07
				c0.15-1.23,0.03-2.29-0.36-3.19c-0.39-0.89-0.95-1.63-1.69-2.23c-0.74-0.6-1.62-1.07-2.63-1.41c-1.02-0.34-2.08-0.58-3.18-0.72
				c-1.03-0.13-2.07-0.19-3.14-0.17c-1.06,0.01-2.05,0.09-2.96,0.24c-0.91,0.15-1.72,0.33-2.44,0.53c-0.72,0.2-1.25,0.42-1.59,0.67
				c-0.9-1.46-1.44-3-1.63-4.61c-0.19-1.61-0.29-3.2-0.3-4.77c-0.02-1.57-0.06-3.1-0.12-4.6c-0.06-1.5-0.41-2.85-1.03-4.06
				c-0.62-1.21-1.63-2.24-3.03-3.09c-1.4-0.85-3.43-1.44-6.1-1.77c-2.32-0.29-4.29-0.39-5.9-0.3c-1.61,0.09-2.94,0.26-3.98,0.52
				c-0.05,0.72-0.11,1.46-0.16,2.22c-0.05,0.67-0.1,1.4-0.16,2.18c-0.06,0.79-0.13,1.54-0.22,2.25c-0.17,1.38-0.38,2.88-0.62,4.51
				c-0.24,1.63-0.5,3.26-0.78,4.88s-0.59,3.17-0.92,4.61c-0.34,1.45-0.68,2.64-1.02,3.56c-0.39,0.96-0.91,2.16-1.55,3.6
				s-1.34,2.96-2.08,4.58c-0.74,1.62-1.5,3.22-2.28,4.81c-0.78,1.59-1.48,3.03-2.1,4.32c-0.55,1.15-1.18,2.43-1.86,3.81
				c-0.02,0-0.03-0.01-0.05-0.01c-1.15,2.49-2.49,4.83-4.04,7.04c-1.55,2.21-3.19,4.25-4.92,6.12c-1.73,1.87-3.52,3.53-5.36,5
				c-1.85,1.46-3.64,2.68-5.4,3.65c-1.75,0.97-3.39,1.68-4.91,2.13c-1.52,0.45-2.85,0.59-3.99,0.42c-0.87-0.13-1.43-0.54-1.68-1.23
				c-0.25-0.69-0.31-1.46-0.18-2.31c0.23-1.56,0.78-3.33,1.63-5.3s1.91-4.03,3.15-6.16c1.25-2.13,2.64-4.29,4.19-6.48
				c1.55-2.19,3.11-4.27,4.71-6.26c1.59-1.98,3.16-3.82,4.71-5.49c1.55-1.68,2.96-3.05,4.24-4.11c0.14,0.07,0.32,0.2,0.52,0.4
				c0.2,0.2,0.41,0.42,0.63,0.67c0.21,0.25,0.42,0.47,0.63,0.67c0.2,0.2,0.36,0.31,0.48,0.32c0.15-0.22,0.37-0.56,0.68-1.02
				c0.3-0.46,0.61-0.98,0.93-1.56c0.32-0.58,0.6-1.2,0.86-1.87c0.25-0.66,0.43-1.35,0.54-2.06c0.18-1.23,0.09-2.29-0.28-3.19
				c-0.37-0.9-0.92-1.66-1.64-2.27c-0.72-0.61-1.59-1.11-2.6-1.47c-1.01-0.37-2.07-0.63-3.17-0.8c-1.02-0.15-2.07-0.24-3.13-0.25
				c-1.06-0.01-2.05,0.05-2.96,0.18c-0.91,0.13-1.73,0.29-2.45,0.47c-0.72,0.18-1.26,0.39-1.6,0.63c-0.87-1.48-1.37-3.03-1.52-4.64
				c-0.15-1.62-0.21-3.21-0.19-4.77c0.02-1.57,0.01-3.1-0.01-4.6c-0.03-1.5-0.34-2.86-0.93-4.09c-0.59-1.22-1.58-2.27-2.96-3.16
				c-1.38-0.88-3.4-1.52-6.05-1.91c-2.31-0.34-4.28-0.49-5.89-0.44c-1.62,0.05-2.94,0.19-3.99,0.42c-0.07,0.71-0.14,1.45-0.21,2.21
				c-0.06,0.67-0.13,1.39-0.21,2.18c-0.08,0.78-0.17,1.53-0.28,2.24c-0.2,1.37-0.45,2.87-0.72,4.49c-0.28,1.62-0.58,3.25-0.9,4.87
				c-0.32,1.62-0.66,3.15-1.03,4.59c-0.37,1.44-0.74,2.62-1.11,3.53c-0.41,0.95-0.96,2.14-1.63,3.56c-0.68,1.42-1.4,2.93-2.18,4.53
				c-0.78,1.6-1.58,3.18-2.39,4.75c-0.8,1.55-1.53,2.96-2.18,4.22c-7.11,11.23-23.88,28.38-39.09,29.29
				c-6.15,0.37-8.09-6.29-6.5-14.8c0.43-2.64,1.89-7.78,3.05-10.72c8.69,10.4,23.34,2.14,32.85-9.48
				c10.38-12.94,14.3-30.27-4.78-30.22c-17.9,0.05-33.12,15.35-40.72,30.34c-1.8,3.53-3.26,7.13-4.34,10.69
				c-3.8,4.4-8.1,8.38-12.77,10.93c-4.1,2.21-7.04,2.95-9.38,2.67c5.26-7.35,9.35-16.02,11.68-24.25
				c4.65-16.01,2.85-30.24-8.89-30.21l-0.15,0c-5.87,0.02-11.14,4.29-15.53,9.29c1.61-2.5,3.65-5.73,5.85-9.26
				c9.94-15.14,25.44-36.9,32.76-43.23c-0.6-3.67-5.16-7.32-9.12-7.31c-2.94,0.01-5.86,1.92-8.06,4.57
				c-0.58,0.74-1.32,1.62-2.05,2.79c-6.43,8.38-18.86,25.88-29.82,43.22c-7.01,10.88-13.59,21.76-17.68,30.28l-0.15,0.15
				c-3.8,7.79-14.45,30.56-9.44,39.06c1.33,2.34,3.39,3.95,6.03,3.95c1.47,0,3.23-0.45,4.99-1.33c-0.15-1.32-0.01-2.93,0.28-5.28
				c2.36,3.37,5.3,6.15,8.38,6.58c0.29,0,0.59,0.14,0.88,0.14c0.73,0,1.32-0.15,2.05-0.15c7.63-0.61,14.66-4.73,20.81-10.62
				c11.12-0.19,20.17-5.26,27.32-11.98c-1.09,12.56,4,22.46,17.91,22.42c14.11-0.04,31.1-10.36,45.7-30.85
				c0.03-0.02,0.06-0.04,0.08-0.07c0.34-0.36,0.71-0.82,1.11-1.39c0.74-1.1,1.62-2.4,2.62-3.92c1-1.52,2.07-3.16,3.2-4.92
				c1.13-1.76,2.27-3.59,3.4-5.47c1.13-1.88,2.19-3.75,3.19-5.61c0.99-1.86,1.89-3.64,2.69-5.36c0.8-1.72,1.4-3.27,1.8-4.66
				c0.23,1.82,0.74,3.24,1.52,4.25c0.78,1.01,1.62,1.88,2.52,2.62c0.9,0.74,1.76,1.47,2.58,2.19c0.82,0.73,1.41,1.72,1.77,2.98
				c-2.56,2.37-4.92,5.13-7.07,8.26c-2.15,3.13-4.04,6.42-5.68,9.84c-1.63,3.43-3,6.87-4.09,10.33c-1.09,3.46-1.86,6.68-2.31,9.65
				c-0.29,1.99-0.39,3.83-0.3,5.53c0.1,1.71,0.42,3.21,0.98,4.53c0.56,1.31,1.37,2.39,2.43,3.22c1.06,0.83,2.4,1.37,4.03,1.61
				c4.7,0.7,9.09,0.41,13.18-0.87c4.08-1.28,7.87-3.25,11.34-5.92c3.48-2.67,6.63-5.88,9.45-9.64c2.82-3.76,4.67-6.52,6.81-10.79
				c0.16-0.3,1.23-2.22,1.85-3.4l0,0c0.72-1.11,2.51-4.7,3.47-6.24s1.99-3.21,3.09-4.99c1.09-1.79,2.18-3.64,3.27-5.55
				c1.09-1.91,2.11-3.8,3.06-5.68c0.95-1.88,1.8-3.69,2.56-5.42c0.76-1.73,1.32-3.3,1.69-4.7c0.28,1.82,0.82,3.22,1.62,4.21
				c0.8,0.99,1.66,1.84,2.58,2.56c0.91,0.72,1.79,1.43,2.63,2.13c0.84,0.71,1.45,1.69,1.84,2.94c-2.5,2.43-4.8,5.24-6.87,8.42
				c-2.08,3.18-3.89,6.51-5.45,9.97c-1.55,3.47-2.84,6.94-3.85,10.42c-1.01,3.48-1.71,6.72-2.08,9.71
				c-0.25,1.99-0.31,3.84-0.17,5.54c0.13,1.7,0.5,3.2,1.09,4.51c0.59,1.3,1.42,2.36,2.5,3.16c1.08,0.81,2.43,1.31,4.07,1.52
				c4.72,0.59,9.1,0.2,13.16-1.18c4.05-1.37,7.79-3.43,11.2-6.19c3.06-2.46,5.83-5.38,8.34-8.71c1.17,6.15,4.74,10.39,11.38,10.98
				c0.44,0,1.03,0.14,1.61,0.14c0.44,0,0.88-0.15,1.32-0.15c9.54-1.2,17.42-14.87,22.25-21.63c-2.04,6.9,0.2,21.57,11.06,21.54
				c7.4-0.02,15.24-7.1,22.01-15.55c-0.27,7.62,2.62,15.48,11.74,15.46c9.25-0.02,18.71-7.95,26.55-17.03
				c-0.17,1.84-0.14,3.55,0.13,5.07c1.04,6.01,4.43,11.88,11.33,11.86c8.11-0.02,16.76-8.54,23.95-18.03
				c-0.35,9.77,3.06,17.13,11.56,17.93c0.59,0,1.18,0.14,1.76,0.14c0.59,0,1.17-0.15,1.76-0.15c7.92-0.75,14.51-5.62,21.54-12.82
				c2.2,1.31,4.55,2.19,6.61,2.18c9.16-0.02,15.89-2.55,21.1-6.41c-1.34,5.81-1.59,10.48-0.25,12.96c1.18,2.35,3.24,3.95,5.88,3.95
				c1.61,0,3.23-0.45,5.13-1.33c-0.31-5.13,3.77-17.77,9.6-30.7c2.04-4.11,4.23-7.94,6.28-11.17
				c10.38-16.46,19.75-22.65,24.59-22.66c7.78-0.02,1.2,10.12-6.1,22.62c-6.86,12.05-14.46,26.16-10.32,35.69
				c1.92,4.54,5.16,7.03,10.15,7.46l0.44,0c15.99-0.48,33.52-33.69,38.04-41.78c0.29-0.59,0.44-1.03,0.44-1.47
				C750.43,255.29,747.2,254.86,745.59,257.5z M314.24,258.8l0.15-0.15c4.39-6.18,16.23-20.88,24.3-21.34
				c7.19,0.13-0.11,12.91-9.34,21.3c-6.44,5.89-13.91,9.72-18.03,5.62C312.48,261.59,312.63,261.3,314.24,258.8z M258.08,275.82
				c-0.15,0-0.15,0-0.29-0.15c-2.35-1.02-6.32-2.04-7.92,0.75c-1.46,2.65-0.72,5.43,1.2,8.07c-4.1,4.12-7.91,6.77-10.55,6.48
				c-9.25-1-2.84-18.04,6.52-32.16c9.35-14.26,21.5-25.44,23.15-14.3c0.6,3.81-0.56,8.95-2.75,14.24
				C265.24,264.5,261.73,270.53,258.08,275.82z M503.46,258.15c-7.59,13.96-26.3,44.39-28.84,27.37c-0.9-6.9,3.47-17.77,9.47-27.32
				c6.72-10.73,15.36-19.7,20.2-19.13c8.07,0.86,3.11,10.26,2.24,13.2C506.08,253.15,505.06,255.21,503.46,258.15z M640.42,274.66
				c-2.35-1.02-6.32-1.89-7.92,0.75c-1.31,2.35-0.72,5.14,0.75,7.63c-4.68,4.41-9.67,7.51-13.92,7.52
				c-8.07,0.02,1.7-24.37,3.45-27.6c1.02-1.76,1.9-3.53,2.92-5.14c18.26-30.13,33.11-22.39,24.36-0.06
				C648.16,262.75,644.95,268.48,640.42,274.66z"/>
		</g>
		<g>
			<path class="st18" d="M489.75,108.13c-0.16-3.46-0.59-6.94-1.28-10.34c-0.63-3.1-1.61-6.15-2.56-9.1l-0.22-0.67
				c-1.64-5.1-4.25-9.67-6.35-13.09c-2.4-3.91-5.36-7.77-9.03-11.79c-5.2-5.68-11.33-10.6-18.23-14.62
				c-8.01-4.66-16.36-7.79-24.84-9.28c-3.47-0.61-7.06-1.02-10.68-1.21c-4.08-0.21-8.53,0.08-13.99,0.91
				c-3.82,0.59-7.89,1.32-11.81,2.74c-1.78,0.64-3.53,1.4-5.23,2.13c-1.4,0.6-2.8,1.21-4.22,1.75c-3.86,1.47-7.25,3.74-10.52,5.93
				l-0.82,0.55c-2.86,1.91-5.35,4.22-7.65,6.42c-3.21,3.07-6.19,6.6-9.1,10.79c-2.68,3.85-4.62,7.98-6.31,11.87
				c-3.62,8.31-5.71,16.3-6.36,24.42c-0.7,8.69,0.15,17.21,2.55,25.34c2,6.79,4.8,12.71,8.58,18.13c0.24,0.35,0.39,0.64,0.45,0.88
				c0.61,2.45,1.76,4.48,3.53,6.19c1.42,1.38,2.95,3.09,3.47,5.4l0.41,1.84c0.49,2.16,0.98,4.31,1.42,6.48
				c0.23,1.11,0.43,2.22,0.63,3.33c0.33,1.8,0.66,3.65,1.11,5.47c0.83,3.37,3.15,5.08,6.51,4.82c1.11-0.08,1.63,0.28,2.11,1.45
				c0.24,0.57,0.39,1.27,0.48,2.16c0.17,1.76,0.33,3.52,0.48,5.28c0.17,2.01,0.35,4.01,0.55,6.02c0.22,2.22,0.54,4.56,1.68,6.75
				c0.9,1.72,2.42,2.78,4.17,2.89c1.73,0.12,3.38-0.74,4.47-2.29c0.11-0.16,0.24-0.32,0.36-0.47c0.27-0.34,0.57-0.73,0.81-1.19
				c0.95-1.82,2.14-4.08,1.99-6.82c-0.08-1.49,0-2.98,0.1-4.64c0.05-0.73,0.12-0.92,0.1-0.92c0.04-0.03,0.13-0.06,0.3-0.09
				c0.21,0.78,0.26,1.64,0.32,2.53c0.03,0.42,0.05,0.83,0.09,1.25c0.1,1.05,0.19,2.11,0.27,3.17c0.14,1.67,0.27,3.33,0.47,4.99
				c0.19,1.6,1.05,2.87,2.41,3.58c1.23,0.64,2.76,0.71,4.05,0.22c0.15,0.73,0.28,1.43,0.38,2.13c0.27,2.05,0.52,4.1,0.77,6.15
				c0.2,1.63,0.4,3.26,0.6,4.88c0.27,2.13,1.08,3.71,2.4,4.71c1.05,0.79,2.4,1.19,4.03,1.19c0.58,0,1.19-0.05,1.83-0.15
				c1.98-0.31,3.4-1.27,4.22-2.86c1.77-3.46,2.91-7.18,3.38-11.05c0.15-1.21,0.19-2.41,0.23-3.58c0.02-0.69,0.05-1.38,0.09-2.06
				l0.03-0.43c0.05-0.89,0.1-1.73,0.29-2.5c0.15-0.61,0.41-1.04,0.72-1.16c0.32-0.13,0.81,0,1.35,0.35
				c2.29,1.49,5.52,1.32,7.67-0.42c2.56-2.07,3.43-4.92,4.06-7.44c0.54-2.18,1-4.41,1.45-6.57c0.19-0.9,0.38-1.81,0.57-2.71
				c0.19-0.87,0.36-1.26,0.58-1.45c0.14,0.23,0.23,0.58,0.36,1.19c0.18,0.81,0.32,1.63,0.47,2.45l0.17,0.96
				c0.41,2.31,1.31,5.07,4.58,6.14c0.08,0.08,0.17,0.15,0.26,0.21c2.5,1.76,5.26,1.6,7.38,1.26c1.62-0.26,2.74-1.25,3.15-2.78
				c0.34-1.29,0.59-2.61,0.86-4.04c0.12-0.66,0.23-1.32,0.34-1.99c0.17-1.03,0.33-2.06,0.57-3.08c0.09-0.39,0.16-0.62,0.21-0.75
				c0.1,0.01,0.24,0.03,0.41,0.07c0.34,0.97,0.23,2.06,0.11,3.29l-0.03,0.34c-0.05,0.51-0.12,1.03-0.18,1.54
				c-0.15,1.16-0.3,2.37-0.28,3.59c0.03,1.52,0.18,3.04,0.33,4.51c0.07,0.73,0.15,1.46,0.2,2.19c0.2,2.49,1.48,4.64,3.5,5.89
				c2.01,1.24,4.46,1.42,6.75,0.5c0.6-0.24,1.18-0.74,1.57-1.34c1.17-1.81,2.53-4.27,2.69-7.16c0.21-3.65,0.44-7.78,0.35-11.81
				c-0.04-1.51,0-3.02,0.03-4.53c0.06-2.61,0.12-5.32-0.18-8.01c-0.07-0.63-0.14-1.35-0.1-2.02c0.02-0.38,0.03-0.59,0.42-0.72
				l0.05,0.08c0.4,0.62,0.77,1.19,1.2,1.72c0.72,0.89,1.4,1.61,2.1,2.2c1.94,1.64,3.65,1.7,4.74,1.47c1.51-0.33,2.82-1.45,3.59-3.07
				c0.81-1.71,1.06-3.63,1.19-5.11c0.13-1.53,0.01-3.06-0.1-4.53l-0.05-0.69c-0.29-3.87,0.71-7.66,3.04-11.59
				c0.11-0.19,0.39-0.42,0.67-0.64c0.25-0.2,0.5-0.41,0.72-0.63c0.16-0.16,0.34-0.32,0.51-0.48c0.57-0.51,1.21-1.1,1.59-1.91
				c1.65-3.55,3.01-6.7,4.15-9.63c0.72-1.86,1.23-3.76,1.5-5.65c0.33-2.3,0.41-4.65,0.44-6.85c0.02-1.34,0.23-2.27,0.7-3.11
				c0.48-0.85,0.56-1.87,0.58-2.57c0.03-0.91,0.06-1.83,0.1-2.74C489.77,113.72,489.88,110.91,489.75,108.13z M348.31,97.68
				c1.64-7.93,4.71-15.22,9.14-21.66c3.55-5.16,7.15-9.36,11.03-12.85c3.03-2.73,6.44-5.17,9.74-7.53
				c5.19-3.71,11.28-6.47,19.16-8.66c4.78-1.33,10.06-1.99,16.62-2.05c9.64-0.11,19.03,1.75,27.96,5.48
				c6.24,2.61,12.28,6.35,17.96,11.11c8.22,6.89,14.25,15.63,18.43,26.71c3.67,9.71,5.09,20.11,4.21,30.89
				c-0.13,1.58-0.22,3.16-0.31,4.74c-0.14,2.45-0.28,4.99-0.57,7.46c-0.17,1.47-0.73,2.94-1.32,4.5l-0.33,0.87
				c-0.33,0.9-0.73,1.78-1.12,2.65c-0.42,0.93-0.83,1.86-1.19,2.82c-0.36,0.97-0.79,1.59-1.45,2.07c-1.51,1.1-2.97,2.41-3.42,4.54
				c-0.01,0.01-0.01,0.02-0.02,0.03c-1.98,2.3-2.33,4.98-2.67,7.57l-0.15,1.12c-0.34,2.34-0.24,4.65-0.14,6.88
				c0.05,1.11,0.1,2.22,0.09,3.34c0,0.46-0.1,0.97-0.29,1.53c-0.86-0.83-1.72-1.7-2.33-2.63c-0.94-1.44-2.16-2.04-3.85-2.05
				c-4.08,0.05-6.53,2.43-6.56,6.37c-0.01,1.42,0.09,2.84,0.19,4.21c0.05,0.67,0.09,1.33,0.13,2c0.02,0.32,0,0.65-0.02,0.97
				l-0.24,4.55c-0.19,3.69-0.39,7.38-0.57,11.07c-0.02,0.46,0,0.93,0.02,1.4c0.03,0.53,0.05,1.03-0.01,1.47
				c-0.13,1.01-0.39,2.06-0.78,3.12c-0.04,0.12-0.09,0.24-0.54,0.17c-0.14-0.02-0.2-0.06-0.21-0.06c-0.01-0.01-0.06-0.1-0.08-0.3
				c-0.06-0.6-0.14-1.2-0.21-1.8c-0.26-2.17-0.51-4.22-0.4-6.33c0.04-0.73,0.12-1.46,0.19-2.19c0.24-2.2,0.48-4.47-0.3-6.8
				c-0.34-1.02-0.92-2.08-1.76-3.24c-0.8-1.11-2.1-1.72-3.57-1.63c-0.38,0.02-0.76,0.03-1.13,0.04c-0.43,0.01-0.87,0.02-1.3,0.04
				c-3,0.16-4.53,1.48-5.13,4.4c-0.31,1.5-0.58,3.01-0.86,4.52c-0.16,0.87-0.32,1.75-0.48,2.62c-0.04,0.24-0.1,0.47-0.16,0.71
				c-0.73,0.05-1.3-0.3-2.19-0.86c-0.26-0.16-0.52-0.32-0.78-0.47c-0.02-0.05-0.04-0.12-0.06-0.22l-0.23-0.91
				c-0.24-0.94-0.47-1.83-0.54-2.7c-0.21-2.63-1.51-4.79-3.98-6.63c-0.99-0.73-2.49-0.95-4.12-0.59c-1.77,0.39-3.23,1.35-3.89,2.57
				c-0.88,1.61-1.58,3.37-2.04,5.09c-0.4,1.51-0.71,3.05-1.01,4.54c-0.26,1.28-0.51,2.55-0.83,3.81c-0.36,1.45-1.07,2.54-2.15,3.32
				c-0.15-0.06-0.3-0.14-0.44-0.22c-1.9-1.16-4.3-1.39-6.4-0.6c-2.07,0.78-3.59,2.4-4.26,4.55c-0.56,1.81-0.81,3.71-0.96,5.17
				c-0.13,1.23-0.16,2.46-0.19,3.65c-0.05,2.08-0.1,4.04-0.62,5.94c-0.36,1.33-0.94,2.68-1.51,3.94c-0.14,0.33-0.32,0.55-0.47,0.6
				c-0.1,0.04-0.26,0.03-0.45-0.01c-0.42-1.11-0.59-2.42-0.77-3.79c-0.06-0.43-0.11-0.87-0.18-1.3c-0.21-1.42-0.38-2.85-0.54-4.27
				c-0.15-1.34-0.31-2.69-0.5-4.03c-0.24-1.69-0.93-3.2-2.04-4.48c-0.64-0.74-1.71-1.7-3.54-1.49c-0.34,0.04-0.68,0.07-1.04,0.09
				c-0.22-1.09-0.28-2.23-0.34-3.42c-0.03-0.56-0.06-1.12-0.1-1.68l-0.1-1.24c-0.09-1.15-0.17-2.31-0.32-3.45
				c-0.23-1.75-1.09-3.31-2.64-4.76c-0.28-0.27-1.05-0.89-1.98-0.92c-2.63-0.09-4.62,0.45-6.28,1.65c-1.2,0.87-1.8,1.9-1.84,3.16
				l-0.1,3.04c-0.05,1.4-0.1,2.8-0.14,4.2c-0.03,1.03-0.21,1.88-0.55,2.59c-0.58-4.59-1.04-8.69-1.41-12.5
				c-0.22-2.27-0.7-4.9-2.58-7.25c-1.63-2.03-3.5-2.92-5.76-2.73c-0.3,0.03-0.6,0.03-0.91,0.03c-0.42-0.73-0.63-1.58-0.84-2.47
				l-0.13-0.52c-0.17-0.66-0.27-1.33-0.37-2c-0.11-0.74-0.22-1.47-0.4-2.19c-0.86-3.48-1.81-7.21-2.88-10.98
				c-0.67-2.38-2.27-3.97-3.81-5.52c-0.3-0.3-0.61-0.61-0.91-0.92l-0.16-0.17c-0.73-0.76-1.41-1.48-1.87-2.27
				c-3.53-6.12-6.3-12.75-8.23-19.71c-1.1-3.94-1.82-8.22-2.22-13.07C346.61,110.69,346.99,104.05,348.31,97.68z"/>
			<g>
				<path class="st18" d="M436.55,213.28c0.14-0.85,0.31-2.51,0.73-4.1c0.39-1.47,0.52-2.91,0.31-4.4
					c-0.13-0.92-0.21-1.86-0.16-2.78c0.09-1.61,0.75-2.07,2.3-2.33c2.37-0.4,4.11,1.46,4.43,3.48c0.34,2.13,0.52,4.29,0.81,6.44
					c0.16,1.16,0.38,2.32,0.62,3.47c0.54,2.56-0.27,4.88-1.21,7.19c-0.8,1.95-4.31,2.3-5.98,0.15
					C436.97,218.53,436.62,216.35,436.55,213.28z M441.25,218.68c1.36-1.45,1.08-3.04,0.79-4.62c-0.48-2.67-0.97-5.33-1.44-8
					c-0.12-0.67-0.21-1.35-0.32-2.02c-0.16,0.01-0.31,0.02-0.47,0.02c0.76,2.88-0.1,5.63-0.37,8.44
					C439.24,214.65,439.4,216.83,441.25,218.68z"/>
			</g>
			<g>
				<path class="st18" d="M375.14,135.52c-4.03,1.24-5.2,1.12-6.69-0.83c0.49-0.33,0.94-0.71,1.45-0.97
					c0.55-0.28,1.16-0.44,1.72-0.7c1.59-0.72,3.14-1.44,3.88-3.24c0.48-1.18,1.61-1.46,2.78-1.52c0.59-0.03,1.17,0.31,1.01,0.8
					c-0.48,1.53,0.26,3.4-1.49,4.57c3.13,2.04,4.71,4.95,6.08,8.04c0.8,1.8,1.85,3.49,2.55,5.33c0.88,2.31,1.51,4.71,2.26,7.06
					c0.98,3.07,2.85,5.44,5.6,7.15c1.85,1.14,3.77,1.11,5.62,0.22c2.74-1.31,5.63-1.76,8.58-1.61c1.29,0.06,2.67,0.62,3.79,1.3
					c3.01,1.81,6.2,2.61,9.69,2.43c1.23-0.06,2.48-0.04,3.7,0.13c1.61,0.22,2.5-0.54,3.29-1.83c1.75-2.84,3.67-5.58,5.42-8.43
					c1.38-2.25,3.38-3.75,5.63-4.96c0.98-0.52,2.04-0.88,3.05-1.34c1.68-0.76,3.41-1.44,4.53-3.07c0.45-0.65,1.09-1.19,1.72-1.68
					c3.47-2.68,4.84-6.53,5.62-10.59c0.41-2.1,0.35-4.3,0.4-6.46c0.01-0.47-0.39-0.97-0.64-1.43c-0.5-0.9-1.04-1.79-1.54-2.65
					c0.37-0.46,0.59-0.75,0.83-1.03c0.56-0.66,1.11-0.61,1.75-0.06c0.75,0.64,1.57,1.2,2.36,1.8c1.19,0.89,2.39,0.9,3.62,0.08
					c0.35-0.24,0.76-0.51,1.16-0.53c0.37-0.02,0.91,0.18,1.09,0.46c0.73,1.12-0.08,3.6-1.29,4.16c-0.83,0.38-1.66,0.77-2.43,1.13
					c-0.14,1.53-0.29,3-0.42,4.46c-0.32,3.58-1.78,6.78-3.33,9.94c-0.45,0.92-1.24,1.69-1.94,2.46c-1.34,1.47-2.65,2.98-4.13,4.3
					c-0.86,0.76-1.99,1.23-3.04,1.76c-0.94,0.48-1.9,0.93-2.9,1.27c-3.07,1.02-5.04,3.13-6.59,5.9c-1.3,2.32-2.98,4.42-4.49,6.61
					c-0.11,0.15-0.26,0.28-0.34,0.44c-1.75,3.42-4.82,4.17-8.29,4.08c-1.1-0.03-2.22-0.24-3.3-0.1c-2.95,0.39-5.63-0.53-8.32-1.47
					c-0.64-0.23-1.37-0.39-1.86-0.81c-2.12-1.79-4.56-1.32-6.95-1.06c-1.03,0.11-2.09,0.41-3.04,0.84
					c-3.56,1.6-6.83,1.01-10.07-0.96c-3.86-2.35-6.02-5.86-6.97-10.12c-1.15-5.18-3.13-10.04-5.34-14.82
					C378.11,138.12,376.99,136.49,375.14,135.52z"/>
			</g>
			<path class="st18" d="M405.47,101.24c-0.48-0.72-0.96-1.44-1.38-2.2l-0.17-0.31c-0.4-0.72-0.8-1.44-1.25-2.13
				c-0.78-1.19-1.58-2.36-2.41-3.58l-0.39-0.58c2.1-2.39,3.9-4.94,5.65-7.41c0.81-1.15,1.61-2.29,2.44-3.39l0.43-0.58l-1.07-3.94
				l-0.97-0.14c-0.04-0.01-0.08-0.01-0.14-0.01c-1.59-0.95-2.97-0.02-3.65,0.45c-1.24,0.85-2.03,1.96-2.68,2.94l-1.6,2.44
				c-0.82,1.26-1.65,2.51-2.47,3.75c-0.45-0.71-0.88-1.4-1.29-2.11c-1.57-2.69-3.59-5.76-6.72-8.09c-0.54-0.41-1.1-0.74-1.64-1
				c-0.94-0.45-1.65-0.21-1.99-0.03c-0.64,0.34-1.03,0.97-1.17,1.87l-0.1,0.63l1.19,1.54c0.62,0.82,1.25,1.64,1.92,2.43
				c1.06,1.24,1.76,2.72,2.51,4.29c0.21,0.45,0.43,0.9,0.65,1.34l2.75,5.48l-0.08,0.16c-0.32,0.62-0.63,1.23-0.92,1.84
				c-0.66,1.42-1.25,2.71-1.79,4.07c-0.3,0.74-0.43,1.58-0.39,2.36c0.05,0.97,0.78,1.83,1.47,2.18c1.16,0.58,2.35-0.41,2.58-0.61
				c0.4-0.36,0.66-0.78,0.87-1.12l1.34-2.15c1.86,3.67,3.88,7.37,7.57,10.03c0.84,0.6,1.71,0.89,2.71,0.89c0.09,0,0.18,0,0.26-0.01
				c1.47-0.07,2.48-1.05,2.57-2.49c0.05-0.75,0.05-1.9-0.47-3.09C407.03,103.6,406.24,102.4,405.47,101.24z"/>
			<g>
				<path class="st18" d="M424.63,128.5c-0.01-3.23-0.07-6.27-0.02-9.31c0.04-2.64-0.53-5.14-2.67-7.29c-1.88-1.87-2.1-4-1.74-6.17
					c0.28-1.73,0.86-3.42,1.37-5.12c0.71-2.33,1.03-4.69,0.59-7.09c-0.16-0.86-0.58-1.7-0.85-2.55c-1.19-3.71-1.84-7.47-1.87-11.29
					c-0.02-2.19,1.23-3.91,2.83-5.54c2.69-2.75,10.11-2.73,12.8,1.11c1.77,2.53,2.44,5.18,2.73,7.92c0.35,3.38,0.46,6.78-0.32,10.13
					c-0.48,2.05-1.04,4.1-1.78,6.1c-0.52,1.41-0.18,2.6,0.65,3.87c1.26,1.94,2.38,3.91,2.22,6.17c-0.2,2.7-0.87,5.22-3.79,6.91
					c-2.26,1.31-2.6,3.14-2.48,5.12c0.16,2.63,0.4,5.26,0.57,7.89c0.11,1.63,0.3,3.27,0.21,4.89c-0.07,1.33-0.37,2.67-0.8,3.95
					c-0.35,1.04-1.23,1.86-2.76,2.01c-1.2,0.12-2.54-0.48-3.11-1.69c-0.64-1.36-1.12-2.81-1.35-4.24
					C424.75,132.31,424.75,130.31,424.63,128.5z"/>
			</g>
		</g>
		<g>
			<path class="st19" d="M807.23,277.89c0.38,0.44,0.83,0.85,1.12,1.34c0.22,0.37,0.78,0.84,0.02,1.34
				c-0.09,0.06,0.15,1.02,0.45,1.2c0.68,0.4,0.7,1.1,1.02,1.65c0.07,0.12-0.15,0.39-0.16,0.6c0,0.17,0.07,0.38,0.19,0.51
				c0.21,0.23,0.49,0.39,0.7,0.62c0.1,0.11,0.1,0.31,0.15,0.47c-0.17,0-0.34,0-0.75,0c0.34,0.48,0.59,0.84,0.85,1.21
				c0.05-0.04,0.09-0.07,0.14-0.11c0.14,0.81,0.27,1.62,0.42,2.5c0.02,0-0.12,0.02-0.04,0.01c0,1,0.06,1.95-0.01,2.89
				c-0.14,1.82-0.3,3.64-0.57,5.44c-0.21,1.37-0.59,2.72-0.93,4.07c-0.18,0.71-0.5,1.38-0.65,2.09c-0.17,0.77-0.22,1.57-0.33,2.36
				c-0.02,0.15-0.02,0.42-0.09,0.44c-0.69,0.21-1.06,0.53-0.55,1.27c0,0.01-0.33,0.25-0.4,0.42c-0.77,2.26-0.81,4.92-3.52,6.21
				c0.25,0.09,0.46,0.17,0.55,0.2c-0.37,0.38-0.76,0.81-1.18,1.21c-0.96,0.91-1.94,1.81-2.92,2.71c-0.11,0.1-0.27,0.13-0.4,0.2
				c-0.68,0.34-1.35,0.67-2.03,1.01c-0.14,0.07-0.28,0.2-0.43,0.21c-1.47,0.09-2.94,0.3-4.4,0.22c-2.42-0.14-4.1-1.72-5.7-3.33
				c-1.62-1.62-2.54-3.61-3.32-5.76c-0.55-1.51-1.03-2.98-1.15-4.58c-0.16-2.04-0.54-4.07-0.62-6.11c-0.09-2.26,0.06-4.53,0.09-6.79
				c0.02-1.05-0.04-2.11,0.04-3.16c0.09-1.15,0.21-2.32,0.48-3.44c0.38-1.54,0.69-3.11,1.69-4.45c0.37-0.49,0.4-1.23,0.65-1.82
				c0.82-1.94,2.29-3.39,3.96-4.53c1.24-0.85,2.73-1.34,4.14-1.93c2.35-0.98,4.75-1.15,7.1-0.03c0.76,0.36,1.44,0.69,2.35,0.75
				c1.51,0.11,2.46,1.46,3.66,2.26c0.16,0.11,0.16,0.46,0.24,0.69C807.14,277.93,807.19,277.91,807.23,277.89z M791.58,310.04
				c0.62,0.39,1.44,0.52,1.12,1.46c-0.03,0.09,0.36,0.31,0.53,0.49c0.72,0.77,1.61,0.41,2.44,0.34c0.45-0.04,0.98-0.11,1.31-0.37
				c1.19-0.94,1.8-2.27,2.46-3.63c1.23-2.54,2.35-5.08,3.04-7.85c0.68-2.75,1.98-5.35,1.59-8.3c-0.22-1.61-0.31-3.24-0.69-4.81
				c-0.36-1.46-1.03-2.83-1.54-4.25c-0.15-0.42-0.3-0.86-0.36-1.3c-0.1-0.76-1.18-1.6-1.94-1.47c-0.78,0.13-1.56,0.28-2.35,0.33
				c-1.77,0.1-3.47,0.51-4.49,2.04c-0.74,1.11-1.26,2.42-1.63,3.71c-0.33,1.15-0.33,2.39-0.48,3.59c-0.06,0.46-0.11,0.91-0.16,1.37
				c-0.1,0.92-0.22,1.83-0.27,2.75c-0.03,0.63,0.22,1.32,0.06,1.89c-0.46,1.6,0.15,3.14,0.13,4.7c0,0.31-0.06,0.61-0.08,0.84
				c0.11,0.42,0.29,0.83,0.31,1.24c0.02,0.39-0.23,0.8-0.2,1.19c0.05,0.59,0.23,1.16,0.36,1.74c0.08,0.39,0.16,0.77,0.25,1.19
				c0.01,0-0.17-0.02-0.35-0.04c-0.05,0.08-0.1,0.15-0.15,0.23c0.28,0.22,0.57,0.45,0.99,0.77c0-0.01-0.06,0.25-0.11,0.51
				c0.13-0.18,0.27-0.35,0.4-0.53c0.21,0.57,0.43,1.14,0.65,1.74C792.08,309.8,791.89,309.89,791.58,310.04z"/>
			<path class="st19" d="M763.58,303.32c0.11,0.1,0.48,0.28,0.49,0.47c0.04,0.93-0.01,1.86-0.02,2.54c0.23,0.74,0.43,1.28,0.56,1.83
				c0.17,0.74,0.14,1.56,0.44,2.24c0.4,0.91,0.99,1.74,1.61,2.53c0.12,0.16,0.76,0.08,1.06-0.08c1.77-0.97,3.4-2.1,4.92-3.48
				c0.98-0.9,1.89-2.32,3.67-2.07c0.99,0.14,1.5,0.6,1.65,1.56c0.1,0.68,0.42,1.35,0.75,1.97c0.33,0.61,0.19,1.13-0.4,1.26
				c0.05,0.39,0.22,0.81,0.12,1.15c-0.21,0.72-0.28,1.4-0.26,2.16c0.03,0.9-0.43,1.75-1.26,2.36c-0.95,0.7-1.78,1.56-2.74,2.24
				c-0.56,0.4-1.27,0.62-1.93,0.86c-1.11,0.4-2.24,0.76-3.38,1.09c-0.38,0.11-0.81,0.08-1.2,0.04c-1.27-0.14-2.54-0.38-3.81-0.46
				c-2.59-0.16-3.71-2.13-5.07-3.89c-1.48-1.93-2.4-4.12-3.22-6.36c-0.34-0.93-0.39-1.97-0.55-2.97c-0.06-0.34-0.07-0.68-0.1-1.02
				c-0.23-2.07-0.58-4.14-0.65-6.21c-0.05-1.4,0.26-2.82,0.49-4.22c0.26-1.58,0.33-3.27,0.99-4.67c0.67-1.44,0.46-2.94,0.92-4.37
				c0.33-1.02,0.7-2.02,1.04-3.03c0.75-2.25,1.78-4.33,2.92-6.38c0.22-0.39,0.7-0.66,1.1-0.93c0.95-0.64,2.11-1.07,2.83-1.9
				c0.99-1.15,2.25-1.12,3.49-1.35c0.34-0.07,0.7-0.12,1.04-0.09c0.45,0.04,0.9,0.15,1.35,0.24c0.06,0.01,0.13,0.06,0.19,0.05
				c1.49-0.31,2.57,0.44,3.45,1.47c0.44,0.52,1.5,0.48,1.35,1.59c-0.04,0.26,0.59,0.59,0.87,0.93c1.26,1.51,2.46,3.07,2.4,5.19
				c-0.01,0.49-0.07,0.98-0.09,1.48c-0.03,0.94-0.92,1.58-1.81,1.28c-0.16-0.05-0.38-0.2-0.47-0.15c-0.92,0.6-1.37-0.14-1.93-0.63
				c-1.26-1.12-2.47-2.32-3.85-3.29c-0.68-0.48-1.33,0.34-1.82,0.81c-1.05,1.02-2.03,2.11-3.02,3.19c-0.11,0.12-0.12,0.35-0.16,0.54
				c-0.08,0.35-0.15,0.71-0.23,1.06c-0.26,1.01-0.58,2-0.77,3.02c-0.25,1.28-0.42,2.57-0.59,3.86c-0.12,0.84-0.16,1.69-0.29,2.53
				c-0.1,0.7-0.37,1.39-0.38,2.09c-0.01,0.59,0.23,1.19,0.38,1.78C763.81,301.9,763.96,302.62,763.58,303.32z"/>
			<path class="st19" d="M818.78,315.23c-0.66,1.36-1.25,2.65-1.94,3.89c-0.11,0.19-0.79,0.32-0.94,0.18
				c-0.49-0.45-0.89-0.24-1.4-0.08c-0.83,0.26-1.69,0.51-1.88-0.84c-0.06-0.43-0.6-0.83-0.57-1.22c0.11-1.33,0.09-2.9,1.33-3.64
				c1.07-0.65,2.44-0.8,3.7-1.11c0.16-0.04,0.49,0.25,0.6,0.46C818.07,313.61,818.39,314.39,818.78,315.23z"/>
		</g>
		<path class="st19" d="M599.13,212.9c0.9-1.81,2.36-3.13,4.37-3.74c3.26-0.98,6.52-1.94,9.83-2.74c1.96-0.48,4.04-1.44,5.89,0.38
			c2.41-0.16,3.06,1.81,4.15,3.25c-1.6,2.09-3.12,4.07-4.71,6.14c0.45,0.11,1.22,0.13,1.81,0.47c0.64,0.36,1.13,1,1.6,1.44
			c-0.31,1.35-1.05,1.83-2.1,1.97c-3.97,0.55-7.93,1.22-11.92,1.59c-0.96,0.09-2.54,0.22-2.81-1.62c-0.15-1-1.78-1.83,0.35-3
			c-1.93-0.22-3.28-0.38-4.44-0.51C600.42,215.23,599.8,214.12,599.13,212.9z"/>
	</g>
</g>
</svg>
