<?xml version="1.0" encoding="utf-8"?>
<!-- Generator: Adobe Illustrator 27.0.0, SVG Export Plug-In . SVG Version: 6.00 Build 0)  -->
<svg version="1.1" xmlns="http://www.w3.org/2000/svg" xmlns:xlink="http://www.w3.org/1999/xlink" x="0px" y="0px"
	 viewBox="0 0 864 360" xml:space="preserve" width="200px">
<style type="text/css">
	.st0{fill:#FFFAE9;}
	.st1{filter:url(#Adobe_OpacityMaskFilter);}
	.st2{mask:url(#SVGID_1_);}
	.st3{fill:#DD9933;}
	.st4{filter:url(#Adobe_OpacityMaskFilter_00000006708719857364998920000016108990326543625859_);}
	.st5{stroke:#000000;stroke-width:1.4608;stroke-miterlimit:10;}
	.st6{stroke:#000000;stroke-width:1.5345;stroke-miterlimit:10;}
	.st7{fill:none;stroke:#231F20;stroke-width:0.5;stroke-miterlimit:10;}
	.st8{fill:#333333;}
	.st9{fill:none;stroke:#FFFAE9;stroke-width:0.5;stroke-miterlimit:10;}
	.st10{filter:url(#Adobe_OpacityMaskFilter_00000121248214297502143930000015950484915478644904_);}
	.st11{mask:url(#SVGID_00000168101379297811114860000012943345062362985639_);fill:#FFFAE9;}
	.st12{filter:url(#Adobe_OpacityMaskFilter_00000029037933045731892810000013399970454262560392_);}
	.st13{mask:url(#SVGID_00000078740297293463456010000013898888509908397975_);}
	.st14{filter:url(#Adobe_OpacityMaskFilter_00000013156088657059291440000016927184611149609407_);}
	.st15{mask:url(#SVGID_00000098942139342868257600000004728842315526322872_);}
	.st16{fill:none;stroke:#FFFAE9;stroke-width:3;stroke-linecap:round;stroke-miterlimit:10;}
	.st17{fill:#878787;}
	.st18{fill:transparent;}
	.st19{fill:#BF9931;}
	.st20{fill:none;stroke:#333333;stroke-miterlimit:10;}
	.st21{filter:url(#Adobe_OpacityMaskFilter_00000072254576776216782750000016165644578016088207_);}
	.st22{mask:url(#SVGID_00000099625911270340507700000002051175928196016275_);}
	.st23{fill:none;stroke:#878787;stroke-width:0.5;stroke-miterlimit:10;}
	.st24{fill:#4C4C4B;}
	.st25{filter:url(#Adobe_OpacityMaskFilter_00000016047519176341383220000013457424517644695229_);}
	.st26{mask:url(#SVGID_00000121276208506700009980000011317684710341090206_);}
	.st27{filter:url(#Adobe_OpacityMaskFilter_00000007403880761994893190000014865023600654403467_);}
	.st28{filter:url(#Adobe_OpacityMaskFilter_00000057121790285372465340000014480042631475929218_);}
	.st29{mask:url(#SVGID_00000083088994298132662310000004517092376296656538_);}
	.st30{filter:url(#Adobe_OpacityMaskFilter_00000056425702268121650820000012700233067054952090_);}
	.st31{mask:url(#SVGID_00000064327835544249063540000009217037084076172220_);}
	.st32{filter:url(#Adobe_OpacityMaskFilter_00000141417567239054269720000011443906463761426599_);}
	.st33{mask:url(#SVGID_00000142146011154104594120000004948292458145487020_);}
	.st34{filter:url(#Adobe_OpacityMaskFilter_00000121281344497401844780000003018658304627736987_);}
	.st35{fill:#231F20;}
	.st36{fill:#FFFAE9;stroke:#000000;stroke-width:0.8169;stroke-miterlimit:10;}
	.st37{fill:#AAD9BD;}
	.st38{opacity:0.37;fill:none;stroke:#FFFAE9;stroke-width:0.5;stroke-miterlimit:10;}
	.st39{filter:url(#Adobe_OpacityMaskFilter_00000171693684777730089370000000089310166725788846_);}
	.st40{mask:url(#SVGID_00000134962187727599347180000010891041203402663572_);}
	.st41{filter:url(#Adobe_OpacityMaskFilter_00000045586550620581533330000005535484927016361611_);}
	.st42{mask:url(#SVGID_00000181798549538880093380000002293731674860531368_);}
	.st43{filter:url(#Adobe_OpacityMaskFilter_00000114771885084171098160000003352023173607550365_);}
	.st44{filter:url(#Adobe_OpacityMaskFilter_00000046309989979879873000000007200680050118112664_);}
	.st45{mask:url(#SVGID_00000043454990400385788750000009916178988328440448_);}
	.st46{filter:url(#Adobe_OpacityMaskFilter_00000017487570741915067990000014120716982161246899_);}
</style>
<g id="Layer_1">
	<g>
		<defs>
			<filter id="Adobe_OpacityMaskFilter" filterUnits="userSpaceOnUse" x="337.43" y="35.94" width="149.84" height="189.13">
				
					<feColorMatrix  type="matrix" values="-1 0 0 0 1  0 -1 0 0 1  0 0 -1 0 1  0 0 0 1 0" color-interpolation-filters="sRGB" result="source"/>
				<feFlood  style="flood-color:white;flood-opacity:1" result="back"/>
				<feBlend  in="source" in2="back" mode="normal"/>
			</filter>
		</defs>
		<!-- <mask maskUnits="userSpaceOnUse" x="337.43" y="35.94" width="149.84" height="189.13" id="SVGID_1_">
		</mask> -->
		<g class="st2">
			<g>
				<path class="st0" d="M487.22,106.25c-0.16-3.46-0.59-6.94-1.28-10.35c-0.63-3.1-1.62-6.17-2.57-9.14l-0.21-0.67
					c-1.63-5.09-4.25-9.67-6.36-13.09c-2.41-3.92-5.37-7.78-9.05-11.82c-5.21-5.7-11.36-10.63-18.28-14.66
					c-8.03-4.68-16.41-7.81-24.89-9.3c-3.48-0.61-7.09-1.02-10.72-1.21c-4.09-0.22-8.54,0.08-14.01,0.92
					c-3.83,0.59-7.91,1.33-11.82,2.74c-1.78,0.64-3.55,1.4-5.25,2.14c-1.4,0.6-2.86,1.23-4.3,1.78c-3.83,1.46-7.22,3.73-10.5,5.93
					l-0.83,0.55c-2.85,1.9-5.34,4.21-7.65,6.42c-3.21,3.07-6.2,6.61-9.12,10.8c-2.68,3.85-4.62,7.98-6.32,11.88
					c-3.64,8.34-5.72,16.34-6.38,24.48c-0.71,8.7,0.15,17.24,2.55,25.38c2,6.79,4.81,12.72,8.58,18.13c0.3,0.43,0.49,0.8,0.57,1.13
					c0.58,2.35,1.68,4.28,3.37,5.91c1.52,1.47,3.14,3.31,3.71,5.83l0.4,1.76c0.5,2.22,1,4.44,1.47,6.67
					c0.23,1.13,0.44,2.26,0.65,3.4c0.33,1.8,0.66,3.67,1.11,5.48c0.76,3.06,2.78,4.56,5.82,4.33c1.42-0.12,2.25,0.44,2.86,1.91
					c0.27,0.64,0.44,1.42,0.54,2.39c0.18,1.78,0.33,3.57,0.48,5.35c0.18,2.03,0.35,4.05,0.56,6.07c0.22,2.17,0.52,4.47,1.62,6.57
					c0.79,1.51,2.11,2.44,3.62,2.54c1.51,0.1,2.91-0.64,3.88-2.01c0.12-0.17,0.25-0.34,0.38-0.5c0.26-0.34,0.54-0.69,0.75-1.09
					c0.92-1.76,2.07-3.95,1.93-6.52c-0.09-1.55-0.01-3.08,0.1-4.79c0.09-1.42,0.1-1.63,1.63-1.79c0.4,1.03,0.47,2.15,0.54,3.32
					c0.03,0.41,0.05,0.83,0.09,1.24c0.11,1.08,0.19,2.16,0.28,3.24c0.13,1.64,0.27,3.34,0.47,5c0.17,1.38,0.89,2.46,2.05,3.06
					c1.21,0.63,2.76,0.62,3.94-0.01c0.1-0.06,0.21-0.1,0.35-0.16c0.04,0.21,0.08,0.41,0.12,0.61c0.17,0.86,0.34,1.68,0.44,2.48
					c0.27,2.07,0.52,4.15,0.78,6.22c0.2,1.65,0.4,3.3,0.61,4.94c0.25,1.95,0.97,3.39,2.15,4.28c0.93,0.7,2.15,1.06,3.64,1.06
					c0.55,0,1.13-0.05,1.74-0.14c1.76-0.27,3.02-1.11,3.73-2.5c1.76-3.43,2.88-7.11,3.34-10.93c0.14-1.19,0.18-2.4,0.22-3.57
					c0.02-0.7,0.05-1.4,0.09-2.1l0.03-0.44c0.05-0.89,0.11-1.81,0.31-2.65c0.21-0.88,0.61-1.46,1.17-1.68
					c0.55-0.22,1.27-0.07,2.03,0.42c2.07,1.35,4.97,1.18,6.91-0.38c2.41-1.95,3.26-4.71,3.86-7.14c0.54-2.2,1.01-4.44,1.46-6.62
					c0.19-0.92,0.38-1.84,0.58-2.75c0.28-1.28,0.58-1.96,1.47-2.17c0.54,0.35,0.69,0.91,0.88,1.76l0.03,0.15
					c0.19,0.84,0.34,1.69,0.48,2.54l0.17,0.94c0.39,2.17,1.24,4.79,4.28,5.69c0.03,0.02,0.06,0.05,0.1,0.08
					c0.07,0.07,0.15,0.14,0.23,0.19c2.31,1.62,4.8,1.49,6.93,1.15c1.34-0.21,2.27-1.02,2.6-2.28c0.34-1.29,0.59-2.61,0.83-3.88
					l0.03-0.15c0.12-0.66,0.23-1.32,0.34-1.98c0.17-1.05,0.34-2.13,0.59-3.17c0.13-0.55,0.29-1.14,0.49-1.27
					c0.2-0.12,0.78-0.02,1.37,0.11c0.59,1.24,0.45,2.6,0.31,4.03l-0.04,0.34c-0.05,0.53-0.12,1.06-0.19,1.58
					c-0.15,1.15-0.3,2.34-0.28,3.53c0.02,1.51,0.18,3.03,0.33,4.5c0.08,0.74,0.15,1.48,0.21,2.23c0.18,2.29,1.35,4.26,3.2,5.41
					c1.83,1.13,4.08,1.3,6.17,0.45c0.47-0.19,0.94-0.59,1.25-1.08c1.13-1.76,2.45-4.13,2.61-6.89c0.22-3.88,0.44-7.88,0.35-11.89
					c-0.04-1.54,0-3.11,0.03-4.63c0.06-2.62,0.12-5.33-0.18-8c-0.07-0.66-0.15-1.43-0.11-2.16c0.05-0.86,0.29-1.32,1.49-1.5
					c0.12,0.18,0.23,0.35,0.34,0.52c0.38,0.59,0.74,1.14,1.16,1.66c0.69,0.86,1.36,1.56,2.02,2.12c1.74,1.47,3.23,1.53,4.17,1.33
					c1.3-0.28,2.45-1.27,3.13-2.71c0.77-1.62,1.01-3.48,1.14-4.92c0.13-1.48,0.01-2.99-0.1-4.45l-0.06-0.72
					c-0.3-4.06,0.74-8.04,3.18-12.15c0.18-0.3,0.5-0.56,0.85-0.84c0.23-0.19,0.46-0.38,0.67-0.59c0.18-0.18,0.36-0.35,0.55-0.52
					c0.55-0.5,1.11-1.01,1.43-1.69c1.67-3.58,3.04-6.75,4.18-9.7c0.71-1.83,1.21-3.7,1.48-5.56c0.33-2.28,0.4-4.63,0.43-6.83
					c0.02-1.49,0.26-2.54,0.8-3.5c0.4-0.71,0.48-1.58,0.5-2.27c0.03-0.92,0.06-1.84,0.1-2.75
					C487.23,111.88,487.35,109.04,487.22,106.25z M419.65,71.83c2.72-2.78,10.23-2.76,12.96,1.13c1.79,2.56,2.47,5.24,2.76,8.01
					c0.35,3.42,0.46,6.86-0.32,10.25c-0.48,2.08-1.06,4.15-1.8,6.18c-0.52,1.42-0.18,2.63,0.65,3.91c1.27,1.96,2.41,3.96,2.24,6.24
					c-0.2,2.73-0.88,5.29-3.84,7c-2.28,1.32-2.63,3.17-2.51,5.19c0.16,2.66,0.4,5.32,0.58,7.98c0.11,1.65,0.3,3.31,0.22,4.95
					c-0.07,1.34-0.37,2.7-0.81,4c-0.36,1.06-1.25,1.89-2.79,2.03c-1.22,0.12-2.57-0.49-3.15-1.71c-0.65-1.38-1.14-2.84-1.36-4.29
					c-0.31-2-0.31-4.02-0.44-5.85c-0.01-3.26-0.07-6.34-0.02-9.42c0.04-2.67-0.53-5.21-2.7-7.38c-1.9-1.9-2.12-4.05-1.76-6.25
					c0.29-1.75,0.87-3.46,1.39-5.18c0.72-2.36,1.04-4.75,0.59-7.18c-0.16-0.87-0.59-1.72-0.86-2.58c-1.2-3.76-1.86-7.56-1.89-11.42
					C416.77,75.22,418.04,73.48,419.65,71.83z M379.91,74.89c0.14-0.91,0.54-1.55,1.18-1.89c0.34-0.18,1.07-0.42,2.01,0.03
					c0.55,0.26,1.11,0.61,1.66,1.02c3.17,2.36,5.22,5.46,6.8,8.19c0.41,0.72,0.85,1.42,1.3,2.14c0.84-1.27,1.68-2.56,2.53-3.84
					L397,78.1c0.65-0.99,1.45-2.12,2.71-2.98c0.69-0.47,2.08-1.42,3.7-0.45c0.07,0,0.12,0.01,0.16,0.02l0.96,0.15l1.08,3.98
					l-0.43,0.59c-0.83,1.12-1.65,2.28-2.47,3.44c-1.77,2.5-3.59,5.09-5.71,7.5l0.38,0.56c0.85,1.24,1.66,2.44,2.46,3.65
					c0.47,0.72,0.88,1.46,1.28,2.17l0.16,0.3c0.41,0.75,0.89,1.46,1.39,2.22c0.78,1.17,1.58,2.39,2.19,3.77
					c0.53,1.21,0.53,2.37,0.48,3.13c-0.09,1.46-1.12,2.45-2.6,2.52c-0.09,0-0.18,0.01-0.26,0.01c-1.02,0-1.89-0.29-2.74-0.9
					c-3.73-2.68-5.78-6.43-7.66-10.14c-0.42,0.67-0.83,1.33-1.24,1.98l-0.11,0.18c-0.21,0.35-0.47,0.78-0.88,1.15
					c-0.23,0.21-1.44,1.21-2.62,0.62c-0.81-0.4-1.43-1.33-1.48-2.2c-0.04-0.79,0.1-1.64,0.4-2.39c0.53-1.36,1.14-2.67,1.81-4.12
					c0.29-0.62,0.6-1.23,0.93-1.86l0.08-0.17l-2.78-5.55c-0.23-0.45-0.44-0.91-0.66-1.37c-0.75-1.59-1.46-3.08-2.54-4.34
					c-0.7-0.81-1.34-1.66-1.96-2.47c-0.27-0.35-0.53-0.7-0.8-1.04l-0.4-0.51L379.91,74.89z M460.56,124.4
					c-0.84,0.39-1.68,0.78-2.46,1.14c-0.14,1.55-0.29,3.03-0.42,4.52c-0.32,3.62-1.8,6.87-3.37,10.06
					c-0.46,0.93-1.25,1.71-1.97,2.49c-1.35,1.49-2.68,3.01-4.18,4.35c-0.87,0.77-2.02,1.24-3.07,1.78
					c-0.95,0.48-1.93,0.94-2.94,1.28c-3.1,1.03-5.1,3.16-6.67,5.97c-1.31,2.34-3.01,4.47-4.54,6.69c-0.11,0.15-0.26,0.28-0.34,0.45
					c-1.77,3.46-4.88,4.22-8.39,4.13c-1.11-0.03-2.25-0.24-3.34-0.1c-2.99,0.4-5.7-0.53-8.42-1.49c-0.65-0.23-1.39-0.39-1.89-0.82
					c-2.14-1.81-4.61-1.34-7.03-1.08c-1.05,0.11-2.11,0.41-3.07,0.85c-3.6,1.62-6.91,1.02-10.19-0.97
					c-3.91-2.38-6.09-5.93-7.05-10.24c-1.17-5.24-3.17-10.16-5.4-15c-0.85-1.84-1.99-3.49-3.86-4.48c-4.08,1.25-5.27,1.13-6.77-0.84
					c0.49-0.34,0.95-0.71,1.47-0.98c0.55-0.29,1.17-0.45,1.74-0.71c1.6-0.73,3.18-1.46,3.92-3.28c0.48-1.19,1.62-1.47,2.81-1.54
					c0.59-0.03,1.18,0.31,1.02,0.81c-0.49,1.55,0.27,3.44-1.51,4.63c3.17,2.06,4.76,5.01,6.16,8.13c0.81,1.82,1.87,3.53,2.58,5.39
					c0.89,2.33,1.53,4.76,2.29,7.15c0.99,3.11,2.89,5.51,5.67,7.23c1.87,1.16,3.81,1.12,5.69,0.22c2.77-1.32,5.7-1.78,8.68-1.63
					c1.31,0.06,2.7,0.62,3.84,1.31c3.04,1.83,6.27,2.64,9.8,2.46c1.24-0.06,2.51-0.04,3.75,0.13c1.63,0.22,2.53-0.54,3.33-1.85
					c1.77-2.88,3.72-5.65,5.49-8.53c1.4-2.28,3.42-3.8,5.7-5.02c0.99-0.53,2.06-0.89,3.09-1.36c1.71-0.77,3.45-1.46,4.58-3.11
					c0.45-0.66,1.1-1.2,1.74-1.7c3.52-2.72,4.89-6.6,5.69-10.71c0.41-2.13,0.36-4.35,0.41-6.54c0.01-0.48-0.39-0.98-0.65-1.45
					c-0.51-0.91-1.05-1.81-1.56-2.69c0.37-0.46,0.6-0.76,0.84-1.04c0.57-0.67,1.12-0.62,1.77-0.06c0.76,0.65,1.59,1.22,2.39,1.82
					c1.2,0.9,2.41,0.91,3.66,0.08c0.36-0.24,0.77-0.51,1.17-0.53c0.37-0.02,0.92,0.18,1.11,0.47
					C462.61,121.32,461.78,123.84,460.56,124.4z"/>
				<path class="st0" d="M442.63,208.87c-0.3-2.17-0.48-4.35-0.82-6.51c-0.33-2.05-2.09-3.93-4.49-3.52
					c-1.57,0.27-2.24,0.73-2.33,2.36c-0.05,0.93,0.03,1.88,0.16,2.81c0.21,1.52,0.09,2.97-0.31,4.46c-0.43,1.61-0.59,3.3-0.74,4.15
					c0.08,3.11,0.43,5.31,1.88,7.18c1.69,2.18,5.24,1.82,6.05-0.15c0.95-2.33,1.77-4.68,1.23-7.27
					C443.01,211.22,442.79,210.05,442.63,208.87z"/>
			</g>
		</g>
		<g>
			<path class="st0" d="M228.3,217.03c-5.86,4.99-16.56,6.37-29.37,6.56c1.05-2.72,2.25-5.58,3.44-8.45
				c7.19-17.35,16.33-36.82,25.49-48.45c0.6-0.75,2.25-2.27,2.7-3.47c0.15-0.3,0.15-0.45,0.15-0.75
				c-1.38-8.89-10.73-11.43-18.42-11.56c-3.77,0.01-7.83,1.23-12.2,3.65c-8.73,2.74-19.58,5.63-30.27,8.82
				c-12.8,3.8-25.45,8.36-34.02,14.56c-9.93,7.41-17.43,20.54-8.5,34.08c2.12,3.16,2.11-0.31,3.16-3.32
				c6.28-19.31,30.51-30.98,52.34-40.38c-12.33,12.09-25.54,29.16-38.76,46.97c-2.25,3.17-4.66,6.19-6.91,9.36
				c-10.09,1.53-19.43,4.57-26.65,10.02c0.6-3.17,0.59-6.48-0.18-9.49c-1.37-4.52-3.49-7.68-6.36-9.78
				c-5.13-3.75-12.67-3.43-20.95,0.06c-11.29,5-23.77,16.04-33.22,31.14c-0.3,0.45-0.6,0.91-0.9,1.36
				c-8.25,13.74-13.49,29.58-14.05,42.99c-0.71,17.33,6.26,30.88,23.74,30.83c16.13-0.04,33.12-12.75,49.65-31.03
				c11.87-12.99,23.44-28.55,34.39-44.4c3-4.23,5.86-8.45,8.86-12.68c9.04-0.93,18.23-1.1,26.98-0.67
				c-1.65,4.37-3.44,8.9-4.94,13.28c-5.23,15.39-9.11,30.77-9.38,44.33c-0.13,8.44,1.1,15.97,4.13,22.45
				c2.27,4.21,5.59,7.07,10.42,8.11c5.73,1.19,14.61-3.35,18.22-7.89c1.2-1.66,1.5-2.72,0.14-4.37c-2.42-2.86-2.87-2.71-4.69-6.47
				c-1.82-3.46-3.19-7.53-3.95-11.9c-2.6-13.71-0.68-30.44,2.9-44.32c1.04-4.22,2.24-8.14,3.59-11.77c2.86,0.44,5.58,0.74,8.29,1.33
				C222.33,239.2,234.36,228.62,228.3,217.03z M121.07,246.4c-13.52,18.12-26.58,34.58-38.01,44.41c-2.41,2.12-4.81,3.93-7.22,5.44
				c-21.52,13.92-28.16,7.31-27.75-5.35c0.42-13.11,8.35-32.73,15.11-42.39c0.45-0.6,0.9-1.21,1.35-1.96
				c6.16-8.61,18.47-23.56,28.42-23.28c6.63,0.13,6.35,5.71,4.55,10.39c-1.65,4.22-4.2,8.75-7.2,12.83
				c-6.46,8.91-15.48,16.62-24.81,20.41c-0.9,0.3,0.91,1.2,3.47,1.2c11.3-0.78,24.24-7.6,32.06-15.46c1.8-1.81,3.46-3.93,4.81-6.19
				c0.15-0.15,0.15-0.3,0.3-0.45c6.62-3.33,13.7-6.06,21.23-8.04C125.28,240.82,123.17,243.69,121.07,246.4z M186.1,215.19
				c-1.2,2.72-2.4,5.43-3.6,8.15c-7.84-0.13-15.83-0.41-23.81-0.24c1.8-2.72,3.45-5.28,5.25-7.85
				c18.47-27.33,34.23-49.07,44.48-49.1C211.13,166.14,198.53,187.72,186.1,215.19z"/>
			<path class="st0" d="M754.06,257.79c-3.15,5.13-19.95,33.51-29.75,33.54c-3.92-0.59-3.78-3.76-3.03-7.08
				c1.34-5.88,8.1-16,13.8-26.26l0-0.15c4.5-8,11.41-17.96,5.81-25.33c-3.03-4.06-6.65-5.71-10.26-5.7
				c-5.43,0.01-10.54,2.59-15.35,6.52c-0.91-3.31-4.99-6.47-8.76-6.46c-2.26,0.01-5.12,1.52-7.67,4.54
				c-5.26,6.49-11.11,16.31-16.06,26.57c-2.43,5.18-4.64,10.47-6.43,15.48c-2.2,2.67-4.71,5.01-7.82,6.71
				c-8.58,4.69-12.2,2.59-15.98-0.41c5.26-7.25,9.15-14.79,11.55-21.73c5.98-17.2,2.78-31.05-11.99-31.01l-0.15,0
				c-15.82,0.04-29.8,14.7-37.9,31.15c-2.22,4.51-3.99,9.16-5.23,13.67c-6.61,9.37-15.25,19.85-21.2,19.86
				c-8.29,0.02,0.1-17.63,9.56-33.48c7.2-11.93,15.16-22.8,17.12-24.16c-0.46-3.77-5.14-6.92-9.21-6.91l-0.15,0
				c-2.86,0.01-6.03,1.22-8.13,4.09c-4.36,5.59-11.26,16.01-16.81,27.02c-2.28,4.42-4.34,8.89-5.98,13.18
				c-7.71,9.5-18.17,20.34-25.43,20.36c-6.18,0.02-0.64-15.22,8.8-33.48c2.1-4.07,4.35-8.3,6.75-12.53
				c2.55-4.38,6.6-11.02,11.56-18.57c5.7-8.91,12.46-18.87,18.77-27.33l14.32-0.04c1.81,0,3.91-1.52,4.51-3.33
				c0.75-1.81-0.16-3.32-1.97-3.31l-11.76,0.03c3.61-4.53,6.91-8.16,9.32-10.42c-0.46-3.77-5.14-7.52-9.21-7.51
				c-3.01,0.01-6.02,1.97-8.28,4.69c-0.6,0.76-1.35,1.66-2.25,2.87c-1.95,2.72-4.65,6.19-7.51,10.42l-16.13,0.04
				c-1.81,0-3.91,1.52-4.51,3.33c-0.75,1.81,0.16,3.32,1.97,3.31l14.02-0.04c-5.86,8.15-12.31,17.82-18.47,27.33
				c-7.2,11.17-13.81,22.34-18.15,31.09l0,0.15c-2.67,5.37-4.92,10.56-6.51,15.24c-6.45,8.89-14.42,18.12-19.92,18.14
				c-8.29,0.02-0.05-17.63,9.56-33.48c7.2-11.93,15.16-22.8,17.12-24.16c-0.61-3.77-5.14-6.92-9.21-6.91l-0.15,0
				c-3.01,0.01-6.18,1.22-8.28,4.09c-0.75,0.91-3.3,4.38-4.81,6.64c0-1.66-2.59-10.69-11.63-10.67
				c-15.82,0.04-30.56,14.7-39.25,31.15c-3.94,7.43-6.64,15.23-7.65,22.18c-1.27,1.8-2.6,3.5-3.99,5.08
				c-1.73,1.96-3.53,3.71-5.39,5.26c-1.86,1.55-3.68,2.84-5.45,3.88c-1.78,1.04-3.44,1.81-4.99,2.31c-1.55,0.5-2.91,0.68-4.08,0.53
				c-0.9-0.11-1.48-0.52-1.75-1.22c-0.27-0.7-0.35-1.49-0.24-2.37c0.2-1.61,0.72-3.43,1.55-5.48c0.83-2.05,1.86-4.18,3.09-6.4
				c1.23-2.22,2.61-4.47,4.14-6.75c1.53-2.28,3.09-4.46,4.68-6.54c1.59-2.08,3.16-3.99,4.7-5.75c1.55-1.76,2.97-3.2,4.26-4.33
				c0.15,0.07,0.33,0.2,0.55,0.4c0.21,0.2,0.43,0.42,0.66,0.68c0.23,0.25,0.45,0.48,0.66,0.68c0.21,0.2,0.38,0.31,0.5,0.32
				c0.15-0.23,0.37-0.58,0.67-1.07c0.3-0.48,0.6-1.02,0.92-1.63c0.31-0.6,0.59-1.25,0.84-1.94c0.24-0.69,0.41-1.39,0.5-2.12
				c0.16-1.27,0.04-2.36-0.36-3.27c-0.4-0.91-0.98-1.68-1.74-2.29c-0.76-0.61-1.66-1.1-2.71-1.45c-1.05-0.35-2.14-0.6-3.27-0.74
				c-1.05-0.13-2.13-0.19-3.22-0.18c-1.09,0.01-2.11,0.1-3.04,0.25c-0.93,0.16-1.77,0.34-2.51,0.54c-0.74,0.2-1.28,0.43-1.63,0.69
				c-0.92-1.5-1.48-3.08-1.67-4.73c-0.19-1.65-0.29-3.29-0.31-4.9c-0.02-1.61-0.06-3.18-0.12-4.72c-0.07-1.54-0.42-2.93-1.06-4.17
				c-0.64-1.24-1.68-2.3-3.12-3.17c-1.44-0.87-3.53-1.48-6.26-1.82c-2.38-0.3-4.4-0.4-6.06-0.31c-1.66,0.09-3.02,0.27-4.08,0.53
				c-0.05,0.73-0.11,1.5-0.17,2.28c-0.05,0.69-0.1,1.43-0.16,2.24c-0.06,0.81-0.14,1.58-0.23,2.31c-0.18,1.41-0.39,2.96-0.64,4.63
				c-0.25,1.67-0.52,3.35-0.8,5.02s-0.6,3.25-0.95,4.74c-0.34,1.49-0.7,2.71-1.05,3.65c-0.4,0.99-0.93,2.22-1.59,3.69
				c-0.66,1.48-1.37,3.04-2.13,4.7c-0.76,1.66-1.54,3.31-2.34,4.94c-0.8,1.63-1.52,3.11-2.16,4.44c-0.57,1.18-1.21,2.49-1.91,3.92
				c-0.02,0-0.03-0.01-0.05-0.01c-1.18,2.55-2.56,4.96-4.15,7.23c-1.59,2.27-3.28,4.36-5.05,6.28c-1.78,1.92-3.61,3.63-5.51,5.13
				c-1.89,1.5-3.74,2.76-5.54,3.75c-1.8,1-3.48,1.73-5.04,2.19c-1.56,0.46-2.93,0.61-4.09,0.43c-0.9-0.13-1.47-0.55-1.72-1.26
				c-0.25-0.71-0.32-1.5-0.19-2.37c0.24-1.6,0.8-3.42,1.67-5.44c0.88-2.03,1.96-4.14,3.24-6.33c1.28-2.19,2.71-4.41,4.3-6.65
				c1.59-2.24,3.2-4.39,4.83-6.42c1.64-2.04,3.25-3.92,4.84-5.64c1.59-1.72,3.04-3.13,4.36-4.23c0.15,0.07,0.33,0.21,0.54,0.41
				c0.21,0.2,0.42,0.43,0.64,0.69c0.22,0.26,0.43,0.49,0.64,0.69c0.21,0.2,0.37,0.32,0.49,0.33c0.15-0.22,0.38-0.57,0.69-1.05
				c0.31-0.48,0.63-1.01,0.96-1.61c0.33-0.6,0.62-1.23,0.88-1.92c0.26-0.68,0.44-1.38,0.55-2.11c0.19-1.26,0.09-2.35-0.29-3.28
				c-0.38-0.92-0.94-1.7-1.68-2.33c-0.74-0.63-1.63-1.14-2.67-1.51c-1.04-0.38-2.12-0.65-3.25-0.82c-1.05-0.16-2.12-0.24-3.22-0.25
				c-1.09-0.01-2.11,0.05-3.04,0.18c-0.94,0.13-1.78,0.29-2.52,0.48s-1.29,0.4-1.65,0.65c-0.89-1.52-1.41-3.11-1.56-4.77
				c-0.15-1.66-0.22-3.29-0.2-4.9c0.02-1.61,0.01-3.18-0.01-4.73c-0.03-1.54-0.35-2.94-0.96-4.2c-0.61-1.26-1.62-2.34-3.04-3.24
				c-1.42-0.9-3.49-1.56-6.22-1.96c-2.38-0.35-4.39-0.5-6.05-0.45c-1.66,0.05-3.02,0.2-4.09,0.43c-0.07,0.73-0.14,1.49-0.22,2.27
				c-0.06,0.69-0.13,1.43-0.21,2.24c-0.08,0.81-0.17,1.57-0.28,2.3c-0.21,1.41-0.46,2.95-0.74,4.61c-0.29,1.67-0.6,3.33-0.92,5
				s-0.68,3.24-1.06,4.72c-0.38,1.48-0.76,2.69-1.14,3.63c-0.42,0.98-0.98,2.2-1.68,3.66c-0.69,1.46-1.44,3.01-2.24,4.65
				c-0.8,1.64-1.62,3.27-2.46,4.88c-0.83,1.59-1.57,3.04-2.24,4.34c-7.31,11.53-24.52,29.14-40.14,30.08
				c-6.32,0.38-8.31-6.46-6.67-15.2c0.45-2.71,1.94-7.99,3.14-11.01c8.92,10.68,23.97,2.2,33.73-9.74
				c10.67-13.29,14.69-31.09-4.91-31.03c-18.39,0.05-34.02,15.77-41.81,31.16c-1.85,3.62-3.35,7.33-4.46,10.97
				c-3.91,4.52-8.32,8.6-13.12,11.23c-4.21,2.27-7.23,3.03-9.64,2.74c5.41-7.55,9.6-16.45,11.99-24.9
				c4.78-16.44,2.93-31.05-9.13-31.02l-0.15,0c-6.03,0.02-11.44,4.4-15.95,9.54c1.65-2.57,3.75-5.89,6-9.51
				c10.21-15.55,26.12-37.9,33.64-44.4c-0.61-3.77-5.3-7.52-9.36-7.51c-3.01,0.01-6.02,1.97-8.28,4.69c-0.6,0.76-1.35,1.66-2.1,2.87
				c-6.61,8.61-19.37,26.58-30.63,44.39c-7.2,11.17-13.96,22.34-18.15,31.09l-0.15,0.15c-3.9,8-14.84,31.39-9.69,40.11
				c1.36,2.41,3.48,4.06,6.19,4.05c1.51,0,3.31-0.46,5.12-1.37c-0.16-1.36-0.01-3.01,0.29-5.43c2.42,3.46,5.44,6.32,8.61,6.76
				c0.3,0,0.6,0.15,0.9,0.15c0.75,0,1.36-0.15,2.11-0.16c7.83-0.62,15.06-4.86,21.37-10.91c11.42-0.19,20.72-5.4,28.05-12.3
				c-1.12,12.89,4.11,23.06,18.39,23.03c14.49-0.04,31.94-10.64,46.94-31.68c0.03-0.02,0.06-0.04,0.08-0.07
				c0.35-0.37,0.73-0.85,1.14-1.43c0.76-1.13,1.66-2.47,2.69-4.03c1.03-1.56,2.12-3.24,3.29-5.05c1.16-1.81,2.33-3.68,3.49-5.62
				c1.16-1.93,2.25-3.86,3.27-5.76c1.02-1.91,1.94-3.74,2.76-5.51c0.82-1.76,1.43-3.36,1.84-4.78c0.24,1.87,0.76,3.32,1.56,4.36
				c0.8,1.04,1.66,1.93,2.58,2.69c0.92,0.76,1.81,1.51,2.65,2.25c0.84,0.75,1.45,1.77,1.81,3.06c-2.63,2.44-5.05,5.26-7.26,8.48
				c-2.21,3.22-4.15,6.59-5.83,10.11c-1.68,3.52-3.08,7.06-4.2,10.61c-1.12,3.55-1.91,6.86-2.37,9.91c-0.3,2.04-0.41,3.93-0.31,5.68
				c0.1,1.75,0.44,3.3,1.01,4.65c0.58,1.35,1.41,2.45,2.49,3.31c1.09,0.85,2.47,1.41,4.14,1.66c4.83,0.72,9.34,0.42,13.53-0.89
				c4.19-1.31,8.08-3.34,11.65-6.08c3.57-2.74,6.81-6.04,9.71-9.9c2.9-3.86,4.79-6.69,7-11.08c0.16-0.31,1.27-2.28,1.91-3.49
				c0.74-1.14,2.57-4.82,3.56-6.4c0.99-1.58,2.05-3.29,3.17-5.13c1.12-1.84,2.24-3.74,3.36-5.7c1.12-1.96,2.16-3.91,3.14-5.84
				c0.97-1.93,1.85-3.79,2.63-5.57c0.78-1.78,1.35-3.39,1.73-4.83c0.28,1.86,0.84,3.31,1.66,4.32c0.83,1.02,1.71,1.89,2.65,2.63
				c0.94,0.74,1.84,1.47,2.7,2.19c0.86,0.73,1.49,1.73,1.88,3.02c-2.57,2.5-4.93,5.38-7.06,8.65c-2.13,3.27-4,6.68-5.59,10.24
				c-1.59,3.56-2.91,7.13-3.95,10.71c-1.04,3.58-1.75,6.9-2.14,9.97c-0.26,2.05-0.31,3.94-0.17,5.69c0.14,1.75,0.51,3.29,1.12,4.63
				c0.61,1.34,1.46,2.42,2.57,3.25c1.11,0.83,2.5,1.35,4.18,1.56c4.84,0.6,9.35,0.2,13.51-1.21c4.16-1.41,8-3.53,11.5-6.35
				c3.14-2.53,5.99-5.53,8.57-8.94c1.2,6.32,4.87,10.67,11.68,11.28c0.45,0,1.06,0.15,1.66,0.15c0.45,0,0.9-0.15,1.36-0.15
				c9.79-1.23,17.89-15.27,22.85-22.22c-2.09,7.09,0.21,22.15,11.36,22.12c7.6-0.02,15.65-7.3,22.61-15.97
				c-0.28,7.83,2.69,15.9,12.06,15.87c9.5-0.03,19.22-8.17,27.26-17.49c-0.17,1.89-0.14,3.64,0.13,5.21
				c1.07,6.18,4.55,12.2,11.64,12.18c8.33-0.02,17.21-8.77,24.59-18.51c-0.36,10.03,3.14,17.59,11.88,18.42
				c0.6,0,1.21,0.15,1.81,0.15s1.2-0.15,1.81-0.16c8.14-0.77,14.91-5.77,22.12-13.17c2.26,1.35,4.68,2.25,6.79,2.24
				c9.41-0.03,16.32-2.62,21.67-6.59c-1.37,5.97-1.64,10.76-0.25,13.31c1.21,2.41,3.33,4.06,6.04,4.05c1.66,0,3.31-0.46,5.27-1.37
				c-0.32-5.27,3.87-18.25,9.86-31.52c2.1-4.23,4.35-8.15,6.45-11.47c10.66-16.91,20.28-23.26,25.26-23.28
				c7.99-0.02,1.23,10.4-6.27,23.23c-7.05,12.38-14.85,26.87-10.6,36.65c1.97,4.67,5.29,7.22,10.42,7.66l0.45,0
				c16.43-0.5,34.42-34.6,39.07-42.91c0.3-0.6,0.45-1.06,0.45-1.51C759.02,255.51,755.71,255.07,754.06,257.79z M311.06,259.12
				l0.15-0.15c4.5-6.34,16.67-21.45,24.96-21.92c7.39,0.13-0.12,13.26-9.59,21.88c-6.61,6.05-14.29,9.99-18.52,5.78
				C309.26,261.98,309.41,261.68,311.06,259.12z M253.38,276.6c-0.15,0-0.15,0-0.3-0.15c-2.41-1.05-6.49-2.09-8.14,0.77
				c-1.5,2.72-0.74,5.58,1.23,8.29c-4.21,4.23-8.12,6.95-10.83,6.66c-9.5-1.03-2.91-18.53,6.69-33.02
				c9.61-14.64,22.08-26.13,23.77-14.68c0.61,3.92-0.58,9.19-2.82,14.63C260.74,264.98,257.14,271.17,253.38,276.6z M505.38,258.45
				c-7.8,14.34-27.01,45.59-29.61,28.11c-0.92-7.08,3.57-18.25,9.72-28.06c6.9-11.02,15.77-20.24,20.75-19.65
				c8.29,0.88,3.19,10.54,2.3,13.56C508.08,253.32,507.03,255.43,505.38,258.45z M646.04,275.41c-2.41-1.05-6.49-1.94-8.14,0.77
				c-1.35,2.42-0.74,5.28,0.78,7.84c-4.81,4.53-9.93,7.71-14.3,7.72c-8.29,0.02,1.74-25.02,3.54-28.34c1.05-1.81,1.95-3.62,3-5.28
				c18.76-30.95,34-23,25.02-0.07C654,263.18,650.7,269.06,646.04,275.41z"/>
		</g>
		<g>
			<path class="st19" d="M817.36,278.72c0.39,0.45,0.85,0.87,1.15,1.37c0.23,0.38,0.8,0.86,0.02,1.37
				c-0.09,0.06,0.15,1.05,0.46,1.23c0.69,0.41,0.71,1.13,1.05,1.7c0.07,0.13-0.16,0.4-0.16,0.61c0,0.17,0.07,0.39,0.19,0.52
				c0.21,0.24,0.51,0.4,0.72,0.63c0.1,0.11,0.11,0.32,0.15,0.49c-0.17,0-0.35,0-0.77,0c0.35,0.49,0.61,0.86,0.87,1.24
				c0.05-0.04,0.09-0.08,0.14-0.12c0.14,0.83,0.28,1.67,0.43,2.57c0.02,0-0.13,0.02-0.04,0.01c0,1.02,0.06,2-0.01,2.97
				c-0.15,1.87-0.3,3.74-0.59,5.59c-0.21,1.41-0.6,2.79-0.95,4.18c-0.18,0.72-0.51,1.42-0.67,2.14c-0.17,0.79-0.23,1.61-0.33,2.42
				c-0.02,0.16-0.02,0.43-0.09,0.46c-0.71,0.22-1.09,0.55-0.57,1.3c0,0.01-0.34,0.26-0.41,0.43c-0.79,2.32-0.83,5.06-3.62,6.38
				c0.26,0.1,0.48,0.18,0.57,0.21c-0.38,0.39-0.78,0.84-1.21,1.24c-0.99,0.94-1.99,1.86-3,2.78c-0.11,0.1-0.28,0.14-0.42,0.21
				c-0.69,0.34-1.39,0.69-2.08,1.03c-0.15,0.07-0.29,0.21-0.44,0.22c-1.51,0.1-3.02,0.31-4.52,0.23c-2.48-0.14-4.21-1.77-5.86-3.42
				c-1.66-1.67-2.61-3.7-3.41-5.91c-0.56-1.56-1.06-3.06-1.19-4.71c-0.16-2.1-0.56-4.18-0.64-6.28c-0.09-2.32,0.06-4.65,0.09-6.97
				c0.02-1.08-0.04-2.17,0.04-3.24c0.09-1.18,0.21-2.38,0.49-3.53c0.39-1.58,0.71-3.2,1.74-4.57c0.38-0.5,0.41-1.26,0.67-1.87
				c0.84-1.99,2.36-3.48,4.07-4.66c1.27-0.87,2.81-1.38,4.25-1.98c2.42-1.01,4.87-1.18,7.29-0.03c0.78,0.37,1.48,0.71,2.41,0.77
				c1.55,0.11,2.53,1.5,3.76,2.32c0.17,0.11,0.17,0.47,0.25,0.71C817.27,278.77,817.32,278.74,817.36,278.72z M801.28,311.74
				c0.64,0.4,1.48,0.54,1.15,1.5c-0.03,0.1,0.37,0.32,0.55,0.51c0.74,0.79,1.65,0.42,2.51,0.35c0.46-0.04,1-0.11,1.34-0.38
				c1.23-0.97,1.85-2.33,2.53-3.73c1.26-2.61,2.41-5.21,3.12-8.06c0.7-2.82,2.04-5.5,1.63-8.52c-0.22-1.65-0.32-3.33-0.71-4.94
				c-0.37-1.5-1.06-2.91-1.59-4.37c-0.16-0.43-0.31-0.88-0.37-1.34c-0.1-0.78-1.21-1.64-1.99-1.51c-0.8,0.13-1.6,0.29-2.41,0.34
				c-1.82,0.1-3.56,0.52-4.61,2.1c-0.76,1.14-1.29,2.49-1.67,3.81c-0.34,1.18-0.34,2.46-0.49,3.69c-0.06,0.47-0.12,0.94-0.17,1.4
				c-0.1,0.94-0.23,1.88-0.27,2.82c-0.03,0.65,0.23,1.35,0.06,1.95c-0.47,1.65,0.15,3.22,0.13,4.83c0,0.31-0.06,0.63-0.09,0.87
				c0.11,0.43,0.3,0.85,0.32,1.28c0.02,0.4-0.24,0.82-0.21,1.22c0.05,0.6,0.24,1.19,0.37,1.79c0.09,0.4,0.17,0.79,0.26,1.22
				c0.01,0-0.17-0.02-0.36-0.04c-0.05,0.08-0.1,0.16-0.16,0.24c0.29,0.23,0.58,0.46,1.01,0.79c0-0.01-0.06,0.25-0.12,0.52
				c0.14-0.18,0.27-0.36,0.41-0.54c0.22,0.58,0.44,1.17,0.67,1.79C801.8,311.5,801.6,311.59,801.28,311.74z"/>
			<path class="st19" d="M772.54,304.84c0.12,0.11,0.49,0.28,0.5,0.48c0.04,0.95-0.01,1.91-0.02,2.61c0.24,0.76,0.45,1.31,0.57,1.88
				c0.17,0.76,0.14,1.61,0.45,2.3c0.41,0.93,1.02,1.79,1.65,2.6c0.13,0.16,0.78,0.08,1.09-0.08c1.82-1,3.5-2.15,5.05-3.58
				c1.01-0.92,1.94-2.38,3.77-2.13c1.02,0.14,1.54,0.61,1.69,1.61c0.11,0.7,0.43,1.39,0.77,2.02c0.33,0.62,0.19,1.16-0.41,1.3
				c0.05,0.41,0.22,0.83,0.12,1.18c-0.22,0.74-0.29,1.44-0.26,2.22c0.03,0.93-0.44,1.8-1.29,2.42c-0.98,0.71-1.83,1.61-2.81,2.31
				c-0.58,0.41-1.3,0.64-1.99,0.88c-1.14,0.41-2.3,0.78-3.47,1.12c-0.39,0.11-0.83,0.09-1.24,0.04c-1.31-0.14-2.61-0.4-3.92-0.48
				c-2.66-0.16-3.81-2.18-5.2-3.99c-1.52-1.98-2.46-4.23-3.31-6.53c-0.35-0.96-0.4-2.03-0.57-3.05c-0.06-0.34-0.07-0.7-0.11-1.04
				c-0.24-2.13-0.6-4.25-0.67-6.38c-0.05-1.44,0.27-2.9,0.5-4.34c0.27-1.62,0.34-3.36,1.02-4.8c0.69-1.47,0.47-3.02,0.95-4.49
				c0.34-1.05,0.72-2.07,1.07-3.11c0.77-2.31,1.83-4.45,3-6.55c0.22-0.4,0.72-0.67,1.13-0.95c0.97-0.65,2.17-1.1,2.9-1.95
				c1.02-1.18,2.32-1.15,3.59-1.39c0.35-0.07,0.72-0.12,1.07-0.1c0.47,0.04,0.93,0.16,1.39,0.25c0.07,0.01,0.14,0.07,0.19,0.05
				c1.53-0.32,2.64,0.45,3.54,1.51c0.45,0.53,1.54,0.49,1.39,1.63c-0.04,0.27,0.61,0.61,0.89,0.95c1.3,1.56,2.53,3.15,2.46,5.33
				c-0.01,0.51-0.07,1.01-0.09,1.52c-0.03,0.97-0.95,1.63-1.86,1.32c-0.16-0.06-0.39-0.21-0.48-0.15c-0.95,0.61-1.41-0.14-1.98-0.65
				c-1.3-1.15-2.54-2.39-3.95-3.38c-0.7-0.49-1.37,0.35-1.87,0.83c-1.08,1.04-2.08,2.17-3.1,3.27c-0.12,0.13-0.12,0.36-0.17,0.55
				c-0.08,0.36-0.15,0.73-0.24,1.09c-0.26,1.04-0.59,2.06-0.8,3.1c-0.26,1.31-0.43,2.64-0.61,3.96c-0.12,0.86-0.17,1.74-0.29,2.6
				c-0.11,0.72-0.38,1.43-0.39,2.14c-0.01,0.61,0.24,1.22,0.39,1.83C772.77,303.38,772.93,304.12,772.54,304.84z"/>
			<path class="st19" d="M829.22,317.08c-0.68,1.39-1.29,2.72-1.99,3.99c-0.11,0.2-0.81,0.33-0.97,0.19
				c-0.51-0.46-0.92-0.25-1.43-0.09c-0.85,0.27-1.73,0.53-1.93-0.86c-0.06-0.44-0.62-0.86-0.58-1.26c0.11-1.36,0.1-2.97,1.37-3.74
				c1.1-0.66,2.51-0.82,3.8-1.14c0.16-0.04,0.51,0.25,0.62,0.47C828.49,315.41,828.82,316.21,829.22,317.08z"/>
		</g>
		<path class="st19" d="M603.64,211.47c0.93-1.86,2.42-3.22,4.49-3.84c3.35-1,6.7-1.99,10.09-2.82c2.01-0.49,4.15-1.48,6.05,0.39
			c2.48-0.16,3.15,1.86,4.26,3.34c-1.65,2.15-3.21,4.18-4.84,6.3c0.47,0.11,1.25,0.14,1.86,0.48c0.66,0.37,1.16,1.03,1.64,1.48
			c-0.32,1.39-1.08,1.88-2.16,2.03c-4.08,0.56-8.15,1.25-12.24,1.63c-0.98,0.09-2.61,0.22-2.88-1.66c-0.15-1.02-1.82-1.88,0.36-3.08
			c-1.99-0.23-3.37-0.39-4.56-0.53C604.97,213.86,604.33,212.71,603.64,211.47z"/>
	</g>
</g>
</svg>
