<?xml version="1.0" encoding="utf-8"?>
<!-- Generator: Adobe Illustrator 27.0.0, SVG Export Plug-In . SVG Version: 6.00 Build 0)  -->
<svg version="1.1" xmlns="http://www.w3.org/2000/svg" xmlns:xlink="http://www.w3.org/1999/xlink" x="0px" y="0px"
	 viewBox="0 0 360 360" style="enable-background:new 0 0 360 360;" xml:space="preserve">
<style type="text/css">
	.st0{fill:#FFFAE9;}
	.st1{filter:url(#Adobe_OpacityMaskFilter);}
	.st2{mask:url(#SVGID_1_);}
	.st3{fill:#DD9933;}
	.st4{filter:url(#Adobe_OpacityMaskFilter_00000046327538690864368410000017133355173397011866_);}
	.st5{stroke:#000000;stroke-width:1.4608;stroke-miterlimit:10;}
	.st6{stroke:#000000;stroke-width:1.5345;stroke-miterlimit:10;}
	.st7{fill:none;stroke:#231F20;stroke-width:0.5;stroke-miterlimit:10;}
	.st8{fill:#333333;}
	.st9{fill:none;stroke:#FFFAE9;stroke-width:0.5;stroke-miterlimit:10;}
	.st10{filter:url(#Adobe_OpacityMaskFilter_00000084490980177181585790000005939251593738542009_);}
	.st11{mask:url(#SVGID_00000047037985207463908950000014954791928872441748_);fill:#FFFAE9;}
	.st12{filter:url(#Adobe_OpacityMaskFilter_00000132804472853509444200000008570065621695230339_);}
	.st13{mask:url(#SVGID_00000036246781204320259350000014644831977469668283_);}
	.st14{filter:url(#Adobe_OpacityMaskFilter_00000153674141670932157590000002743848497759118223_);}
	.st15{mask:url(#SVGID_00000045599387031953390480000008342020847084330924_);}
	.st16{fill:none;stroke:#FFFAE9;stroke-width:3;stroke-linecap:round;stroke-miterlimit:10;}
	.st17{fill:#878787;}
	.st18{fill:#3A3A3A;}
	.st19{fill:#BF9931;}
	.st20{fill:none;stroke:#333333;stroke-miterlimit:10;}
	.st21{filter:url(#Adobe_OpacityMaskFilter_00000148642749173505261750000002566715155152503438_);}
	.st22{mask:url(#SVGID_00000168803814616065475380000004921680551359055009_);}
	.st23{fill:none;stroke:#878787;stroke-width:0.5;stroke-miterlimit:10;}
	.st24{fill:#4C4C4B;}
	.st25{filter:url(#Adobe_OpacityMaskFilter_00000051359758077055671410000009185785099532200351_);}
	.st26{mask:url(#SVGID_00000141453610736214082350000011172175384993692310_);}
	.st27{filter:url(#Adobe_OpacityMaskFilter_00000060725937038788802540000008902969203839535247_);}
	.st28{filter:url(#Adobe_OpacityMaskFilter_00000035507719873376669050000013654000705407013537_);}
	.st29{mask:url(#SVGID_00000013157450304798317390000002193204909046274468_);}
	.st30{filter:url(#Adobe_OpacityMaskFilter_00000021077676487075925320000011413300777894562996_);}
	.st31{mask:url(#SVGID_00000065795025547716969630000010687277885441226927_);}
	.st32{filter:url(#Adobe_OpacityMaskFilter_00000152983247080521392700000007766230499975071622_);}
	.st33{mask:url(#SVGID_00000134234255789573294820000002888863835855020720_);}
	.st34{filter:url(#Adobe_OpacityMaskFilter_00000016786662010243844100000001400265861105408659_);}
	.st35{fill:#231F20;}
	.st36{fill:#FFFAE9;stroke:#000000;stroke-width:0.8169;stroke-miterlimit:10;}
	.st37{fill:#AAD9BD;}
	.st38{opacity:0.37;fill:none;stroke:#FFFAE9;stroke-width:0.5;stroke-miterlimit:10;}
	.st39{filter:url(#Adobe_OpacityMaskFilter_00000106136501268109708520000014322118982625311925_);}
	.st40{mask:url(#SVGID_00000080204239197868900530000016693948604256307378_);}
	.st41{filter:url(#Adobe_OpacityMaskFilter_00000035526062627764994870000017930320350900258989_);}
	.st42{mask:url(#SVGID_00000142881843202774188410000015323873147946637741_);}
	.st43{filter:url(#Adobe_OpacityMaskFilter_00000102523361917387893760000007468473738772292517_);}
	.st44{filter:url(#Adobe_OpacityMaskFilter_00000109740186277978541290000007716741103164351674_);}
	.st45{mask:url(#SVGID_00000032619766765290842600000005658459758794870456_);}
	.st46{filter:url(#Adobe_OpacityMaskFilter_00000107549180571127943350000005195030274516519610_);}
</style>
<g id="Layer_2">
</g>
<g id="Layer_1">
	<g>
		<g>
			<path class="st18" d="M294.5,139.88c-0.25-5.33-0.91-10.69-1.97-15.94c-0.97-4.78-2.49-9.5-3.96-14.07l-0.33-1.03
				c-2.51-7.84-6.55-14.88-9.79-20.15c-3.71-6.03-8.27-11.98-13.94-18.19c-8.02-8.78-17.49-16.37-28.14-22.57
				c-12.37-7.2-25.26-12.02-38.33-14.32c-5.36-0.95-10.91-1.57-16.51-1.87c-6.29-0.34-13.15,0.12-21.57,1.41
				c-5.9,0.91-12.18,2.04-18.19,4.21c-2.75,0.99-5.46,2.16-8.09,3.29c-2.16,0.93-4.4,1.89-6.62,2.74
				c-5.9,2.25-11.12,5.74-16.17,9.12l-1.28,0.85c-4.38,2.92-8.22,6.49-11.77,9.88c-4.95,4.73-9.54,10.17-14.04,16.63
				c-4.12,5.92-7.11,12.29-9.73,18.29c-5.6,12.83-8.81,25.16-9.83,37.69c-1.09,13.4,0.24,26.54,3.93,39.07
				c3.08,10.45,7.4,19.58,13.21,27.91c0.46,0.66,0.75,1.23,0.87,1.74c0.9,3.61,2.59,6.59,5.19,9.1c2.33,2.26,4.84,5.09,5.71,8.98
				l0.61,2.71c0.77,3.42,1.55,6.84,2.26,10.27c0.36,1.74,0.68,3.49,0.99,5.23c0.5,2.78,1.02,5.64,1.72,8.44
				c1.17,4.72,4.27,7.02,8.96,6.67c2.18-0.18,3.47,0.68,4.41,2.94c0.41,0.98,0.68,2.19,0.83,3.68c0.27,2.74,0.51,5.49,0.75,8.24
				c0.27,3.12,0.54,6.24,0.86,9.35c0.34,3.35,0.81,6.88,2.5,10.11c1.22,2.33,3.25,3.75,5.57,3.9c2.33,0.16,4.49-0.98,5.97-3.1
				c0.19-0.26,0.39-0.52,0.59-0.78c0.41-0.52,0.83-1.06,1.16-1.68c1.42-2.71,3.19-6.09,2.97-10.04c-0.13-2.38-0.01-4.75,0.16-7.37
				c0.14-2.18,0.16-2.51,2.51-2.76c0.62,1.59,0.73,3.31,0.84,5.12c0.04,0.64,0.08,1.27,0.14,1.9c0.16,1.66,0.3,3.32,0.43,4.98
				c0.2,2.52,0.42,5.14,0.73,7.7c0.26,2.12,1.38,3.79,3.16,4.71c1.87,0.96,4.25,0.96,6.07-0.02c0.16-0.09,0.33-0.16,0.54-0.24
				c0.07,0.32,0.13,0.64,0.19,0.94c0.27,1.33,0.52,2.58,0.68,3.82c0.42,3.19,0.81,6.39,1.2,9.58c0.31,2.54,0.62,5.07,0.94,7.61
				c0.38,3,1.49,5.22,3.3,6.58c1.44,1.08,3.32,1.63,5.61,1.63c0.84,0,1.73-0.07,2.68-0.22c2.72-0.42,4.65-1.72,5.74-3.85
				c2.7-5.28,4.44-10.94,5.15-16.83c0.22-1.84,0.28-3.7,0.34-5.5c0.04-1.08,0.07-2.16,0.14-3.23l0.04-0.67
				c0.08-1.37,0.17-2.78,0.48-4.08c0.32-1.35,0.95-2.25,1.8-2.59c0.85-0.34,1.96-0.11,3.13,0.65c3.18,2.07,7.66,1.82,10.64-0.59
				c3.72-3.01,5.01-7.25,5.94-10.99c0.84-3.38,1.56-6.84,2.25-10.19c0.29-1.41,0.59-2.83,0.89-4.24c0.42-1.98,0.89-3.02,2.26-3.35
				c0.84,0.54,1.07,1.41,1.35,2.7l0.05,0.22c0.29,1.29,0.52,2.6,0.74,3.91l0.26,1.45c0.6,3.35,1.9,7.37,6.59,8.76
				c0.05,0.03,0.1,0.08,0.15,0.13c0.11,0.11,0.23,0.21,0.35,0.3c3.55,2.49,7.39,2.29,10.67,1.77c2.07-0.33,3.49-1.58,4-3.51
				c0.53-1.98,0.91-4.01,1.28-5.98l0.04-0.24c0.19-1.01,0.35-2.03,0.52-3.05c0.26-1.61,0.53-3.28,0.9-4.88
				c0.2-0.85,0.45-1.75,0.76-1.95c0.31-0.19,1.2-0.03,2.11,0.17c0.91,1.91,0.7,4,0.47,6.2l-0.05,0.53
				c-0.08,0.81-0.18,1.63-0.29,2.44c-0.23,1.77-0.47,3.61-0.44,5.44c0.04,2.33,0.28,4.67,0.51,6.93c0.12,1.14,0.23,2.28,0.32,3.43
				c0.28,3.53,2.08,6.56,4.93,8.32c2.82,1.74,6.28,2,9.5,0.7c0.73-0.29,1.45-0.91,1.92-1.66c1.74-2.71,3.77-6.36,4.01-10.61
				c0.34-5.97,0.68-12.14,0.54-18.3c-0.06-2.37,0-4.79,0.05-7.13c0.09-4.03,0.18-8.2-0.27-12.32c-0.11-1.02-0.23-2.2-0.17-3.33
				c0.07-1.32,0.45-2.04,2.29-2.31c0.18,0.27,0.35,0.54,0.52,0.8c0.58,0.9,1.13,1.75,1.78,2.56c1.07,1.33,2.09,2.4,3.11,3.27
				c2.67,2.26,4.97,2.36,6.42,2.05c2.01-0.43,3.77-1.95,4.82-4.17c1.19-2.5,1.56-5.36,1.75-7.58c0.2-2.29,0.02-4.61-0.16-6.85
				l-0.09-1.11c-0.47-6.26,1.13-12.38,4.89-18.71c0.27-0.46,0.77-0.87,1.3-1.3c0.36-0.29,0.71-0.58,1.03-0.9
				c0.27-0.27,0.56-0.54,0.85-0.8c0.84-0.76,1.71-1.55,2.21-2.61c2.57-5.51,4.67-10.4,6.44-14.93c1.09-2.81,1.86-5.69,2.28-8.56
				c0.51-3.51,0.62-7.13,0.66-10.52c0.03-2.29,0.4-3.91,1.23-5.39c0.61-1.09,0.73-2.44,0.76-3.49c0.04-1.41,0.1-2.83,0.16-4.24
				C294.52,148.55,294.7,144.18,294.5,139.88z M190.48,86.88c4.19-4.28,15.75-4.25,19.95,1.74c2.76,3.94,3.81,8.07,4.25,12.33
				c0.54,5.27,0.71,10.57-0.5,15.78c-0.74,3.2-1.62,6.39-2.77,9.51c-0.81,2.19-0.28,4.05,1.01,6.02c1.96,3.02,3.71,6.09,3.46,9.61
				c-0.3,4.2-1.36,8.14-5.91,10.77c-3.51,2.04-4.05,4.89-3.86,7.98c0.25,4.1,0.62,8.19,0.9,12.29c0.17,2.54,0.47,5.09,0.33,7.62
				c-0.11,2.07-0.57,4.16-1.25,6.15c-0.55,1.63-1.92,2.9-4.3,3.13c-1.87,0.18-3.96-0.75-4.85-2.64c-1-2.12-1.75-4.37-2.1-6.61
				c-0.48-3.08-0.48-6.19-0.67-9c-0.02-5.03-0.1-9.77-0.03-14.5c0.06-4.11-0.82-8.02-4.16-11.36c-2.92-2.92-3.26-6.24-2.71-9.62
				c0.44-2.69,1.34-5.33,2.14-7.97c1.11-3.64,1.61-7.31,0.92-11.05c-0.25-1.34-0.9-2.65-1.33-3.98c-1.85-5.78-2.86-11.64-2.91-17.58
				C186.04,92.1,187.99,89.42,190.48,86.88z M129.29,91.59c0.22-1.41,0.83-2.39,1.82-2.92c0.53-0.28,1.64-0.65,3.1,0.05
				c0.85,0.41,1.71,0.93,2.56,1.56c4.88,3.64,8.03,8.41,10.47,12.61c0.64,1.1,1.31,2.18,2.01,3.29c1.29-1.95,2.59-3.93,3.89-5.91
				l2.45-3.73c1-1.53,2.24-3.26,4.17-4.59c1.06-0.73,3.21-2.19,5.69-0.7c0.11,0.01,0.19,0.02,0.25,0.03l1.48,0.24l1.66,6.12
				l-0.67,0.9c-1.29,1.73-2.54,3.5-3.8,5.29c-2.72,3.86-5.52,7.83-8.8,11.55l0.58,0.86c1.3,1.91,2.56,3.76,3.78,5.62
				c0.72,1.1,1.35,2.24,1.96,3.34l0.25,0.46c0.64,1.15,1.37,2.25,2.14,3.42c1.2,1.81,2.44,3.68,3.37,5.8
				c0.82,1.87,0.81,3.64,0.73,4.82c-0.14,2.24-1.72,3.77-4.01,3.88c-0.14,0.01-0.27,0.01-0.4,0.01c-1.57,0-2.92-0.45-4.22-1.39
				c-5.74-4.13-8.9-9.9-11.79-15.62c-0.65,1.03-1.28,2.04-1.92,3.05l-0.17,0.27c-0.32,0.53-0.73,1.2-1.36,1.77
				c-0.36,0.32-2.22,1.86-4.03,0.95c-1.24-0.62-2.21-2.04-2.28-3.38c-0.06-1.22,0.15-2.52,0.62-3.68c0.82-2.09,1.75-4.11,2.79-6.34
				c0.44-0.96,0.93-1.9,1.43-2.87l0.13-0.26l-4.28-8.54c-0.35-0.7-0.68-1.4-1.02-2.1c-1.16-2.44-2.25-4.75-3.91-6.67
				c-1.07-1.25-2.06-2.55-3.01-3.81c-0.41-0.54-0.82-1.08-1.23-1.6l-0.61-0.79L129.29,91.59z M253.46,167.81
				c-1.29,0.59-2.58,1.2-3.78,1.76c-0.22,2.38-0.44,4.67-0.65,6.95c-0.5,5.57-2.77,10.57-5.19,15.48c-0.71,1.43-1.93,2.63-3.03,3.84
				c-2.08,2.29-4.13,4.64-6.43,6.7c-1.33,1.19-3.1,1.92-4.73,2.74c-1.47,0.74-2.97,1.45-4.52,1.97c-4.78,1.59-7.85,4.87-10.27,9.19
				c-2.02,3.61-4.64,6.88-6.99,10.3c-0.16,0.24-0.4,0.43-0.53,0.69c-2.73,5.33-7.51,6.49-12.92,6.36c-1.72-0.04-3.46-0.38-5.14-0.15
				c-4.6,0.61-8.78-0.82-12.97-2.29c-1-0.35-2.13-0.61-2.9-1.26c-3.3-2.79-7.1-2.06-10.82-1.66c-1.61,0.17-3.25,0.64-4.73,1.3
				c-5.55,2.49-10.64,1.57-15.68-1.49c-6.01-3.66-9.38-9.13-10.85-15.76c-1.8-8.07-4.88-15.64-8.32-23.09
				c-1.31-2.84-3.06-5.38-5.94-6.9c-6.28,1.93-8.11,1.75-10.42-1.29c0.76-0.52,1.47-1.1,2.26-1.51c0.85-0.44,1.8-0.69,2.68-1.09
				c2.47-1.12,4.9-2.24,6.04-5.05c0.75-1.83,2.5-2.27,4.33-2.36c0.91-0.05,1.82,0.48,1.58,1.24c-0.75,2.39,0.41,5.3-2.33,7.13
				c4.87,3.17,7.33,7.72,9.48,12.52c1.25,2.8,2.88,5.44,3.97,8.3c1.37,3.59,2.35,7.34,3.52,11.01c1.53,4.79,4.44,8.48,8.72,11.13
				c2.88,1.78,5.87,1.73,8.76,0.34c4.26-2.04,8.77-2.74,13.37-2.51c2.01,0.1,4.15,0.96,5.91,2.02c4.69,2.82,9.66,4.07,15.09,3.78
				c1.92-0.1,3.87-0.06,5.77,0.2c2.51,0.34,3.89-0.84,5.13-2.85c2.73-4.43,5.72-8.7,8.45-13.13c2.16-3.51,5.26-5.84,8.78-7.72
				c1.52-0.81,3.17-1.38,4.75-2.09c2.63-1.18,5.31-2.24,7.06-4.79c0.69-1.01,1.7-1.85,2.68-2.61c5.41-4.18,7.54-10.17,8.76-16.5
				c0.63-3.28,0.55-6.7,0.63-10.07c0.02-0.74-0.6-1.51-1-2.23c-0.78-1.41-1.62-2.79-2.41-4.14c0.57-0.71,0.93-1.17,1.3-1.61
				c0.87-1.03,1.73-0.96,2.73-0.1c1.17,1,2.45,1.87,3.68,2.8c1.85,1.38,3.72,1.4,5.64,0.12c0.55-0.37,1.19-0.79,1.8-0.82
				c0.57-0.03,1.41,0.28,1.7,0.72C256.61,163.08,255.34,166.95,253.46,167.81z"/>
			<path class="st18" d="M225.33,295.69c-0.46-3.34-0.73-6.7-1.26-10.03c-0.5-3.16-3.22-6.05-6.91-5.43
				c-2.42,0.41-3.45,1.13-3.59,3.63c-0.08,1.44,0.05,2.9,0.25,4.33c0.33,2.33,0.13,4.57-0.48,6.86c-0.66,2.49-0.91,5.08-1.14,6.39
				c0.12,4.79,0.66,8.18,2.9,11.06c2.6,3.36,8.07,2.81,9.31-0.23c1.47-3.59,2.73-7.21,1.89-11.2
				C225.92,299.3,225.57,297.5,225.33,295.69z"/>
		</g>
	</g>
</g>
</svg>
